{
.appVersion = "3151";
.formatVersion = 3;
classes = (
{
automatic = 1;
code = "A Aacute Abreve Abreveacute Abrevedotbelow Abrevegrave Abrevehookabove Abrevetilde Acircumflex Acircumflexacute Acircumflexdotbelow Acircumflexgrave Acircumflexhookabove Acircumflextilde Adblgrave Adieresis Adotbelow Agrave Ahookabove Ainvertedbreve Amacron Aogonek Aring Aringacute Atilde AE AEacute B C Cacute Ccaron Ccedilla Ccircumflex Cdotaccent D DZcaron Eth Dcaron Dcroat Dzcaron E Eacute Ebreve Ecaron Ecircumflex Ecircumflexacute Ecircumflexdotbelow Ecircumflexgrave Ecircumflexhookabove Ecircumflextilde Edblgrave Edieresis Edotaccent Edotbelow Egrave Ehookabove Einvertedbreve Emacron Eogonek Etilde Schwa F G Gbreve Gcaron Gcircumflex Gcommaaccent Gdotaccent H Hbar Hcircumflex I IJ Iacute Ibreve Icircumflex Idblgrave Idieresis Idotaccent Idotbelow Igrave Ihookabove Iinvertedbreve Imacron Iogonek Itilde J Jcircumflex K Kcommaaccent L LJ Lacute Lcaron Lcommaaccent Ldot Lj Lslash M N NJ Nacute Ncaron Ncommaaccent Nj Ntilde Eng O Oacute Obreve Ocircumflex Ocircumflexacute Ocircumflexdotbelow Ocircumflexgrave Ocircumflexhookabove Ocircumflextilde Odblgrave Odieresis Odieresismacron Odotaccentmacron Odotbelow Ograve Ohookabove Ohorn Ohornacute Ohorndotbelow Ohorngrave Ohornhookabove Ohorntilde Ohungarumlaut Oinvertedbreve Omacron Oogonek Oslash Oslashacute Otilde Otildemacron OE P Thorn Q R Racute Rcaron Rcommaaccent Rdblgrave Rinvertedbreve S Sacute Scaron Scedilla Scircumflex Scommaaccent Germandbls T Tbar Tcaron Tcedilla Tcommaaccent U Uacute Ubreve Ucircumflex Udblgrave Udieresis Udotbelow Ugrave Uhookabove Uhorn Uhornacute Uhorndotbelow Uhorngrave Uhornhookabove Uhorntilde Uhungarumlaut Uinvertedbreve Umacron Uogonek Uring Utilde V W Wacute Wcircumflex Wdieresis Wgrave X Y Yacute Ycircumflex Ydieresis Ydotbelow Ygrave Yhookabove Ymacron Ytilde Z Zacute Zcaron Zdotaccent Iacute_J.loclNLD I_J.loclNLD Omega";
name = Uppercase;
}
);
customParameters = (
{
name = fsType;
value = (
);
},

glyphs = (
{
color = 3;
glyphname = A;
kernLeft = A;
kernRight = A;
lastChange = "2023-02-01 10:33:45 +0000";
layers = (
{
anchors = (
{
name = bottom;
pos = (361,0);
},
{
name = ogonek;
pos = (717,0);
},
{
name = top;
pos = (356,688);
}
);
background = {
anchors = (
{
name = bottom;
pos = (361,0);
},
{
name = ogonek;
pos = (707,0);
},
{
name = top;
pos = (356,688);
}
);
shapes = (
{
closed = 1;
nodes = (
(239,0,l),
(268,132,l),
(446,132,l),
(472,0,l),
(707,0,l),
(508,688,l),
(204,688,l),
(14,0,l)
);
},
{
closed = 1;
nodes = (
(357,556,l),
(422,255,l),
(289,255,l)
);
}
);
};
layerId = UUID0;
shapes = (
{
closed = 1;
nodes = (
(239,0,l),
(268,132,l),
(446,132,l),
(472,0,l),
(717,0,l),
(518,688,l),
(194,688,l),
(4,0,l)
);
},
{
closed = 1;
nodes = (
(357,556,l),
(422,255,l),
(289,255,l)
);
}
);
width = 716;
}
);
unicode = 65;
},
{
glyphname = Aring;
kernLeft = A;
kernRight = A;
lastChange = "2023-02-01 10:52:44 +0000";
layers = (
{
background = {
shapes = (
{
closed = 1;
nodes = (
(230,0,l),
(259,132,l),
(437,132,l),
(463,0,l),
(698,0,l),
(499,687,l),
(512,710,o),
(520,739,o),
(520,771,cs),
(520,867,o),
(456,944,o),
(348,944,cs),
(249,944,o),
(175,876,o),
(175,771,cs),
(175,740,o),
(183,712,o),
(195,688,c),
(5,0,l)
);
},
{
closed = 1;
nodes = (
(348,556,l),
(413,255,l),
(280,255,l)
);
},
{
closed = 1;
nodes = (
(312,706,o),
(287,732,o),
(287,771,cs),
(287,813,o),
(311,838,o),
(346,838,cs),
(382,838,o),
(406,813,o),
(406,771,cs),
(406,732,o),
(385,706,o),
(348,706,cs)
);
}
);
};
layerId = UUID0;
shapes = (
{
ref = A;
},
{
alignment = -1;
pos = (56,-100);
ref = ringcomb.case;
}
);
width = 716;
}
);
unicode = 197;
},
{
color = 3;
glyphname = AE;
kernLeft = A;
kernRight = E;
lastChange = "2023-02-01 10:33:45 +0000";
layers = (
{
anchors = (
{
name = bottom;
pos = (485,0);
},
{
name = top;
pos = (485,688);
}
);
background = {
anchors = (
{
name = bottom;
pos = (485,0);
},
{
name = top;
pos = (485,688);
}
);
shapes = (
{
closed = 1;
nodes = (
(233,0,l),
(274,132,l),
(443,132,l),
(465,0,l),
(944,0,l),
(918,152,l),
(649,152,l),
(627,285,l),
(872,285,l),
(851,411,l),
(605,411,l),
(584,536,l),
(852,536,l),
(826,688,l),
(249,688,l),
(14,0,l)
);
},
{
closed = 1;
nodes = (
(378,506,l),
(419,255,l),
(311,255,l)
);
}
);
};
guides = (
{
angle = 99.6865;
pos = (921,0);
}
);
layerId = UUID0;
shapes = (
{
closed = 1;
nodes = (
(611,285,l),
(872,285,l),
(851,411,l),
(589,411,l)
);
},
{
closed = 1;
nodes = (
(465,0,l),
(944,0,l),
(918,152,l),
(649,152,l),
(584,536,l),
(852,536,l),
(826,688,l),
(239,688,l),
(4,0,l),
(233,0,l),
(274,132,l),
(469,132,l),
(445,255,l),
(311,255,l),
(378,506,l)
);
}
);
width = 951;
}
);
unicode = 198;
},
{
color = 3;
glyphname = B;
kernLeft = B;
lastChange = "2023-02-02 12:04:26 +0000";
layers = (
{
anchors = (
{
name = bottom;
pos = (355,0);
},
{
name = top;
pos = (355,688);
}
);
background = {
shapes = (
{
closed = 1;
nodes = (
(552,-12,o),
(686,68,o),
(686,209,cs),
(686,303,o),
(641,356,o),
(546,374,c),
(619,400,o),
(655,447,o),
(655,517,cs),
(655,624,o),
(556,691,o),
(336,691,cs),
(258,691,o),
(166,689,o),
(55,685,c),
(55,9,l),
(166,-7,o),
(222,-12,o),
(315,-12,cs)
);
},
{
closed = 1;
nodes = (
(330,137,o),
(305,139,o),
(277,145,c),
(277,303,l),
(363,303,ls),
(430,303,o),
(467,272,o),
(467,217,cs),
(467,166,o),
(426,137,o),
(353,137,cs)
);
},
{
closed = 1;
nodes = (
(278,553,l),
(305,554,o),
(329,555,o),
(353,555,cs),
(415,555,o),
(447,531,o),
(447,484,cs),
(447,444,o),
(410,416,o),
(357,416,cs),
(278,416,l)
);
}
);
};
layerId = UUID0;
shapes = (
{
closed = 1;
nodes = (
(552,0,o),
(686,68,o),
(686,209,cs),
(686,303,o),
(641,356,o),
(546,374,c),
(619,400,o),
(655,447,o),
(655,517,cs),
(655,624,o),
(556,688,o),
(336,688,cs),
(55,688,l),
(55,0,l),
(315,0,l)
);
},
{
closed = 1;
nodes = (
(277,141,l),
(277,299,l),
(363,299,ls),
(430,299,o),
(467,269,o),
(467,217,cs),
(467,169,o),
(430,141,o),
(363,141,cs)
);
},
{
closed = 1;
nodes = (
(278,551,l),
(353,551,ls),
(415,551,o),
(447,529,o),
(447,482,cs),
(447,442,o),
(410,416,o),
(357,416,cs),
(278,416,l)
);
}
);
width = 711;
}
);
unicode = 66;
},
{
color = 3;
glyphname = C;
kernLeft = C;
kernRight = C;
lastChange = "2023-02-02 11:09:00 +0000";
layers = (
{
anchors = (
{
name = bottom;
pos = (350,0);
},
{
name = top;
pos = (350,688);
}
);
background = {
anchors = (
{
name = bottom;
pos = (350,0);
},
{
name = top;
pos = (350,688);
}
);
shapes = (
{
closed = 1;
nodes = (
(453,-16,o),
(516,1,o),
(574,35,c),
(546,193,l),
(493,171,o),
(463,165,o),
(422,165,cs),
(314,165,o),
(250,231,o),
(250,345,cs),
(250,461,o),
(309,525,o),
(416,525,cs),
(455,525,o),
(498,516,o),
(546,498,c),
(573,653,l),
(523,686,o),
(448,703,o),
(378,703,cs),
(176,703,o),
(26,550,o),
(26,344,cs),
(26,140,o),
(182,-16,o),
(384,-16,cs)
);
}
);
};
layerId = UUID0;
shapes = (
{
closed = 1;
nodes = (
(453,-16,o),
(516,1,o),
(574,35,c),
(546,193,l),
(494,172,o),
(465,165,o),
(422,165,cs),
(314,165,o),
(250,231,o),
(250,340,cs),
(250,456,o),
(316,525,o),
(426,525,cs),
(463,525,o),
(507,517,o),
(546,498,c),
(573,657,l),
(528,688,o),
(467,703,o),
(388,703,cs),
(176,703,o),
(26,550,o),
(26,334,cs),
(26,123,o),
(168,-16,o),
(384,-16,cs)
);
}
);
width = 591;
}
);
unicode = 67;
},
{
color = 3;
glyphname = D;
kernLeft = B;
kernRight = O;
lastChange = "2023-02-01 10:33:45 +0000";
layers = (
{
anchors = (
{
name = bottom;
pos = (372,0);
},
{
name = center;
pos = (372,344);
},
{
name = stroke;
pos = (185,344);
},
{
name = top;
pos = (372,688);
}
);
background = {
shapes = (
{
closed = 1;
nodes = (
(155,-2,o),
(234,-2,o),
(284,-2,cs),
(578,-2,o),
(722,129,o),
(722,349,cs),
(722,550,o),
(594,692,o),
(294,692,cs),
(234,692,o),
(155,690,o),
(55,684,c),
(55,7,l)
);
},
{
closed = 1;
nodes = (
(276,511,l),
(299,513,o),
(317,513,o),
(340,513,cs),
(450,513,o),
(498,448,o),
(498,351,cs),
(498,245,o),
(447,175,o),
(340,175,cs),
(317,175,o),
(299,175,o),
(276,178,c)
);
}
);
};
layerId = UUID0;
shapes = (
{
closed = 1;
nodes = (
(284,0,ls),
(578,0,o),
(722,129,o),
(722,349,cs),
(722,550,o),
(594,688,o),
(294,688,cs),
(55,688,l),
(55,0,l)
);
},
{
closed = 1;
nodes = (
(276,513,l),
(340,513,ls),
(450,513,o),
(498,448,o),
(498,351,cs),
(498,245,o),
(447,175,o),
(340,175,cs),
(276,175,l)
);
}
);
width = 748;
}
);
unicode = 68;
},
{
color = 6;
glyphname = Eth;
kernLeft = B;
kernRight = O;
lastChange = "2023-02-01 14:43:39 +0000";
layers = (
{
background = {
shapes = (
{
closed = 1;
nodes = (
(394,0,ls),
(617,0,o),
(762,140,o),
(762,349,cs),
(762,546,o),
(616,688,o),
(394,688,cs),
(95,688,l),
(95,387,l),
(4,387,l),
(4,302,l),
(95,302,l),
(95,0,l)
);
},
{
closed = 1;
nodes = (
(315,302,l),
(394,302,l),
(394,387,l),
(315,387,l),
(315,508,l),
(383,508,ls),
(489,508,o),
(537,443,o),
(537,351,cs),
(537,254,o),
(487,180,o),
(383,180,cs),
(315,180,l)
);
}
);
};
layerId = UUID0;
shapes = (
{
pos = (20,0);
ref = D;
},
{
pos = (10,-1);
ref = strokeshortcomb.case;
}
);
width = 768;
}
);
metricLeft = "=+20";
unicode = 208;
},
{
color = 3;
glyphname = E;
kernLeft = B;
kernRight = E;
lastChange = "2023-02-01 14:44:01 +0000";
layers = (
{
anchors = (
{
name = bottom;
pos = (297,0);
},
{
name = ogonek;
pos = (538,0);
},
{
name = top;
pos = (297,688);
},
{
name = topleft;
pos = (10,688);
}
);
background = {
anchors = (
{
name = bottom;
pos = (297,0);
},
{
name = ogonek;
pos = (538,0);
},
{
name = top;
pos = (297,688);
},
{
name = topleft;
pos = (10,688);
}
);
shapes = (
{
closed = 1;
nodes = (
(538,0,l),
(538,152,l),
(298,152,l),
(298,285,l),
(517,285,l),
(517,411,l),
(298,411,l),
(298,536,l),
(538,536,l),
(538,688,l),
(55,688,l),
(55,0,l)
);
}
);
};
layerId = UUID0;
shapes = (
{
closed = 1;
nodes = (
(538,0,l),
(538,157,l),
(298,157,l),
(298,288,l),
(517,288,l),
(517,414,l),
(298,414,l),
(298,536,l),
(538,536,l),
(538,688,l),
(55,688,l),
(55,0,l)
);
}
);
width = 573;
}
);
unicode = 69;
},
{
color = 3;
glyphname = Schwa;
kernLeft = C;
kernRight = O;
lastChange = "2019-06-16 19:47:07 +0000";
layers = (
{
background = {
shapes = (
{
closed = 1;
nodes = (
(585,-16,o),
(735,134,o),
(735,343,cs),
(735,557,o),
(585,703,o),
(356,703,cs),
(277,703,o),
(194,687,o),
(116,643,c),
(154,489,l),
(223,513,o),
(262,522,o),
(323,522,cs),
(418,522,o),
(479,491,o),
(500,416,c),
(29,361,l),
(26,350,o),
(26,339,o),
(26,325,cs),
(26,137,o),
(154,-18,o),
(367,-17,cs)
);
},
{
closed = 1;
nodes = (
(293,142,o),
(243,181,o),
(232,240,c),
(510,287,l),
(509,201,o),
(465,142,o),
(365,142,cs)
);
}
);
};
layerId = UUID0;
shapes = (
{
closed = 1;
nodes = (
(585,-16,o),
(735,134,o),
(735,343,cs),
(735,557,o),
(585,703,o),
(356,703,cs),
(277,703,o),
(194,687,o),
(116,643,c),
(154,489,l),
(223,513,o),
(272,522,o),
(333,522,cs),
(418,522,o),
(479,491,o),
(500,416,c),
(29,361,l),
(26,350,o),
(26,339,o),
(26,325,cs),
(26,127,o),
(154,-18,o),
(377,-17,cs)
);
},
{
closed = 1;
nodes = (
(293,142,o),
(243,181,o),
(232,240,c),
(510,287,l),
(509,201,o),
(465,142,o),
(365,142,cs)
);
}
);
width = 761;
}
);
unicode = 399;
},
{
color = 3;
glyphname = F;
kernLeft = B;
lastChange = "2023-02-02 11:51:35 +0000";
layers = (
{
anchors = (
{
name = bottom;
pos = (163,0);
},
{
name = top;
pos = (292,688);
}
);
background = {
anchors = (
{
name = bottom;
pos = (163,0);
},
{
name = top;
pos = (292,688);
}
);
shapes = (
{
closed = 1;
nodes = (
(270,0,l),
(270,271,l),
(510,271,l),
(510,397,l),
(270,397,l),
(270,536,l),
(529,536,l),
(529,688,l),
(55,688,l),
(55,0,l)
);
}
);
};
layerId = UUID0;
shapes = (
{
closed = 1;
nodes = (
(270,0,l),
(270,263,l),
(510,263,l),
(510,397,l),
(270,397,l),
(270,536,l),
(529,536,l),
(529,688,l),
(55,688,l),
(55,0,l)
);
}
);
width = 556;
}
);
unicode = 70;
},
{
color = 3;
glyphname = G;
kernLeft = C;
kernRight = G;
lastChange = "2023-02-01 10:33:45 +0000";
layers = (
{
anchors = (
{
name = bottom;
pos = (361,0);
},
{
name = top;
pos = (361,688);
}
);
background = {
anchors = (
{
name = bottom;
pos = (1251,0);
},
{
name = top;
pos = (1251,688);
}
);
shapes = (
{
closed = 1;
nodes = (
(456,-16,o),
(536,1,o),
(612,36,c),
(612,349,l),
(439,329,l),
(439,168,l),
(427,165,o),
(415,164,o),
(399,164,cs),
(309,164,o),
(248,243,o),
(248,347,cs),
(248,451,o),
(304,526,o),
(409,526,cs),
(453,526,o),
(492,516,o),
(536,498,c),
(602,653,l),
(543,686,o),
(467,703,o),
(391,703,cs),
(174,703,o),
(26,545,o),
(26,350,cs),
(26,146,o),
(175,-16,o),
(381,-16,cs)
);
}
);
};
layerId = UUID0;
shapes = (
{
closed = 1;
nodes = (
(456,-16,o),
(536,1,o),
(612,36,c),
(612,349,l),
(439,329,l),
(439,158,l),
(427,155,o),
(415,154,o),
(399,154,cs),
(311,154,o),
(248,223,o),
(248,340,cs),
(248,456,o),
(314,525,o),
(424,525,cs),
(469,525,o),
(513,516,o),
(555,498,c),
(585,655,l),
(536,688,o),
(473,703,o),
(394,703,cs),
(174,703,o),
(26,548,o),
(26,330,cs),
(26,126,o),
(165,-16,o),
(381,-16,cs)
);
}
);
width = 656;
}
);
unicode = 71;
},
{
color = 3;
glyphname = H;
kernLeft = B;
kernRight = H;
lastChange = "2023-02-01 10:33:45 +0000";
layers = (
{
anchors = (
{
name = bottom;
pos = (387,0);
},
{
name = center;
pos = (387,560);
},
{
name = top;
pos = (387,688);
},
{
name = topleft;
pos = (10,688);
}
);
background = {
anchors = (
{
name = bottom;
pos = (387,0);
},
{
name = center;
pos = (387,344);
},
{
name = top;
pos = (387,688);
},
{
name = topleft;
pos = (10,688);
}
);
shapes = (
{
closed = 1;
nodes = (
(280,0,l),
(280,270,l),
(493,270,l),
(493,0,l),
(719,0,l),
(719,688,l),
(493,688,l),
(493,414,l),
(280,414,l),
(280,688,l),
(55,688,l),
(55,0,l)
);
}
);
};
layerId = UUID0;
shapes = (
{
closed = 1;
nodes = (
(280,0,l),
(280,271,l),
(493,271,l),
(493,0,l),
(719,0,l),
(719,688,l),
(493,688,l),
(493,429,l),
(280,429,l),
(280,688,l),
(55,688,l),
(55,0,l)
);
}
);
width = 774;
}
);
unicode = 72;
},
{
color = 6;
glyphname = Hbar;
kernLeft = B;
kernRight = H;
lastChange = "2023-02-01 14:44:47 +0000";
layers = (
{
background = {
shapes = (
{
closed = 1;
nodes = (
(355,0,l),
(355,270,l),
(568,270,l),
(568,0,l),
(793,0,l),
(793,478,l),
(823,478,l),
(823,563,l),
(793,563,l),
(793,672,l),
(568,672,l),
(568,563,l),
(355,563,l),
(355,672,l),
(130,672,l),
(130,563,l),
(102,563,l),
(102,478,l),
(130,478,l),
(130,0,l)
);
},
{
closed = 1;
nodes = (
(355,478,l),
(568,478,l),
(568,414,l),
(355,414,l)
);
}
);
};
layerId = UUID0;
shapes = (
{
pos = (20,0);
ref = H;
},
{
pos = (5,39);
ref = strokelongcomb.case;
}
);
width = 814;
}
);
metricLeft = "=+20";
metricRight = "=+20";
unicode = 294;
},
{
color = 3;
glyphname = I;
kernLeft = B;
kernRight = H;
lastChange = "2023-02-01 10:33:45 +0000";
layers = (
{
anchors = (
{
name = bottom;
pos = (168,0);
},
{
name = ogonek;
pos = (281,0);
},
{
name = top;
pos = (168,688);
},
{
name = topleft;
pos = (10,688);
}
);
background = {
anchors = (
{
name = bottom;
pos = (171,0);
},
{
name = ogonek;
pos = (286,0);
},
{
name = top;
pos = (171,688);
},
{
name = topleft;
pos = (10,688);
}
);
shapes = (
{
closed = 1;
nodes = (
(286,0,l),
(286,688,l),
(55,688,l),
(55,0,l)
);
}
);
};
layerId = UUID0;
shapes = (
{
closed = 1;
nodes = (
(281,0,l),
(281,688,l),
(55,688,l),
(55,0,l)
);
}
);
width = 336;
}
);
unicode = 73;
},
{
color = 3;
glyphname = J;
kernLeft = J;
kernRight = J;
lastChange = "2023-02-02 12:03:01 +0000";
layers = (
{
anchors = (
{
name = bottom;
pos = (207,0);
},
{
name = top;
pos = (268,688);
}
);
background = {
anchors = (
{
name = bottom;
pos = (207,0);
},
{
name = top;
pos = (268,688);
}
);
shapes = (
{
closed = 1;
nodes = (
(289,-45,o),
(375,47,o),
(375,201,cs),
(375,688,l),
(160,688,l),
(160,201,ls),
(160,146,o),
(138,118,o),
(93,118,cs),
(74,118,o),
(51,123,o),
(25,132,c),
(-22,8,l),
(31,-27,o),
(88,-45,o),
(150,-45,cs)
);
}
);
};
layerId = UUID0;
shapes = (
{
closed = 1;
nodes = (
(295,-16,o),
(375,72,o),
(375,240,cs),
(375,688,l),
(160,688,l),
(160,227,ls),
(160,175,o),
(138,151,o),
(93,151,cs),
(72,151,o),
(49,159,o),
(30,167,c),
(-15,35,l),
(22,0,o),
(87,-16,o),
(150,-16,cs)
);
}
);
width = 426;
}
);
unicode = 74;
},
{
color = 4;
glyphname = K;
kernLeft = B;
kernRight = K;
lastChange = "2023-02-02 11:13:21 +0000";
layers = (
{
anchors = (
{
name = bottom;
pos = (384,0);
},
{
name = top;
pos = (384,688);
}
);
background = {
shapes = (
{
closed = 1;
nodes = (
(287,0,l),
(287,265,l),
(390,265,l),
(334,303,l),
(503,0,l),
(746,0,l),
(746,45,l),
(565,347,l),
(723,643,l),
(723,688,l),
(492,688,l),
(343,384,l),
(390,414,l),
(287,414,l),
(287,688,l),
(55,688,l),
(55,0,l)
);
}
);
};
layerId = UUID0;
shapes = (
{
closed = 1;
nodes = (
(287,0,l),
(287,265,l),
(390,265,l),
(334,303,l),
(503,0,l),
(767,0,l),
(560,347,l),
(742,688,l),
(492,688,l),
(343,384,l),
(390,414,l),
(287,414,l),
(287,688,l),
(55,688,l),
(55,0,l)
);
}
);
width = 742;
}
);
unicode = 75;
},
{
color = 3;
glyphname = L;
kernLeft = B;
kernRight = L;
lastChange = "2023-02-01 14:47:04 +0000";
layers = (
{
anchors = (
{
name = bottom;
pos = (283,0);
},
{
name = center;
pos = (426,418);
},
{
name = stroke;
pos = (185,392);
},
{
name = top;
pos = (163,688);
},
{
name = topright;
pos = (331,688);
}
);
background = {
anchors = (
{
name = bottom;
pos = (283,0);
},
{
name = center;
pos = (426,418);
},
{
name = top;
pos = (163,688);
},
{
name = topright;
pos = (331,688);
}
);
shapes = (
{
closed = 1;
nodes = (
(510,0,l),
(510,152,l),
(271,152,l),
(271,688,l),
(55,688,l),
(55,0,l)
);
}
);
};
layerId = UUID0;
shapes = (
{
closed = 1;
nodes = (
(505,0,l),
(515,158,l),
(271,158,l),
(271,688,l),
(55,688,l),
(55,0,l)
);
}
);
width = 536;
}
);
unicode = 76;
},
{
color = 6;
glyphname = Lslash;
kernLeft = B;
kernRight = L;
lastChange = "2023-02-01 14:47:17 +0000";
layers = (
{
background = {
shapes = (
{
closed = 1;
nodes = (
(577,0,l),
(577,152,l),
(338,152,l),
(338,377,l),
(487,416,l),
(487,501,l),
(338,462,l),
(338,688,l),
(123,688,l),
(123,408,l),
(33,385,l),
(33,300,l),
(123,323,l),
(123,0,l)
);
}
);
};
layerId = UUID0;
shapes = (
{
pos = (20,0);
ref = L;
},
{
pos = (-25,-9);
ref = slashshortcomb.case;
}
);
width = 556;
}
);
metricLeft = "=+20";
unicode = 321;
},
{
color = 3;
glyphname = M;
kernLeft = B;
kernRight = H;
lastChange = "2023-02-01 10:33:45 +0000";
layers = (
{
anchors = (
{
name = bottom;
pos = (433,0);
},
{
name = top;
pos = (433,688);
}
);
background = {
anchors = (
{
name = bottom;
pos = (433,0);
},
{
name = top;
pos = (433,688);
}
);
shapes = (
{
closed = 1;
nodes = (
(263,0,l),
(263,367,l),
(391,127,l),
(476,127,l),
(603,367,l),
(603,0,l),
(811,0,l),
(811,688,l),
(603,688,l),
(435,354,l),
(263,688,l),
(55,688,l),
(55,0,l)
);
}
);
};
layerId = UUID0;
shapes = (
{
closed = 1;
nodes = (
(263,0,l),
(263,360,l),
(391,120,l),
(476,120,l),
(603,360,l),
(603,0,l),
(811,0,l),
(811,688,l),
(603,688,l),
(435,354,l),
(263,688,l),
(55,688,l),
(55,0,l)
);
}
);
width = 866;
}
);
unicode = 77;
},
{
color = 3;
glyphname = N;
kernLeft = B;
kernRight = H;
lastChange = "2023-02-01 10:33:45 +0000";
layers = (
{
anchors = (
{
name = bottom;
pos = (382,0);
},
{
name = top;
pos = (382,688);
}
);
background = {
anchors = (
{
name = bottom;
pos = (382,0);
},
{
name = top;
pos = (382,688);
}
);
shapes = (
{
closed = 1;
nodes = (
(233,0,l),
(233,358,l),
(509,0,l),
(709,0,l),
(709,688,l),
(530,688,l),
(530,317,l),
(256,688,l),
(55,688,l),
(55,0,l)
);
}
);
};
layerId = UUID0;
shapes = (
{
closed = 1;
nodes = (
(239,0,l),
(239,453,l),
(175,433,l),
(509,0,l),
(709,0,l),
(709,688,l),
(525,688,l),
(525,222,l),
(586,241,l),
(255,688,l),
(55,688,l),
(55,0,l)
);
}
);
width = 764;
}
);
unicode = 78;
},
{
color = 3;
glyphname = Eng;
kernLeft = B;
kernRight = H;
lastChange = "2023-02-01 10:33:45 +0000";
layers = (
{
background = {
shapes = (
{
closed = 1;
nodes = (
(638,-248,o),
(709,-155,o),
(709,-3,cs),
(709,688,l),
(530,688,l),
(530,317,l),
(256,688,l),
(55,688,l),
(55,0,l),
(233,0,l),
(233,358,l),
(530,-26,l),
(527,-73,o),
(509,-96,o),
(474,-96,cs),
(441,-96,o),
(421,-91,o),
(396,-81,c),
(353,-207,l),
(401,-234,o),
(459,-248,o),
(522,-248,cs)
);
}
);
};
layerId = UUID0;
shapes = (
{
closed = 1;
nodes = (
(709,688,l),
(525,688,l),
(525,222,l),
(586,241,l),
(255,688,l),
(55,688,l),
(55,0,l),
(239,0,l),
(239,453,l),
(175,433,l),
(544,-42,l),
(525,109,l),
(525,36,ls),
(525,-6,o),
(503,-28,o),
(458,-28,cs),
(437,-28,o),
(414,-20,o),
(395,-12,c),
(350,-140,l),
(384,-169,o),
(444,-185,o),
(502,-185,cs),
(635,-185,o),
(709,-97,o),
(709,51,cs)
);
}
);
width = 764;
}
);
unicode = 330;
},
{
color = 3;
glyphname = O;
kernLeft = C;
kernRight = O;
lastChange = "2023-02-02 12:03:07 +0000";
layers = (
{
anchors = (
{
name = bottom;
pos = (394,0);
},
{
name = center;
pos = (394,344);
},
{
name = ogonek;
pos = (541,10);
},
{
name = top;
pos = (394,688);
},
{
name = topleft;
pos = (15,688);
},
{
name = topright;
pos = (773,688);
}
);
background = {
anchors = (
{
name = bottom;
pos = (394,0);
},
{
name = center;
pos = (394,344);
},
{
name = ogonek;
pos = (541,10);
},
{
name = top;
pos = (394,688);
},
{
name = topleft;
pos = (15,688);
},
{
name = topright;
pos = (773,688);
}
);
shapes = (
{
closed = 1;
nodes = (
(612,-16,o),
(762,134,o),
(762,343,cs),
(762,557,o),
(612,703,o),
(394,703,cs),
(176,703,o),
(26,555,o),
(26,343,cs),
(26,133,o),
(176,-16,o),
(394,-16,cs)
);
},
{
closed = 1;
nodes = (
(309,166,o),
(250,237,o),
(250,344,cs),
(250,451,o),
(309,527,o),
(393,527,cs),
(478,527,o),
(538,451,o),
(538,344,cs),
(538,237,o),
(478,166,o),
(394,166,cs)
);
}
);
};
layerId = UUID0;
shapes = (
{
closed = 1;
nodes = (
(612,-16,o),
(762,134,o),
(762,343,cs),
(762,557,o),
(612,703,o),
(394,703,cs),
(176,703,o),
(26,555,o),
(26,343,cs),
(26,133,o),
(176,-16,o),
(394,-16,cs)
);
},
{
closed = 1;
nodes = (
(309,166,o),
(250,237,o),
(250,344,cs),
(250,453,o),
(309,527,o),
(393,527,cs),
(478,527,o),
(538,451,o),
(538,344,cs),
(538,237,o),
(478,166,o),
(394,166,cs)
);
}
);
width = 788;
}
);
unicode = 79;
},
{
color = 3;
glyphname = Ohorn;
kernLeft = C;
kernRight = O;
lastChange = "2023-02-01 10:33:45 +0000";
layers = (
{
anchors = (
{
name = bottom;
pos = (394,0);
},
{
name = top;
pos = (393,688);
}
);
background = {
shapes = (
{
closed = 1;
nodes = (
(612,-16,o),
(762,134,o),
(762,343,cs),
(762,557,o),
(612,703,o),
(394,703,cs),
(176,703,o),
(26,555,o),
(26,343,cs),
(26,133,o),
(176,-16,o),
(394,-16,cs)
);
},
{
closed = 1;
nodes = (
(309,166,o),
(250,237,o),
(250,344,cs),
(250,453,o),
(309,527,o),
(393,527,cs),
(478,527,o),
(538,451,o),
(538,344,cs),
(538,237,o),
(478,166,o),
(394,166,cs)
);
}
);
};
layerId = UUID0;
shapes = (
{
closed = 1;
nodes = (
(612,-16,o),
(762,134,o),
(762,343,cs),
(762,443,o),
(729,530,o),
(664,599,c),
(748,620,o),
(782,670,o),
(782,792,c),
(665,792,l),
(665,703,o),
(646,689,o),
(571,689,cs),
(506,689,o),
(471,703,o),
(394,703,cs),
(176,703,o),
(26,555,o),
(26,343,cs),
(26,133,o),
(176,-16,o),
(394,-16,cs)
);
},
{
closed = 1;
nodes = (
(309,166,o),
(250,237,o),
(250,344,cs),
(250,451,o),
(309,527,o),
(393,527,cs),
(478,527,o),
(538,451,o),
(538,344,cs),
(538,237,o),
(478,166,o),
(394,166,cs)
);
}
);
width = 788;
}
);
unicode = 416;
},
{
color = 3;
glyphname = Oogonek;
kernLeft = C;
kernRight = O;
lastChange = "2023-02-02 15:38:51 +0000";
layers = (
{
anchors = (
{
name = top;
pos = (394,688);
}
);
background = {
anchors = (
{
name = top;
pos = (394,688);
}
);
shapes = (
{
closed = 1;
nodes = (
(474,-238,o),
(507,-233,o),
(538,-220,c),
(537,-162,l),
(519,-168,o),
(502,-171,o),
(490,-171,cs),
(458,-171,o),
(442,-157,o),
(442,-130,cs),
(442,-91,o),
(467,-41,o),
(599,38,cs),
(700,99,o),
(762,209,o),
(762,343,cs),
(762,557,o),
(612,703,o),
(394,703,cs),
(176,703,o),
(26,555,o),
(26,343,cs),
(26,133,o),
(176,-16,o),
(394,-16,cs),
(415,-16,l),
(342,-56,o),
(314,-102,o),
(314,-148,cs),
(314,-202,o),
(359,-238,o),
(445,-238,cs)
);
},
{
closed = 1;
nodes = (
(309,166,o),
(250,237,o),
(250,344,cs),
(250,451,o),
(309,527,o),
(393,527,cs),
(478,527,o),
(538,451,o),
(538,344,cs),
(538,237,o),
(478,166,o),
(394,166,cs)
);
}
);
};
layerId = UUID0;
shapes = (
{
closed = 1;
nodes = (
(474,-238,o),
(506,-233,o),
(537,-220,c),
(537,-162,l),
(519,-168,o),
(502,-171,o),
(490,-171,cs),
(458,-171,o),
(442,-157,o),
(442,-130,cs),
(442,-91,o),
(467,-41,o),
(599,38,cs),
(700,99,o),
(762,209,o),
(762,343,cs),
(762,557,o),
(612,703,o),
(394,703,cs),
(176,703,o),
(26,555,o),
(26,343,cs),
(26,133,o),
(176,-16,o),
(394,-16,cs),
(415,-16,l),
(342,-56,o),
(314,-102,o),
(314,-148,cs),
(314,-202,o),
(359,-238,o),
(445,-238,cs)
);
},
{
closed = 1;
nodes = (
(309,166,o),
(250,237,o),
(250,344,cs),
(250,451,o),
(309,527,o),
(393,527,cs),
(478,527,o),
(538,451,o),
(538,344,cs),
(538,237,o),
(478,166,o),
(394,166,cs)
);
}
);
width = 788;
}
);
unicode = 490;
},
{
color = 6;
glyphname = Oslash;
kernLeft = C;
kernRight = O;
lastChange = "2023-02-01 10:33:45 +0000";
layers = (
{
anchors = (
{
name = bottom;
pos = (400,0);
},
{
name = top;
pos = (400,688);
}
);
background = {
anchors = (
{
name = bottom;
pos = (400,0);
},
{
name = top;
pos = (400,688);
}
);
shapes = (
{
closed = 1;
nodes = (
(307,-126,l),
(340,-12,l),
(359,-15,o),
(379,-16,o),
(399,-16,cs),
(617,-16,o),
(767,134,o),
(767,343,cs),
(767,507,o),
(679,632,o),
(539,680,c),
(577,813,l),
(492,813,l),
(459,699,l),
(440,702,o),
(420,703,o),
(399,703,cs),
(181,703,o),
(31,555,o),
(31,343,cs),
(31,181,o),
(120,56,o),
(260,7,c),
(222,-126,l)
);
},
{
closed = 1;
nodes = (
(277,226,o),
(255,278,o),
(255,344,cs),
(255,451,o),
(314,527,o),
(398,527,cs),
(410,527,l),
(314,195,l)
);
},
{
closed = 1;
nodes = (
(485,494,l),
(521,462,o),
(543,409,o),
(543,344,cs),
(543,237,o),
(483,166,o),
(399,166,cs),
(391,166,l)
);
}
);
};
layerId = UUID0;
shapes = (
{
ref = O;
},
{
pos = (-6,0);
ref = slashlongcomb;
}
);
width = 788;
}
);
unicode = 216;
},
{
color = 3;
glyphname = OE;
kernLeft = C;
kernRight = E;
lastChange = "2023-02-01 14:44:10 +0000";
layers = (
{
anchors = (
{
name = bottom;
pos = (507,0);
},
{
name = top;
pos = (507,688);
}
);
background = {
anchors = (
{
name = bottom;
pos = (1707,0);
},
{
name = top;
pos = (1707,688);
}
);
shapes = (
{
closed = 1;
nodes = (
(1584,-16,o),
(1646,2,o),
(1690,33,c),
(1690,0,l),
(2171,0,l),
(2171,150,l),
(1931,150,l),
(1931,285,l),
(2150,285,l),
(2150,411,l),
(1931,411,l),
(1931,536,l),
(2171,536,l),
(2171,688,l),
(1693,688,l),
(1693,655,l),
(1651,687,o),
(1601,703,o),
(1543,703,cs),
(1357,703,o),
(1226,547,o),
(1226,342,cs),
(1226,137,o),
(1357,-16,o),
(1535,-16,cs)
);
},
{
closed = 1;
nodes = (
(1502,165,o),
(1450,232,o),
(1450,344,cs),
(1450,456,o),
(1502,526,o),
(1582,526,cs),
(1618,526,o),
(1651,518,o),
(1690,500,c),
(1690,191,l),
(1651,172,o),
(1618,165,o),
(1582,165,cs)
);
},
{
closed = 1;
nodes = (
(973,0,l),
(973,157,l),
(733,157,l),
(733,288,l),
(952,288,l),
(952,414,l),
(733,414,l),
(733,536,l),
(973,536,l),
(973,688,l),
(490,688,l),
(490,0,l)
);
}
);
};
layerId = UUID0;
shapes = (
{
closed = 1;
nodes = (
(384,-16,o),
(446,2,o),
(490,33,c),
(490,0,l),
(973,0,l),
(973,157,l),
(733,157,l),
(733,288,l),
(952,288,l),
(952,414,l),
(733,414,l),
(733,536,l),
(973,536,l),
(973,688,l),
(493,688,l),
(493,655,l),
(451,687,o),
(401,703,o),
(343,703,cs),
(157,703,o),
(26,547,o),
(26,342,cs),
(26,137,o),
(147,-16,o),
(335,-16,cs)
);
},
{
closed = 1;
nodes = (
(302,165,o),
(250,232,o),
(250,344,cs),
(250,456,o),
(312,526,o),
(402,526,cs),
(428,526,o),
(461,518,o),
(490,500,c),
(490,191,l),
(461,172,o),
(428,165,o),
(392,165,cs)
);
}
);
width = 1008;
}
);
metricRight = E;
unicode = 338;
},
{
color = 3;
glyphname = P;
kernLeft = B;
lastChange = "2023-02-01 10:33:45 +0000";
layers = (
{
anchors = (
{
name = bottom;
pos = (315,0);
},
{
name = top;
pos = (315,688);
}
);
background = {
anchors = (
{
name = bottom;
pos = (315,0);
},
{
name = top;
pos = (315,688);
}
);
shapes = (
{
closed = 1;
nodes = (
(271,0,l),
(271,235,l),
(313,235,ls),
(487,235,o),
(626,320,o),
(626,460,cs),
(626,604,o),
(509,688,o),
(303,688,cs),
(55,688,l),
(55,0,l)
);
},
{
closed = 1;
nodes = (
(295,374,o),
(281,375,o),
(271,376,c),
(271,544,l),
(314,544,ls),
(386,544,o),
(425,516,o),
(425,460,cs),
(425,403,o),
(383,374,o),
(314,374,cs)
);
}
);
};
layerId = UUID0;
shapes = (
{
closed = 1;
nodes = (
(276,0,l),
(276,235,l),
(328,235,ls),
(512,235,o),
(631,320,o),
(631,470,cs),
(631,614,o),
(514,689,o),
(288,689,cs),
(55,689,l),
(55,0,l)
);
},
{
closed = 1;
nodes = (
(276,374,l),
(276,544,l),
(321,544,l),
(391,544,o),
(430,516,o),
(430,462,cs),
(430,403,o),
(390,374,o),
(319,374,c)
);
}
);
width = 647;
}
);
unicode = 80;
},
{
color = 3;
glyphname = Thorn;
kernLeft = B;
lastChange = "2023-02-01 14:50:17 +0000";
layers = (
{
background = {
shapes = (
{
closed = 1;
nodes = (
(276,0,l),
(276,145,l),
(328,145,ls),
(512,145,o),
(631,230,o),
(631,380,cs),
(631,524,o),
(514,599,o),
(288,599,cs),
(55,599,l),
(55,0,l)
);
},
{
closed = 1;
nodes = (
(276,284,l),
(276,454,l),
(321,454,l),
(391,454,o),
(430,426,o),
(430,372,cs),
(430,313,o),
(390,284,o),
(319,284,c)
);
}
);
};
layerId = UUID0;
shapes = (
{
closed = 1;
nodes = (
(276,599,l),
(276,688,l),
(55,688,l),
(55,0,l),
(276,0,l),
(276,145,l),
(328,145,ls),
(512,145,o),
(631,230,o),
(631,380,cs),
(631,524,o),
(514,599,o),
(288,599,cs)
);
},
{
closed = 1;
nodes = (
(276,284,l),
(276,454,l),
(321,454,ls),
(391,454,o),
(430,426,o),
(430,372,cs),
(430,313,o),
(390,284,o),
(319,284,cs)
);
}
);
width = 647;
}
);
unicode = 222;
},
{
color = 3;
glyphname = Q;
kernLeft = C;
kernRight = O;
lastChange = "2023-02-02 12:03:34 +0000";
layers = (
{
anchors = (
{
name = bottom;
pos = (394,0);
},
{
name = top;
pos = (394,688);
}
);
background = {
shapes = (
{
closed = 1;
nodes = (
(794,-82,l),
(794,-44,l),
(634,61,l),
(718,131,o),
(762,233,o),
(762,343,cs),
(762,557,o),
(612,703,o),
(394,703,cs),
(176,703,o),
(26,555,o),
(26,343,cs),
(26,133,o),
(176,-16,o),
(393,-16,cs),
(399,-16,o),
(409,-15,o),
(415,-14,c),
(668,-180,l)
);
},
{
closed = 1;
nodes = (
(309,166,o),
(250,237,o),
(250,344,cs),
(250,453,o),
(309,527,o),
(393,527,cs),
(478,527,o),
(538,451,o),
(538,344,cs),
(538,237,o),
(478,166,o),
(394,166,cs)
);
}
);
};
layerId = UUID0;
shapes = (
{
closed = 1;
nodes = (
(821,-61,l),
(634,61,l),
(718,131,o),
(762,233,o),
(762,343,cs),
(762,557,o),
(612,703,o),
(394,703,cs),
(176,703,o),
(26,555,o),
(26,343,cs),
(26,133,o),
(176,-16,o),
(393,-16,cs),
(399,-16,o),
(409,-15,o),
(415,-14,c),
(668,-180,l)
);
},
{
closed = 1;
nodes = (
(309,166,o),
(250,237,o),
(250,344,cs),
(250,453,o),
(309,527,o),
(393,527,cs),
(478,527,o),
(538,451,o),
(538,344,cs),
(538,237,o),
(478,166,o),
(394,166,cs)
);
}
);
width = 788;
}
);
unicode = 81;
},
{
color = 4;
glyphname = R;
kernLeft = B;
kernRight = R;
lastChange = "2023-02-02 11:52:14 +0000";
layers = (
{
anchors = (
{
name = bottom;
pos = (339,0);
},
{
name = top;
pos = (339,688);
}
);
background = {
shapes = (
{
closed = 1;
nodes = (
(615,-16,o),
(643,-8,o),
(670,3,c),
(658,167,l),
(643,163,o),
(629,161,o),
(614,161,cs),
(569,161,o),
(545,177,o),
(528,225,cs),
(520,248,o),
(517,263,o),
(512,292,c),
(607,333,o),
(647,396,o),
(647,475,cs),
(647,606,o),
(557,688,o),
(338,688,cs),
(55,688,l),
(55,0,l),
(274,0,l),
(274,264,l),
(321,264,l),
(326,229,o),
(331,190,o),
(339,158,cs),
(368,42,o),
(447,-16,o),
(576,-16,cs)
);
},
{
closed = 1;
nodes = (
(274,539,l),
(343,539,ls),
(415,539,o),
(447,519,o),
(447,474,cs),
(447,421,o),
(411,401,o),
(312,401,cs),
(274,401,l)
);
}
);
};
layerId = UUID0;
shapes = (
{
closed = 1;
nodes = (
(615,-16,o),
(643,-8,o),
(670,3,c),
(658,167,l),
(643,163,o),
(629,161,o),
(614,161,cs),
(569,161,o),
(545,177,o),
(528,225,cs),
(520,248,o),
(517,263,o),
(512,292,c),
(607,333,o),
(647,396,o),
(647,475,cs),
(647,606,o),
(557,688,o),
(338,688,cs),
(55,688,l),
(55,0,l),
(274,0,l),
(274,264,l),
(321,264,l),
(334,107,o),
(385,-16,o),
(576,-16,cs)
);
},
{
closed = 1;
nodes = (
(274,539,l),
(343,539,ls),
(415,539,o),
(447,519,o),
(447,474,cs),
(447,421,o),
(411,401,o),
(312,401,cs),
(274,401,l)
);
}
);
width = 676;
}
);
unicode = 82;
},
{
color = 4;
glyphname = S;
kernLeft = S;
kernRight = S;
lastChange = "2023-02-01 14:54:17 +0000";
layers = (
{
anchors = (
{
name = bottom;
pos = (303,0);
},
{
name = top;
pos = (303,688);
}
);
background = {
shapes = (
{
closed = 1;
nodes = (
(444,-16,o),
(550,71,o),
(550,226,cs),
(550,450,o),
(232,419,o),
(232,495,cs),
(232,521,o),
(262,535,o),
(318,535,cs),
(366,535,o),
(418,525,o),
(476,499,c),
(530,649,l),
(484,683,o),
(402,703,o),
(324,703,cs),
(137,703,o),
(26,613,o),
(26,469,cs),
(26,239,o),
(346,280,o),
(346,202,cs),
(346,173,o),
(318,158,o),
(268,158,cs),
(208,158,o),
(132,173,o),
(73,197,c),
(17,38,l),
(77,3,o),
(171,-16,o),
(255,-16,cs)
);
}
);
};
layerId = UUID0;
shapes = (
{
closed = 1;
nodes = (
(444,-16,o),
(550,71,o),
(550,226,cs),
(550,450,o),
(232,419,o),
(232,495,cs),
(232,521,o),
(262,539,o),
(318,539,cs),
(366,539,o),
(418,527,o),
(486,499,c),
(520,646,l),
(474,680,o),
(392,703,o),
(314,703,cs),
(137,703,o),
(26,613,o),
(26,469,cs),
(26,239,o),
(346,280,o),
(346,202,cs),
(346,173,o),
(318,154,o),
(265,154,cs),
(208,154,o),
(140,162,o),
(63,204,c),
(27,41,l),
(87,6,o),
(181,-16,o),
(265,-16,cs)
);
}
);
width = 563;
}
);
unicode = 83;
},
{
color = 4;
glyphname = Germandbls;
lastChange = "2023-02-01 14:55:20 +0000";
layers = (
{
background = {
shapes = (
{
closed = 1;
nodes = (
(592,-29,o),
(711,59,o),
(711,188,cs),
(711,277,o),
(638,359,o),
(519,402,c),
(596,449,o),
(626,493,o),
(626,554,cs),
(626,643,o),
(512,703,o),
(344,703,cs),
(248,703,o),
(155,689,o),
(55,661,c),
(55,0,l),
(278,0,l),
(278,541,l),
(303,548,o),
(328,550,o),
(349,550,cs),
(395,550,o),
(419,534,o),
(419,510,cs),
(419,476,o),
(399,454,o),
(347,423,c),
(347,321,l),
(436,312,o),
(487,269,o),
(487,208,cs),
(487,160,o),
(450,131,o),
(393,131,cs),
(369,131,o),
(351,133,o),
(327,138,c),
(327,-18,l),
(348,-24,o),
(378,-29,o),
(434,-29,cs)
);
}
);
};
layerId = UUID0;
shapes = (
{
closed = 1;
nodes = (
(612,-17,o),
(711,71,o),
(711,200,cs),
(711,279,o),
(657,365,o),
(519,402,c),
(596,443,o),
(626,493,o),
(626,554,cs),
(626,643,o),
(532,703,o),
(344,703,cs),
(248,703,o),
(155,689,o),
(55,661,c),
(55,0,l),
(278,0,l),
(278,541,l),
(303,548,o),
(328,550,o),
(349,550,cs),
(395,550,o),
(419,534,o),
(419,510,cs),
(419,476,o),
(399,454,o),
(346,443,c),
(346,316,l),
(446,312,o),
(487,271,o),
(487,220,cs),
(487,172,o),
(450,143,o),
(403,143,cs),
(379,143,o),
(361,145,o),
(337,150,c),
(327,-6,l),
(348,-12,o),
(378,-17,o),
(434,-17,cs)
);
}
);
width = 736;
}
);
unicode = 7838;
},
{
color = 3;
glyphname = T;
kernLeft = T;
kernRight = T;
lastChange = "2023-02-02 13:23:53 +0000";
layers = (
{
anchors = (
{
name = bottom;
pos = (280,0);
},
{
name = stroke;
pos = (280,344);
},
{
name = top;
pos = (280,688);
}
);
background = {
anchors = (
{
name = bottom;
pos = (280,0);
},
{
name = center;
pos = (280,344);
},
{
name = top;
pos = (280,688);
}
);
shapes = (
{
closed = 1;
nodes = (
(396,0,l),
(396,536,l),
(539,536,l),
(539,688,l),
(20,688,l),
(20,536,l),
(163,536,l),
(163,0,l)
);
}
);
};
layerId = UUID0;
shapes = (
{
closed = 1;
nodes = (
(396,0,l),
(396,530,l),
(551,530,l),
(551,688,l),
(8,688,l),
(8,530,l),
(163,530,l),
(163,0,l)
);
}
);
width = 559;
}
);
unicode = 84;
},
{
color = 6;
glyphname = Tbar;
kernLeft = T;
kernRight = T;
lastChange = "2023-02-01 10:33:45 +0000";
layers = (
{
background = {
shapes = (
{
closed = 1;
nodes = (
(405,0,l),
(405,283,l),
(495,283,l),
(495,368,l),
(405,368,l),
(405,536,l),
(548,536,l),
(548,688,l),
(29,688,l),
(29,536,l),
(172,536,l),
(172,368,l),
(82,368,l),
(82,283,l),
(172,283,l),
(172,0,l)
);
}
);
};
layerId = UUID0;
shapes = (
{
ref = T;
},
{
pos = (85,-1);
ref = strokeshortcomb.case;
}
);
width = 559;
}
);
unicode = 358;
},
{
color = 3;
glyphname = U;
kernLeft = U;
kernRight = U;
lastChange = "2023-02-02 12:03:47 +0000";
layers = (
{
anchors = (
{
name = bottom;
pos = (381,0);
},
{
name = ogonek;
pos = (529,10);
},
{
name = top;
pos = (381,688);
},
{
name = topright;
pos = (760,688);
}
);
background = {
anchors = (
{
name = bottom;
pos = (381,0);
},
{
name = ogonek;
pos = (529,10);
},
{
name = top;
pos = (381,688);
},
{
name = topright;
pos = (760,688);
}
);
shapes = (
{
closed = 1;
nodes = (
(582,-16,o),
(721,107,o),
(721,285,cs),
(721,688,l),
(495,688,l),
(495,285,ls),
(495,207,o),
(456,165,o),
(381,165,cs),
(307,165,o),
(267,205,o),
(267,285,cs),
(267,688,l),
(41,688,l),
(41,285,ls),
(41,107,o),
(180,-16,o),
(381,-16,cs)
);
}
);
};
layerId = UUID0;
shapes = (
{
closed = 1;
nodes = (
(578,-16,o),
(721,107,o),
(721,285,cs),
(721,688,l),
(496,688,l),
(496,285,ls),
(496,210,o),
(456,165,o),
(381,165,cs),
(310,165,o),
(263,205,o),
(263,295,cs),
(263,688,l),
(41,688,l),
(41,285,ls),
(41,97,o),
(176,-16,o),
(377,-16,cs)
);
}
);
width = 762;
}
);
unicode = 85;
},
{
color = 3;
glyphname = Uhorn;
kernLeft = U;
kernRight = U;
lastChange = "2023-02-01 14:55:51 +0000";
layers = (
{
anchors = (
{
name = bottom;
pos = (381,0);
},
{
name = top;
pos = (381,688);
}
);
background = {
shapes = (
{
closed = 1;
nodes = (
(578,-16,o),
(721,107,o),
(721,285,cs),
(721,688,l),
(496,688,l),
(496,285,ls),
(496,210,o),
(456,165,o),
(381,165,cs),
(310,165,o),
(263,205,o),
(263,295,cs),
(263,688,l),
(41,688,l),
(41,285,ls),
(41,97,o),
(176,-16,o),
(377,-16,cs)
);
}
);
};
layerId = UUID0;
shapes = (
{
closed = 1;
nodes = (
(578,-16,o),
(721,107,o),
(721,285,cs),
(721,586,l),
(791,607,o),
(826,661,o),
(826,791,c),
(709,791,l),
(709,692,o),
(680,688,o),
(605,688,cs),
(496,688,l),
(496,285,ls),
(496,210,o),
(456,165,o),
(381,165,cs),
(310,165,o),
(263,205,o),
(263,295,cs),
(263,688,l),
(41,688,l),
(41,285,ls),
(41,97,o),
(176,-16,o),
(377,-16,cs)
);
}
);
width = 782;
}
);
unicode = 431;
},
{
color = 3;
glyphname = Uogonek;
kernLeft = U;
kernRight = U;
lastChange = "2023-02-02 15:38:50 +0000";
layers = (
{
background = {
shapes = (
{
closed = 1;
nodes = (
(578,-16,o),
(721,107,o),
(721,285,cs),
(721,688,l),
(496,688,l),
(496,285,ls),
(496,210,o),
(456,165,o),
(381,165,cs),
(310,165,o),
(263,205,o),
(263,295,cs),
(263,688,l),
(41,688,l),
(41,285,ls),
(41,97,o),
(176,-16,o),
(377,-16,cs)
);
}
);
};
layerId = UUID0;
shapes = (
{
closed = 1;
nodes = (
(462,-238,o),
(494,-233,o),
(525,-220,c),
(525,-162,l),
(507,-168,o),
(490,-171,o),
(478,-171,cs),
(446,-171,o),
(430,-157,o),
(430,-130,cs),
(430,-92,o),
(456,-33,o),
(575,33,cs),
(655,77,o),
(721,166,o),
(721,285,cs),
(721,688,l),
(496,688,l),
(496,285,ls),
(496,210,o),
(456,165,o),
(381,165,cs),
(310,165,o),
(263,205,o),
(263,295,cs),
(263,688,l),
(41,688,l),
(41,285,ls),
(41,97,o),
(176,-16,o),
(381,-16,cs),
(399,-16,l),
(332,-56,o),
(302,-102,o),
(302,-148,cs),
(302,-202,o),
(347,-238,o),
(433,-238,cs)
);
}
);
width = 762;
}
);
unicode = 370;
},
{
color = 3;
glyphname = V;
kernLeft = V;
kernRight = V;
lastChange = "2023-02-02 12:03:26 +0000";
layers = (
{
anchors = (
{
name = bottom;
pos = (331,0);
},
{
name = top;
pos = (331,688);
}
);
background = {
anchors = (
{
name = bottom;
pos = (331,0);
},
{
name = top;
pos = (331,688);
}
);
shapes = (
{
closed = 1;
nodes = (
(458,0,l),
(673,688,l),
(437,688,l),
(331,259,l),
(225,688,l),
(-1,688,l),
(203,0,l)
);
}
);
};
layerId = UUID0;
shapes = (
{
closed = 1;
nodes = (
(458,0,l),
(673,688,l),
(447,688,l),
(341,259,l),
(235,688,l),
(-1,688,l),
(203,0,l)
);
}
);
width = 667;
}
);
unicode = 86;
},
{
color = 3;
glyphname = W;
kernLeft = V;
kernRight = V;
lastChange = "2023-02-01 10:33:45 +0000";
layers = (
{
anchors = (
{
name = bottom;
pos = (497,0);
},
{
name = top;
pos = (497,688);
}
);
background = {
anchors = (
{
name = bottom;
pos = (497,0);
},
{
name = top;
pos = (497,688);
}
);
shapes = (
{
closed = 1;
nodes = (
(412,0,l),
(497,370,l),
(582,0,l),
(815,0,l),
(971,688,l),
(746,688,l),
(681,249,l),
(613,571,l),
(380,571,l),
(313,249,l),
(248,688,l),
(23,688,l),
(179,0,l)
);
}
);
};
layerId = UUID0;
shapes = (
{
closed = 1;
nodes = (
(412,0,l),
(497,377,l),
(582,0,l),
(815,0,l),
(971,688,l),
(746,688,l),
(681,259,l),
(613,571,l),
(380,571,l),
(313,259,l),
(248,688,l),
(23,688,l),
(179,0,l)
);
}
);
width = 994;
}
);
unicode = 87;
},
{
color = 3;
glyphname = X;
lastChange = "2023-02-01 10:33:45 +0000";
layers = (
{
anchors = (
{
name = bottom;
pos = (317,0);
},
{
name = top;
pos = (317,688);
}
);
background = {
anchors = (
{
name = bottom;
pos = (317,0);
},
{
name = top;
pos = (317,688);
}
);
shapes = (
{
closed = 1;
nodes = (
(227,0,l),
(314,171,l),
(401,0,l),
(632,0,l),
(440,342,l),
(626,688,l),
(395,688,l),
(314,514,l),
(233,688,l),
(6,688,l),
(191,342,l),
(0,0,l)
);
}
);
};
layerId = UUID0;
shapes = (
{
closed = 1;
nodes = (
(227,0,l),
(314,181,l),
(401,0,l),
(632,0,l),
(440,342,l),
(626,688,l),
(395,688,l),
(314,504,l),
(233,688,l),
(6,688,l),
(191,342,l),
(0,0,l)
);
}
);
width = 633;
}
);
unicode = 88;
},
{
color = 3;
glyphname = Y;
kernLeft = Y;
kernRight = Y;
lastChange = "2023-02-02 13:23:59 +0000";
layers = (
{
anchors = (
{
name = bottom;
pos = (296,0);
},
{
name = top;
pos = (296,688);
},
{
name = topleft;
pos = (10,688);
}
);
background = {
anchors = (
{
name = bottom;
pos = (296,0);
},
{
name = top;
pos = (296,688);
},
{
name = topleft;
pos = (10,688);
}
);
shapes = (
{
closed = 1;
nodes = (
(400,0,l),
(400,191,l),
(608,688,l),
(388,688,l),
(293,379,l),
(196,688,l),
(-13,688,l),
(185,191,l),
(185,0,l)
);
}
);
};
layerId = UUID0;
shapes = (
{
closed = 1;
nodes = (
(400,0,l),
(400,191,l),
(608,688,l),
(394,688,l),
(299,384,l),
(202,688,l),
(-13,688,l),
(185,191,l),
(185,0,l)
);
}
);
width = 592;
}
);
unicode = 89;
},
{
color = 3;
glyphname = Z;
kernLeft = Z;
kernRight = Z;
lastChange = "2023-02-01 10:33:45 +0000";
layers = (
{
anchors = (
{
name = bottom;
pos = (263,0);
},
{
name = top;
pos = (262,688);
}
);
background = {
anchors = (
{
name = bottom;
pos = (263,0);
},
{
name = top;
pos = (262,688);
}
);
shapes = (
{
closed = 1;
nodes = (
(497,0,l),
(497,146,l),
(257,146,l),
(487,542,l),
(487,688,l),
(37,688,l),
(37,542,l),
(263,542,l),
(28,145,l),
(28,0,l)
);
}
);
};
layerId = UUID0;
shapes = (
{
closed = 1;
nodes = (
(497,0,l),
(497,158,l),
(162,158,l),
(203,64,l),
(492,542,l),
(492,688,l),
(37,688,l),
(37,530,l),
(363,530,l),
(321,624,l),
(28,145,l),
(28,0,l)
);
}
);
width = 510;
}
);
unicode = 90;
},
{
color = 4;
glyphname = Iacute_J.loclNLD;
kernLeft = U;
kernRight = U;
lastChange = "2023-02-01 18:03:02 +0000";
layers = (
{
background = {
shapes = (
{
closed = 1;
nodes = (
(567,-16,o),
(681,141,o),
(681,317,cs),
(681,688,l),
(455,688,l),
(455,465,l),
(441,406,o),
(411,375,o),
(357,375,cs),
(303,375,o),
(267,414,o),
(267,485,cs),
(267,688,l),
(41,688,l),
(41,485,ls),
(41,321,o),
(154,224,o),
(291,224,cs),
(385,224,o),
(441,259,o),
(469,333,c),
(469,320,ls),
(469,175,o),
(423,151,o),
(308,151,cs),
(255,151,o),
(210,170,o),
(161,189,c),
(115,34,l),
(172,1,o),
(248,-16,o),
(336,-16,cs)
);
},
{
closed = 1;
nodes = (
(435,896,l),
(334,1075,l),
(41,870,l),
(102,763,l)
);
},
{
closed = 1;
nodes = (
(849,896,l),
(748,1075,l),
(455,870,l),
(516,763,l)
);
}
);
};
layerId = UUID0;
shapes = (
{
closed = 1;
nodes = (
(567,-16,o),
(681,141,o),
(681,317,cs),
(681,688,l),
(455,688,l),
(455,465,l),
(441,406,o),
(411,375,o),
(357,375,cs),
(303,375,o),
(267,414,o),
(267,485,cs),
(267,688,l),
(41,688,l),
(41,485,ls),
(41,321,o),
(154,224,o),
(291,224,cs),
(385,224,o),
(441,259,o),
(469,333,c),
(469,320,ls),
(469,175,o),
(423,151,o),
(308,151,cs),
(255,151,o),
(202,171,o),
(161,189,c),
(115,34,l),
(172,1,o),
(248,-16,o),
(336,-16,cs)
);
},
{
closed = 1;
nodes = (
(435,896,l),
(334,1075,l),
(41,870,l),
(102,763,l)
);
},
{
closed = 1;
nodes = (
(849,896,l),
(748,1075,l),
(455,870,l),
(516,763,l)
);
}
);
width = 722;
}
);
},
{
color = 3;
glyphname = I_J.loclNLD;
kernLeft = U;
kernRight = U;
lastChange = "2023-02-01 10:33:45 +0000";
layers = (
{
background = {
shapes = (
{
closed = 1;
nodes = (
(567,-16,o),
(681,141,o),
(681,317,cs),
(681,688,l),
(455,688,l),
(455,465,l),
(441,406,o),
(411,375,o),
(357,375,cs),
(303,375,o),
(267,414,o),
(267,485,cs),
(267,688,l),
(41,688,l),
(41,485,ls),
(41,321,o),
(154,224,o),
(291,224,cs),
(385,224,o),
(441,259,o),
(469,333,c),
(469,320,ls),
(469,175,o),
(423,151,o),
(308,151,cs),
(255,151,o),
(210,170,o),
(161,189,c),
(115,34,l),
(172,1,o),
(248,-16,o),
(336,-16,cs)
);
}
);
};
layerId = UUID0;
shapes = (
{
closed = 1;
nodes = (
(551,-16,o),
(681,106,o),
(681,307,cs),
(681,688,l),
(455,688,l),
(455,528,ls),
(455,425,o),
(422,375,o),
(353,375,cs),
(298,375,o),
(267,413,o),
(267,481,cs),
(267,688,l),
(41,688,l),
(41,475,ls),
(41,321,o),
(136,224,o),
(287,224,cs),
(378,224,o),
(446,265,o),
(469,333,c),
(469,320,ls),
(469,201,o),
(428,151,o),
(328,151,cs),
(269,151,o),
(213,164,o),
(167,189,c),
(113,38,l),
(168,1,o),
(241,-16,o),
(339,-16,cs)
);
}
);
width = 722;
}
);
},
{
color = 3;
glyphname = a;
kernLeft = c;
kernRight = a;
lastChange = "2023-02-01 10:33:45 +0000";
layers = (
{
anchors = (
{
name = bottom;
pos = (348,0);
},
{
name = ogonek;
pos = (645,0);
},
{
name = top;
pos = (348,501);
}
);
background = {
anchors = (
{
name = bottom;
pos = (348,0);
},
{
name = ogonek;
pos = (645,0);
},
{
name = top;
pos = (348,501);
}
);
shapes = (
{
closed = 1;
nodes = (
(351,-8,o),
(403,28,o),
(435,93,c),
(435,0,l),
(645,0,l),
(645,508,l),
(435,508,l),
(435,392,l),
(403,474,o),
(336,508,o),
(271,508,cs),
(142,508,o),
(25,402,o),
(25,253,cs),
(25,104,o),
(140,-8,o),
(271,-8,cs)
);
},
{
closed = 1;
nodes = (
(283,150,o),
(235,193,o),
(235,250,cs),
(235,304,o),
(279,350,o),
(336,350,cs),
(387,350,o),
(432,307,o),
(435,254,c),
(435,246,l),
(432,195,o),
(391,150,o),
(336,150,cs)
);
}
);
};
layerId = UUID0;
shapes = (
{
closed = 1;
nodes = (
(351,-8,o),
(403,28,o),
(435,93,c),
(435,0,l),
(645,0,l),
(645,501,l),
(437,501,l),
(437,392,l),
(403,474,o),
(336,508,o),
(271,508,cs),
(132,508,o),
(25,404,o),
(25,253,cs),
(25,101,o),
(132,-8,o),
(271,-8,cs)
);
},
{
closed = 1;
nodes = (
(279,150,o),
(235,194,o),
(235,250,cs),
(235,306,o),
(279,350,o),
(336,350,cs),
(391,350,o),
(435,309,o),
(435,252,cs),
(435,195,o),
(391,150,o),
(336,150,cs)
);
}
);
width = 695;
}
);
unicode = 97;
},
{
color = 3;
glyphname = ae;
kernLeft = c;
kernRight = e;
lastChange = "2023-02-01 17:38:45 +0000";
layers = (
{
anchors = (
{
name = bottom;
pos = (533,0);
},
{
name = top;
pos = (533,501);
}
);
background = {
shapes = (
{
closed = 1;
nodes = (
(351,-8,o),
(403,28,o),
(435,93,c),
(435,0,l),
(615,0,l),
(615,501,l),
(437,501,l),
(437,392,l),
(403,474,o),
(336,508,o),
(271,508,cs),
(132,508,o),
(25,404,o),
(25,253,cs),
(25,101,o),
(132,-8,o),
(271,-8,cs)
);
},
{
closed = 1;
nodes = (
(279,150,o),
(235,194,o),
(235,250,cs),
(235,306,o),
(279,350,o),
(336,350,cs),
(391,350,o),
(435,309,o),
(435,252,cs),
(435,195,o),
(391,150,o),
(336,150,cs)
);
},
{
closed = 1;
nodes = (
(721,279,cs),
(720,339,o),
(754,387,o),
(811,387,cs),
(847,387,o),
(872,366,o),
(878,324,c),
(703,287,l),
(711,196,l),
(1035,237,l),
(1035,410,o),
(954,508,o),
(804,508,cs),
(661,508,o),
(545,406,o),
(545,250,cs),
(545,98,o),
(644,-8,o),
(833,-8,cs),
(907,-8,o),
(963,5,o),
(1013,31,c),
(989,160,l),
(943,138,o),
(900,132,o),
(861,132,cs),
(773,132,o),
(723,179,o)
);
}
);
};
layerId = UUID0;
shapes = (
{
closed = 1;
nodes = (
(351,-8,o),
(403,28,o),
(435,93,c),
(435,0,l),
(615,0,l),
(615,67,l),
(663,20,o),
(736,-8,o),
(833,-8,cs),
(907,-8,o),
(963,5,o),
(1013,31,c),
(989,160,l),
(943,138,o),
(900,132,o),
(861,132,cs),
(801,132,o),
(759,154,o),
(737,199,c),
(1035,237,l),
(1035,410,o),
(954,508,o),
(804,508,cs),
(729,508,o),
(662,480,o),
(615,432,c),
(615,501,l),
(437,501,l),
(437,392,l),
(403,474,o),
(336,508,o),
(271,508,cs),
(132,508,o),
(25,404,o),
(25,253,cs),
(25,101,o),
(132,-8,o),
(271,-8,cs)
);
},
{
closed = 1;
nodes = (
(235,306,o),
(279,350,o),
(336,350,cs),
(391,350,o),
(435,309,o),
(435,252,cs),
(435,195,o),
(391,150,o),
(336,150,cs),
(279,150,o),
(235,194,o),
(235,250,cs)
);
},
{
closed = 1;
nodes = (
(725,345,o),
(758,387,o),
(811,387,cs),
(847,387,o),
(872,366,o),
(878,324,c),
(721,291,l)
);
}
);
width = 1055;
}
);
metricLeft = o;
metricRight = e;
unicode = 230;
},
{
color = 3;
glyphname = b;
kernLeft = b;
kernRight = o;
lastChange = "2023-02-01 10:33:45 +0000";
layers = (
{
anchors = (
{
name = bottom;
pos = (347,0);
},
{
name = top;
pos = (347,501);
}
);
background = {
anchors = (
{
name = bottom;
pos = (1147,0);
},
{
name = top;
pos = (1147,501);
}
);
shapes = (
{
closed = 1;
nodes = (
(1354,-8,o),
(1469,102,o),
(1469,250,cs),
(1469,398,o),
(1360,508,o),
(1224,508,cs),
(1150,508,o),
(1096,479,o),
(1062,407,c),
(1062,690,l),
(850,659,l),
(850,0,l),
(1062,0,l),
(1062,93,l),
(1094,26,o),
(1149,-8,o),
(1225,-8,cs)
);
},
{
closed = 1;
nodes = (
(1108,150,o),
(1062,193,o),
(1062,250,cs),
(1062,254,ls),
(1062,306,o),
(1106,350,o),
(1161,350,cs),
(1214,350,o),
(1260,307,o),
(1260,250,cs),
(1260,198,o),
(1217,150,o),
(1161,150,cs)
);
},
{
closed = 1;
nodes = (
(563,-8,o),
(670,101,o),
(670,253,cs),
(670,404,o),
(563,508,o),
(424,508,cs),
(359,508,o),
(292,474,o),
(260,392,c),
(260,501,l),
(50,501,l),
(50,0,l),
(260,0,l),
(260,93,l),
(292,28,o),
(344,-8,o),
(424,-8,cs)
);
},
{
closed = 1;
nodes = (
(304,150,o),
(260,195,o),
(260,252,cs),
(260,309,o),
(304,350,o),
(359,350,cs),
(416,350,o),
(460,306,o),
(460,250,cs),
(460,194,o),
(416,150,o),
(359,150,cs)
);
}
);
};
layerId = UUID0;
shapes = (
{
closed = 1;
nodes = (
(563,-8,o),
(670,101,o),
(670,253,cs),
(670,404,o),
(563,508,o),
(424,508,cs),
(359,508,o),
(294,474,o),
(262,398,c),
(262,690,l),
(50,659,l),
(50,0,l),
(260,0,l),
(260,93,l),
(292,28,o),
(344,-8,o),
(424,-8,cs)
);
},
{
closed = 1;
nodes = (
(304,150,o),
(260,195,o),
(260,252,cs),
(260,309,o),
(304,350,o),
(359,350,cs),
(416,350,o),
(460,306,o),
(460,250,cs),
(460,194,o),
(416,150,o),
(359,150,cs)
);
}
);
width = 695;
}
);
unicode = 98;
},
{
color = 3;
glyphname = c;
kernLeft = c;
kernRight = c;
lastChange = "2023-02-01 10:33:45 +0000";
layers = (
{
anchors = (
{
name = bottom;
pos = (266,0);
},
{
name = top;
pos = (266,501);
}
);
background = {
anchors = (
{
name = bottom;
pos = (266,0);
},
{
name = top;
pos = (266,501);
}
);
shapes = (
{
closed = 1;
nodes = (
(359,-8,o),
(402,1,o),
(448,24,c),
(429,164,l),
(394,153,o),
(363,147,o),
(335,147,cs),
(273,147,o),
(233,188,o),
(233,250,cs),
(233,312,o),
(273,352,o),
(337,352,cs),
(365,352,o),
(394,346,o),
(431,335,c),
(450,468,l),
(412,495,o),
(363,508,o),
(297,508,cs),
(143,508,o),
(25,396,o),
(25,250,cs),
(25,98,o),
(136,-8,o),
(297,-8,cs)
);
}
);
};
layerId = UUID0;
shapes = (
{
closed = 1;
nodes = (
(359,-8,o),
(404,2,o),
(448,24,c),
(429,164,l),
(394,153,o),
(363,147,o),
(335,147,cs),
(273,147,o),
(233,188,o),
(233,250,cs),
(233,312,o),
(273,352,o),
(339,352,cs),
(365,352,o),
(394,346,o),
(428,332,c),
(450,468,l),
(412,495,o),
(363,508,o),
(297,508,cs),
(134,508,o),
(25,396,o),
(25,248,cs),
(25,98,o),
(129,-8,o),
(297,-8,cs)
);
}
);
width = 475;
}
);
unicode = 99;
},
{
color = 4;
glyphname = d;
kernLeft = c;
lastChange = "2023-02-01 17:46:40 +0000";
layers = (
{
anchors = (
{
name = bottom;
pos = (348,0);
},
{
name = center;
pos = (348,251);
},
{
name = stroke;
pos = (530,583);
},
{
name = top;
pos = (348,501);
},
{
name = topright;
pos = (704,688);
}
);
background = {
anchors = (
{
name = bottom;
pos = (348,0);
},
{
name = center;
pos = (348,251);
},
{
name = top;
pos = (348,501);
},
{
name = topright;
pos = (704,688);
}
);
shapes = (
{
closed = 1;
nodes = (
(349,-8,o),
(402,26,o),
(433,93,c),
(433,0,l),
(644,0,l),
(644,690,l),
(433,659,l),
(433,407,l),
(399,479,o),
(345,508,o),
(269,508,cs),
(139,508,o),
(25,396,o),
(25,250,cs),
(25,115,o),
(129,-8,o),
(268,-8,cs)
);
},
{
closed = 1;
nodes = (
(281,150,o),
(235,193,o),
(235,250,cs),
(235,303,o),
(277,350,o),
(334,350,cs),
(386,350,o),
(433,307,o),
(433,254,cs),
(433,250,ls),
(433,198,o),
(391,150,o),
(334,150,cs)
);
}
);
};
layerId = UUID0;
shapes = (
{
closed = 1;
nodes = (
(351,-8,o),
(403,28,o),
(435,93,c),
(435,0,l),
(644,0,l),
(644,690,l),
(433,659,l),
(433,396,l),
(403,474,o),
(336,508,o),
(271,508,cs),
(132,508,o),
(25,404,o),
(25,253,cs),
(25,101,o),
(132,-8,o),
(271,-8,cs)
);
},
{
closed = 1;
nodes = (
(279,150,o),
(235,194,o),
(235,250,cs),
(235,306,o),
(279,350,o),
(336,350,cs),
(391,350,o),
(435,309,o),
(435,252,cs),
(435,195,o),
(391,150,o),
(336,150,cs)
);
}
);
width = 694;
}
);
unicode = 100;
},
{
color = 4;
glyphname = eth;
lastChange = "2023-02-01 17:41:01 +0000";
layers = (
{
background = {
shapes = (
{
closed = 1;
nodes = (
(499,-16,o),
(625,128,o),
(625,337,cs),
(625,560,o),
(512,703,o),
(305,703,cs),
(231,703,o),
(152,689,o),
(97,662,c),
(116,511,l),
(158,542,o),
(213,557,o),
(262,557,cs),
(360,557,o),
(404,480,o),
(404,344,c),
(372,406,o),
(323,430,o),
(263,430,cs),
(113,430,o),
(25,339,o),
(25,217,cs),
(25,76,o),
(130,-16,o),
(300,-16,cs)
);
},
{
closed = 1;
nodes = (
(261,137,o),
(234,167,o),
(234,208,cs),
(234,259,o),
(269,290,o),
(321,290,cs),
(349,290,o),
(374,285,o),
(403,268,c),
(403,185,o),
(372,137,o),
(312,137,cs)
);
},
{
closed = 1;
nodes = (
(640,590,l),
(615,657,l),
(254,512,l),
(279,445,l)
);
}
);
};
layerId = UUID0;
shapes = (
{
closed = 1;
nodes = (
(499,-16,o),
(625,128,o),
(625,337,cs),
(625,426,o),
(607,503,o),
(572,563,c),
(640,590,l),
(615,657,l),
(526,621,l),
(473,674,o),
(398,703,o),
(305,703,cs),
(231,703,o),
(152,689,o),
(97,662,c),
(116,511,l),
(158,542,o),
(213,557,o),
(262,557,cs),
(288,557,o),
(309,552,o),
(328,542,c),
(254,512,l),
(279,445,l),
(379,485,l),
(396,450,o),
(404,402,o),
(404,344,c),
(372,406,o),
(323,430,o),
(263,430,cs),
(113,430,o),
(25,339,o),
(25,217,cs),
(25,76,o),
(130,-16,o),
(300,-16,cs)
);
},
{
closed = 1;
nodes = (
(234,259,o),
(269,290,o),
(321,290,cs),
(349,290,o),
(374,285,o),
(403,268,c),
(403,185,o),
(372,137,o),
(312,137,cs),
(261,137,o),
(234,167,o),
(234,208,cs)
);
}
);
width = 655;
}
);
unicode = 240;
},
{
color = 4;
glyphname = dcroat;
kernLeft = c;
lastChange = "2023-02-01 17:46:48 +0000";
layers = (
{
background = {
shapes = (
{
closed = 1;
nodes = (
(351,-8,o),
(403,28,o),
(435,93,c),
(435,0,l),
(645,0,l),
(645,690,l),
(433,659,l),
(433,396,l),
(403,474,o),
(336,508,o),
(271,508,cs),
(132,508,o),
(25,404,o),
(25,253,cs),
(25,101,o),
(132,-8,o),
(271,-8,cs)
);
},
{
closed = 1;
nodes = (
(279,150,o),
(235,194,o),
(235,250,cs),
(235,306,o),
(279,350,o),
(336,350,cs),
(391,350,o),
(435,309,o),
(435,252,cs),
(435,195,o),
(391,150,o),
(336,150,cs)
);
},
{
closed = 1;
nodes = (
(695,625,l),
(363,625,l),
(363,540,l),
(695,540,l)
);
}
);
};
layerId = UUID0;
shapes = (
{
closed = 1;
nodes = (
(351,-8,o),
(403,28,o),
(435,93,c),
(435,0,l),
(644,0,l),
(644,540,l),
(694,540,l),
(694,625,l),
(644,625,l),
(644,690,l),
(433,659,l),
(433,625,l),
(363,625,l),
(363,540,l),
(433,540,l),
(433,396,l),
(403,474,o),
(336,508,o),
(271,508,cs),
(132,508,o),
(25,404,o),
(25,253,cs),
(25,101,o),
(132,-8,o),
(271,-8,cs)
);
},
{
closed = 1;
nodes = (
(235,306,o),
(279,350,o),
(336,350,cs),
(391,350,o),
(435,309,o),
(435,252,cs),
(435,195,o),
(391,150,o),
(336,150,cs),
(279,150,o),
(235,194,o),
(235,250,cs)
);
}
);
width = 694;
}
);
unicode = 273;
},
{
color = 4;
glyphname = e;
kernLeft = c;
kernRight = e;
lastChange = "2023-02-01 17:41:14 +0000";
layers = (
{
anchors = (
{
name = bottom;
pos = (288,0);
},
{
name = ogonek;
pos = (405,0);
},
{
name = top;
pos = (288,501);
}
);
background = {
shapes = (
{
closed = 1;
nodes = (
(221,279,cs),
(220,339,o),
(254,387,o),
(311,387,cs),
(347,387,o),
(372,366,o),
(378,324,c),
(203,287,l),
(211,196,l),
(535,237,l),
(535,410,o),
(452,508,o),
(302,508,cs),
(149,508,o),
(25,406,o),
(25,250,cs),
(25,98,o),
(131,-8,o),
(333,-8,cs),
(407,-8,o),
(463,5,o),
(513,31,c),
(489,160,l),
(443,138,o),
(400,132,o),
(361,132,cs),
(273,132,o),
(223,179,o)
);
}
);
};
layerId = UUID0;
shapes = (
{
closed = 1;
nodes = (
(301,132,o),
(259,154,o),
(237,199,c),
(535,237,l),
(535,410,o),
(452,508,o),
(302,508,cs),
(149,508,o),
(25,406,o),
(25,250,cs),
(25,98,o),
(131,-8,o),
(333,-8,cs),
(407,-8,o),
(463,5,o),
(513,31,c),
(489,160,l),
(443,138,o),
(400,132,o),
(361,132,cs)
);
},
{
closed = 1;
nodes = (
(225,345,o),
(258,387,o),
(311,387,cs),
(347,387,o),
(372,366,o),
(378,324,c),
(221,291,l)
);
}
);
width = 555;
}
);
unicode = 101;
},
{
color = 4;
glyphname = eogonek;
kernLeft = c;
kernRight = e;
lastChange = "2023-02-02 15:38:48 +0000";
layers = (
{
anchors = (
{
name = top;
pos = (288,501);
}
);
background = {
shapes = (
{
closed = 1;
nodes = (
(451,6,o),
(513,31,c),
(489,160,l),
(443,138,o),
(400,132,o),
(361,132,cs),
(273,132,o),
(223,179,o),
(221,279,cs),
(220,339,o),
(254,387,o),
(311,387,cs),
(347,387,o),
(372,366,o),
(378,324,c),
(203,287,l),
(211,196,l),
(535,237,l),
(535,410,o),
(452,508,o),
(302,508,cs),
(149,508,o),
(25,406,o),
(25,250,cs),
(25,106,o),
(120,3,o),
(299,-7,c),
(222,-51,o),
(178,-104,o),
(178,-158,cs),
(178,-212,o),
(223,-248,o),
(309,-248,cs),
(338,-248,o),
(371,-243,o),
(402,-230,c),
(401,-172,l),
(383,-178,o),
(366,-181,o),
(354,-181,cs),
(322,-181,o),
(306,-167,o),
(306,-140,cs),
(306,-68,o)
);
}
);
};
layerId = UUID0;
shapes = (
{
closed = 1;
nodes = (
(306,-68,o),
(451,6,o),
(513,31,c),
(489,160,l),
(443,138,o),
(400,132,o),
(361,132,cs),
(301,132,o),
(259,154,o),
(237,199,c),
(535,237,l),
(535,410,o),
(452,508,o),
(302,508,cs),
(149,508,o),
(25,406,o),
(25,250,cs),
(25,106,o),
(120,3,o),
(299,-7,c),
(222,-51,o),
(178,-104,o),
(178,-158,cs),
(178,-212,o),
(223,-248,o),
(309,-248,cs),
(338,-248,o),
(370,-243,o),
(401,-230,c),
(401,-172,l),
(383,-178,o),
(366,-181,o),
(354,-181,cs),
(322,-181,o),
(306,-167,o),
(306,-140,cs)
);
},
{
closed = 1;
nodes = (
(225,345,o),
(258,387,o),
(311,387,cs),
(347,387,o),
(372,366,o),
(378,324,c),
(221,291,l)
);
}
);
width = 555;
}
);
metricLeft = o;
metricWidth = e;
unicode = 281;
},
{
color = 3;
glyphname = schwa;
kernLeft = c;
kernRight = o;
lastChange = "2023-02-01 17:51:16 +0000";
layers = (
{
background = {
shapes = (
{
closed = 1;
nodes = (
(408,-8,o),
(532,94,o),
(532,250,cs),
(532,402,o),
(426,508,o),
(244,508,cs),
(160,508,o),
(104,495,o),
(44,469,c),
(68,340,l),
(114,357,o),
(157,368,o),
(211,368,cs),
(289,368,o),
(349,331,o),
(351,231,cs),
(352,161,o),
(322,113,o),
(266,113,cs),
(225,113,o),
(200,134,o),
(194,176,c),
(369,213,l),
(361,304,l),
(22,263,l),
(3,100,o),
(105,-8,o),
(275,-8,cs)
);
}
);
};
layerId = UUID0;
shapes = (
{
closed = 1;
nodes = (
(408,-8,o),
(532,94,o),
(532,250,cs),
(532,402,o),
(426,508,o),
(244,508,cs),
(160,508,o),
(104,495,o),
(44,469,c),
(68,340,l),
(114,357,o),
(157,368,o),
(211,368,cs),
(267,368,o),
(314,349,o),
(336,301,c),
(22,263,l),
(3,100,o),
(105,-8,o),
(275,-8,cs)
);
},
{
closed = 1;
nodes = (
(350,209,l),
(345,151,o),
(316,113,o),
(266,113,cs),
(225,113,o),
(200,134,o),
(194,176,c)
);
}
);
width = 557;
}
);
unicode = 601;
},
{
color = 4;
glyphname = f;
kernLeft = f;
lastChange = "2023-02-02 13:24:45 +0000";
layers = (
{
anchors = (
{
name = bottom;
pos = (169,0);
},
{
name = top;
pos = (237,688);
}
);
background = {
shapes = (
{
closed = 1;
nodes = (
(874,0,l),
(874,377,l),
(991,377,l),
(991,501,l),
(860,501,l),
(849,523,o),
(843,543,o),
(843,561,cs),
(843,598,o),
(868,617,o),
(905,617,cs),
(931,617,o),
(964,612,o),
(995,594,c),
(1009,729,l),
(975,755,o),
(927,768,o),
(876,768,cs),
(750,768,o),
(663,693,o),
(663,543,cs),
(663,501,l),
(600,501,l),
(600,377,l),
(663,377,l),
(663,0,l)
);
},
{
closed = 1;
nodes = (
(274,0,l),
(274,377,l),
(391,377,l),
(391,501,l),
(253,501,l),
(246,512,o),
(243,522,o),
(243,531,cs),
(243,555,o),
(269,568,o),
(305,568,cs),
(331,568,o),
(364,567,o),
(394,558,c),
(409,689,l),
(375,701,o),
(327,707,o),
(276,707,cs),
(150,707,o),
(63,649,o),
(63,530,cs),
(63,501,l),
(0,501,l),
(0,377,l),
(63,377,l),
(63,0,l)
);
}
);
};
layerId = UUID0;
shapes = (
{
closed = 1;
nodes = (
(274,0,l),
(274,377,l),
(391,377,l),
(391,501,l),
(250,501,l),
(245,510,o),
(243,518,o),
(243,527,cs),
(243,554,o),
(267,568,o),
(310,568,cs),
(336,568,o),
(364,565,o),
(394,558,c),
(408,685,l),
(375,699,o),
(327,707,o),
(276,707,cs),
(150,707,o),
(63,639,o),
(63,530,cs),
(63,501,l),
(0,501,l),
(0,377,l),
(63,377,l),
(63,0,l)
);
}
);
width = 390;
}
);
unicode = 102;
},
{
color = 4;
glyphname = g;
kernLeft = c;
kernRight = g;
lastChange = "2023-02-01 17:41:49 +0000";
layers = (
{
anchors = (
{
name = bottom;
pos = (353,0);
},
{
name = top;
pos = (353,501);
}
);
background = {
shapes = (
{
closed = 1;
nodes = (
(541,-195,o),
(651,-96,o),
(651,117,cs),
(651,501,l),
(441,501,l),
(441,396,l),
(409,475,o),
(342,508,o),
(275,508,cs),
(132,508,o),
(25,408,o),
(25,263,cs),
(25,117,o),
(132,12,o),
(275,12,cs),
(358,12,o),
(409,45,o),
(447,119,c),
(447,72,ls),
(447,-5,o),
(410,-42,o),
(321,-42,cs),
(294,-42,o),
(265,-38,o),
(241,-33,c),
(225,-178,l),
(250,-188,o),
(297,-195,o),
(348,-195,cs)
);
},
{
closed = 1;
nodes = (
(279,170,o),
(235,210,o),
(235,260,cs),
(235,310,o),
(279,350,o),
(340,350,cs),
(397,350,o),
(441,313,o),
(441,262,cs),
(441,211,o),
(397,170,o),
(340,170,cs)
);
}
);
};
layerId = UUID0;
shapes = (
{
closed = 1;
nodes = (
(541,-195,o),
(651,-96,o),
(651,117,cs),
(651,501,l),
(441,501,l),
(441,396,l),
(409,475,o),
(342,508,o),
(275,508,cs),
(132,508,o),
(25,408,o),
(25,263,cs),
(25,117,o),
(132,12,o),
(275,12,cs),
(358,12,o),
(409,45,o),
(447,119,c),
(447,72,ls),
(447,-5,o),
(410,-42,o),
(321,-42,cs),
(294,-42,o),
(265,-38,o),
(241,-33,c),
(225,-178,l),
(250,-188,o),
(297,-195,o),
(348,-195,cs)
);
},
{
closed = 1;
nodes = (
(279,170,o),
(235,210,o),
(235,260,cs),
(235,310,o),
(279,350,o),
(340,350,cs),
(397,350,o),
(441,313,o),
(441,262,cs),
(441,211,o),
(397,170,o),
(340,170,cs)
);
}
);
width = 701;
}
);
unicode = 103;
},
{
color = 3;
glyphname = h;
kernLeft = b;
kernRight = h;
lastChange = "2023-02-01 10:33:46 +0000";
layers = (
{
anchors = (
{
name = bottom;
pos = (343,0);
},
{
name = center;
pos = (343,251);
},
{
name = stroke;
pos = (165,583);
},
{
name = top;
pos = (346,688);
}
);
background = {
anchors = (
{
name = bottom;
pos = (1043,0);
},
{
name = center;
pos = (1043,251);
},
{
name = top;
pos = (1046,688);
}
);
shapes = (
{
closed = 1;
nodes = (
(961,0,l),
(961,234,ls),
(961,312,o),
(1013,360,o),
(1060,360,cs),
(1103,360,o),
(1130,329,o),
(1130,271,cs),
(1130,0,l),
(1340,0,l),
(1340,250,ls),
(1340,411,o),
(1263,508,o),
(1135,508,cs),
(1051,508,o),
(990,468,o),
(961,398,c),
(961,690,l),
(750,659,l),
(750,0,l)
);
},
{
closed = 1;
nodes = (
(261,0,l),
(261,234,ls),
(261,304,o),
(300,350,o),
(358,350,cs),
(405,350,o),
(430,321,o),
(430,261,cs),
(430,0,l),
(641,0,l),
(641,250,ls),
(641,414,o),
(566,508,o),
(435,508,cs),
(351,508,o),
(289,467,o),
(258,392,c),
(258,501,l),
(50,501,l),
(50,0,l)
);
}
);
};
layerId = UUID0;
shapes = (
{
closed = 1;
nodes = (
(261,0,l),
(261,234,ls),
(261,304,o),
(300,350,o),
(358,350,cs),
(405,350,o),
(430,321,o),
(430,261,cs),
(430,0,l),
(641,0,l),
(641,250,ls),
(641,414,o),
(566,508,o),
(435,508,cs),
(351,508,o),
(289,467,o),
(261,398,c),
(261,690,l),
(50,659,l),
(50,0,l)
);
}
);
width = 686;
}
);
unicode = 104;
},
{
color = 4;
glyphname = hbar;
kernLeft = b;
kernRight = h;
lastChange = "2023-02-01 17:42:44 +0000";
layers = (
{
background = {
shapes = (
{
closed = 1;
nodes = (
(261,0,l),
(261,234,ls),
(261,304,o),
(300,350,o),
(358,350,cs),
(405,350,o),
(430,321,o),
(430,261,cs),
(430,0,l),
(641,0,l),
(641,250,ls),
(641,414,o),
(566,508,o),
(435,508,cs),
(351,508,o),
(289,467,o),
(261,398,c),
(261,690,l),
(50,659,l),
(50,0,l)
);
},
{
closed = 1;
nodes = (
(332,625,l),
(0,625,l),
(0,540,l),
(332,540,l)
);
}
);
};
layerId = UUID0;
shapes = (
{
closed = 1;
nodes = (
(261,0,l),
(261,234,ls),
(261,304,o),
(300,350,o),
(358,350,cs),
(405,350,o),
(430,321,o),
(430,261,cs),
(430,0,l),
(641,0,l),
(641,250,ls),
(641,414,o),
(566,508,o),
(435,508,cs),
(351,508,o),
(289,467,o),
(261,398,c),
(261,540,l),
(332,540,l),
(332,625,l),
(261,625,l),
(261,690,l),
(50,659,l),
(50,625,l),
(0,625,l),
(0,540,l),
(50,540,l),
(50,0,l)
);
}
);
width = 686;
}
);
unicode = 295;
},
{
color = 3;
glyphname = idotless;
kernLeft = m;
kernRight = i;
lastChange = "2023-02-01 17:47:34 +0000";
layers = (
{
anchors = (
{
name = bottom;
pos = (182,0);
},
{
name = ogonek;
pos = (291,0);
},
{
name = top;
pos = (153,501);
}
);
background = {
anchors = (
{
name = bottom;
pos = (182,0);
},
{
name = ogonek;
pos = (291,0);
},
{
name = top;
pos = (153,501);
}
);
shapes = (
{
closed = 1;
nodes = (
(273,-8,o),
(326,4,o),
(356,27,c),
(345,166,l),
(331,158,o),
(317,154,o),
(304,154,cs),
(278,154,o),
(259,171,o),
(259,202,cs),
(259,501,l),
(47,501,l),
(47,193,ls),
(47,71,o),
(111,-8,o),
(225,-8,cs)
);
}
);
};
layerId = UUID0;
shapes = (
{
closed = 1;
nodes = (
(273,-8,o),
(326,4,o),
(356,27,c),
(345,166,l),
(331,158,o),
(317,154,o),
(304,154,cs),
(278,154,o),
(258,171,o),
(258,202,cs),
(258,501,l),
(47,501,l),
(47,173,ls),
(47,71,o),
(101,-8,o),
(235,-8,cs)
);
}
);
width = 357;
}
);
unicode = 305;
},
{
color = 4;
glyphname = iogonek;
kernLeft = i;
kernRight = i;
lastChange = "2023-02-02 15:38:46 +0000";
layers = (
{
background = {
shapes = (
{
closed = 1;
nodes = (
(273,-8,o),
(326,4,o),
(356,27,c),
(345,166,l),
(331,158,o),
(317,154,o),
(304,154,cs),
(278,154,o),
(259,171,o),
(259,202,cs),
(259,501,l),
(47,501,l),
(47,173,ls),
(47,71,o),
(101,-8,o),
(235,-8,cs)
);
}
);
};
layerId = UUID0;
shapes = (
{
closed = 1;
nodes = (
(224,-248,o),
(256,-243,o),
(287,-230,c),
(287,-172,l),
(269,-178,o),
(252,-181,o),
(240,-181,cs),
(208,-181,o),
(192,-167,o),
(192,-140,cs),
(192,-101,o),
(223,-46,o),
(356,27,c),
(345,166,l),
(331,158,o),
(317,154,o),
(304,154,cs),
(278,154,o),
(259,171,o),
(259,202,cs),
(259,501,l),
(47,501,l),
(47,173,ls),
(47,71,o),
(97,12,o),
(190,-5,c),
(109,-50,o),
(64,-104,o),
(64,-158,cs),
(64,-212,o),
(109,-248,o),
(195,-248,cs)
);
},
{
closed = 1;
nodes = (
(210,556,o),
(266,597,o),
(266,658,cs),
(266,712,o),
(214,759,o),
(153,759,cs),
(96,759,o),
(41,717,o),
(41,658,cs),
(41,601,o),
(91,556,o),
(153,556,cs)
);
}
);
width = 357;
}
);
unicode = 303;
},
{
color = 6;
glyphname = j;
kernLeft = j;
kernRight = j;
lastChange = "2023-02-02 12:21:27 +0000";
layers = (
{
background = {
shapes = (
{
closed = 1;
nodes = (
(179,-216,o),
(263,-123,o),
(263,29,cs),
(263,501,l),
(52,501,l),
(52,29,ls),
(52,-26,o),
(30,-54,o),
(-14,-54,cs),
(-30,-54,o),
(-53,-49,o),
(-83,-39,c),
(-129,-163,l),
(-77,-198,o),
(-20,-216,o),
(42,-216,cs)
);
},
{
closed = 1;
nodes = (
(214,565,o),
(267,607,o),
(267,667,cs),
(267,716,o),
(222,768,o),
(154,768,cs),
(97,768,o),
(42,725,o),
(42,667,cs),
(42,612,o),
(90,565,o),
(154,565,cs)
);
}
);
};
layerId = UUID0;
shapes = (
{
ref = jdotless;
},
{
pos = (-133,0);
ref = dotaccentcomb;
}
);
width = 322;
}
);
unicode = 106;
},
{
color = 3;
glyphname = jdotless;
kernLeft = j;
kernRight = j;
lastChange = "2023-02-01 10:33:46 +0000";
layers = (
{
anchors = (
{
name = bottom;
pos = (167,-169);
},
{
name = top;
pos = (167,501);
}
);
background = {
anchors = (
{
name = bottom;
pos = (167,0);
},
{
name = top;
pos = (167,501);
}
);
shapes = (
{
closed = 1;
nodes = (
(188,-216,o),
(272,-123,o),
(272,29,cs),
(272,501,l),
(61,501,l),
(61,29,ls),
(61,-26,o),
(39,-54,o),
(-5,-54,cs),
(-21,-54,o),
(-44,-49,o),
(-74,-39,c),
(-120,-163,l),
(-68,-198,o),
(-11,-216,o),
(51,-216,cs)
);
}
);
};
layerId = UUID0;
shapes = (
{
closed = 1;
nodes = (
(195,-195,o),
(272,-106,o),
(272,56,cs),
(272,501,l),
(61,501,l),
(61,38,ls),
(61,-15,o),
(41,-38,o),
(-5,-38,cs),
(-24,-38,o),
(-48,-34,o),
(-70,-26,c),
(-100,-169,l),
(-65,-184,o),
(-18,-195,o),
(37,-195,cs)
);
}
);
width = 322;
}
);
unicode = 567;
},
{
color = 3;
glyphname = k;
kernLeft = b;
kernRight = k;
lastChange = "2023-02-02 12:23:24 +0000";
layers = (
{
anchors = (
{
name = bottom;
pos = (319,0);
},
{
name = top;
pos = (157,688);
}
);
background = {
shapes = (
{
closed = 1;
nodes = (
(261,690,l),
(50,659,l),
(50,0,l),
(261,0,l)
);
},
{
closed = 1;
nodes = (
(290,208,l),
(323,66,o),
(397,-8,o),
(539,-8,cs),
(557,-8,o),
(576,-7,o),
(602,-2,c),
(617,159,l),
(600,155,o),
(584,153,o),
(574,153,cs),
(510,153,o),
(473,194,o),
(457,316,c)
);
},
{
closed = 1;
nodes = (
(432,256,l),
(604,399,l),
(496,538,l),
(250,338,l),
(250,137,l),
(335,211,l)
);
}
);
};
layerId = UUID0;
shapes = (
{
closed = 1;
nodes = (
(261,147,l),
(298,179,l),
(334,56,o),
(407,-8,o),
(539,-8,cs),
(557,-8,o),
(576,-7,o),
(602,-2,c),
(617,159,l),
(600,155,o),
(584,153,o),
(574,153,cs),
(516,153,o),
(481,186,o),
(463,281,c),
(604,399,l),
(496,538,l),
(261,347,l),
(261,690,l),
(50,659,l),
(50,0,l),
(261,0,l)
);
}
);
width = 626;
}
);
unicode = 107;
},
{
color = 4;
glyphname = kgreenlandic;
kernLeft = m;
kernRight = k;
lastChange = "2023-02-01 17:47:21 +0000";
layers = (
{
background = {
shapes = (
{
closed = 1;
nodes = (
(261,501,l),
(50,501,l),
(50,0,l),
(261,0,l)
);
},
{
closed = 1;
nodes = (
(290,208,l),
(323,66,o),
(397,-8,o),
(539,-8,cs),
(557,-8,o),
(576,-7,o),
(602,-2,c),
(617,159,l),
(600,155,o),
(584,153,o),
(574,153,cs),
(510,153,o),
(473,194,o),
(457,316,c)
);
},
{
closed = 1;
nodes = (
(432,256,l),
(604,399,l),
(496,538,l),
(250,338,l),
(250,137,l),
(335,211,l)
);
}
);
};
layerId = UUID0;
shapes = (
{
closed = 1;
nodes = (
(261,147,l),
(298,179,l),
(334,56,o),
(407,-8,o),
(539,-8,cs),
(557,-8,o),
(576,-7,o),
(602,-2,c),
(617,159,l),
(600,155,o),
(584,153,o),
(574,153,cs),
(516,153,o),
(481,186,o),
(463,281,c),
(604,399,l),
(496,538,l),
(261,347,l),
(261,501,l),
(50,501,l),
(50,0,l),
(261,0,l)
);
}
);
width = 626;
}
);
unicode = 312;
},
{
color = 3;
glyphname = l;
kernLeft = b;
kernRight = l;
lastChange = "2023-02-02 12:22:50 +0000";
layers = (
{
anchors = (
{
name = bottom;
pos = (211,0);
},
{
name = center;
pos = (400,391);
},
{
name = stroke;
pos = (180,412);
},
{
name = top;
pos = (153,688);
},
{
name = topright;
pos = (318,688);
}
);
background = {
anchors = (
{
name = bottom;
pos = (211,0);
},
{
name = center;
pos = (400,391);
},
{
name = top;
pos = (153,688);
},
{
name = topright;
pos = (318,688);
}
);
shapes = (
{
closed = 1;
nodes = (
(280,-8,o),
(330,3,o),
(375,26,c),
(368,166,l),
(352,158,o),
(337,154,o),
(319,154,cs),
(273,154,o),
(258,171,o),
(258,207,cs),
(258,690,l),
(47,659,l),
(47,192,ls),
(47,69,o),
(111,-8,o),
(225,-8,cs)
);
}
);
};
layerId = UUID0;
shapes = (
{
closed = 1;
nodes = (
(287,-8,o),
(343,4,o),
(375,27,c),
(360,166,l),
(344,158,o),
(328,154,o),
(312,154,cs),
(280,154,o),
(258,171,o),
(258,202,cs),
(258,710,l),
(47,679,l),
(47,173,ls),
(47,71,o),
(104,-8,o),
(247,-8,cs)
);
}
);
width = 375;
}
);
unicode = 108;
},
{
color = 6;
glyphname = lslash;
kernLeft = b;
kernRight = l;
lastChange = "2023-02-01 17:48:45 +0000";
layers = (
{
background = {
shapes = (
{
closed = 1;
nodes = (
(311,-8,o),
(361,3,o),
(406,26,c),
(399,166,l),
(383,158,o),
(368,154,o),
(350,154,cs),
(304,154,o),
(289,171,o),
(289,207,cs),
(289,390,l),
(375,416,l),
(375,501,l),
(289,475,l),
(289,690,l),
(78,659,l),
(78,410,l),
(-6,385,l),
(-6,300,l),
(78,325,l),
(78,192,ls),
(78,69,o),
(142,-8,o),
(256,-8,cs)
);
}
);
};
layerId = UUID0;
shapes = (
{
ref = l;
},
{
pos = (-5,11);
ref = slashshortcomb;
}
);
width = 375;
}
);
unicode = 322;
},
{
color = 3;
glyphname = m;
kernLeft = m;
kernRight = h;
lastChange = "2023-02-01 10:33:46 +0000";
layers = (
{
anchors = (
{
name = bottom;
pos = (513,0);
},
{
name = top;
pos = (513,501);
}
);
background = {
anchors = (
{
name = bottom;
pos = (513,0);
},
{
name = top;
pos = (513,501);
}
);
shapes = (
{
closed = 1;
nodes = (
(1361,0,l),
(1361,254,ls),
(1361,309,o),
(1398,353,o),
(1443,353,cs),
(1485,353,o),
(1510,319,o),
(1510,250,cs),
(1510,0,l),
(1719,0,l),
(1719,254,ls),
(1719,309,o),
(1757,353,o),
(1802,353,cs),
(1843,353,o),
(1868,319,o),
(1868,250,cs),
(1868,0,l),
(2079,0,l),
(2079,250,ls),
(2079,411,o),
(2002,508,o),
(1886,508,cs),
(1798,508,o),
(1740,467,o),
(1700,399,c),
(1672,463,o),
(1614,508,o),
(1532,508,cs),
(1451,508,o),
(1396,470,o),
(1351,392,c),
(1351,494,l),
(1150,494,l),
(1150,0,l)
);
},
{
closed = 1;
nodes = (
(621,0,l),
(621,234,ls),
(621,304,o),
(655,350,o),
(707,350,cs),
(748,350,o),
(770,321,o),
(770,261,cs),
(770,0,l),
(981,0,l),
(981,250,ls),
(981,414,o),
(910,508,o),
(786,508,cs),
(702,508,o),
(647,467,o),
(618,392,c),
(618,501,l),
(410,501,l),
(410,0,l)
);
}
);
};
layerId = UUID0;
shapes = (
{
closed = 1;
nodes = (
(261,0,l),
(261,234,ls),
(261,307,o),
(295,350,o),
(347,350,cs),
(388,350,o),
(410,324,o),
(410,261,cs),
(410,0,l),
(621,0,l),
(621,234,ls),
(621,304,o),
(655,350,o),
(707,350,cs),
(748,350,o),
(770,321,o),
(770,261,cs),
(770,0,l),
(981,0,l),
(981,250,ls),
(981,414,o),
(910,508,o),
(786,508,cs),
(698,508,o),
(638,467,o),
(593,399,c),
(569,463,o),
(508,508,o),
(426,508,cs),
(342,508,o),
(287,467,o),
(258,392,c),
(258,501,l),
(50,501,l),
(50,0,l)
);
}
);
width = 1026;
}
);
unicode = 109;
},
{
color = 3;
glyphname = n;
kernLeft = m;
kernRight = h;
lastChange = "2023-02-01 10:55:55 +0000";
layers = (
{
anchors = (
{
name = bottom;
pos = (346,0);
},
{
name = top;
pos = (344,501);
}
);
background = {
anchors = (
{
name = bottom;
pos = (1044,0);
},
{
name = top;
pos = (1044,501);
}
);
shapes = (
{
closed = 1;
nodes = (
(961,0,l),
(961,234,ls),
(961,312,o),
(1013,360,o),
(1060,360,cs),
(1103,360,o),
(1130,329,o),
(1130,271,cs),
(1130,0,l),
(1340,0,l),
(1340,250,ls),
(1340,411,o),
(1263,508,o),
(1135,508,cs),
(1051,508,o),
(989,468,o),
(951,392,c),
(951,494,l),
(750,494,l),
(750,0,l)
);
},
{
closed = 1;
nodes = (
(563,-8,o),
(670,101,o),
(670,253,cs),
(670,404,o),
(563,508,o),
(424,508,cs),
(359,508,o),
(292,474,o),
(260,392,c),
(260,501,l),
(50,501,l),
(50,0,l),
(260,0,l),
(260,93,l),
(292,28,o),
(344,-8,o),
(424,-8,cs)
);
},
{
closed = 1;
nodes = (
(304,150,o),
(260,195,o),
(260,252,cs),
(260,309,o),
(304,350,o),
(359,350,cs),
(416,350,o),
(460,306,o),
(460,250,cs),
(460,194,o),
(416,150,o),
(359,150,cs)
);
}
);
};
layerId = UUID0;
shapes = (
{
closed = 1;
nodes = (
(261,0,l),
(261,234,ls),
(261,304,o),
(300,350,o),
(358,350,cs),
(405,350,o),
(430,321,o),
(430,261,cs),
(430,0,l),
(641,0,l),
(641,250,ls),
(641,414,o),
(566,508,o),
(435,508,cs),
(351,508,o),
(289,467,o),
(258,392,c),
(258,501,l),
(50,501,l),
(50,0,l)
);
}
);
width = 686;
}
);
unicode = 110;
},
{
color = 3;
glyphname = eng;
kernLeft = m;
kernRight = h;
lastChange = "2023-02-01 10:33:46 +0000";
layers = (
{
background = {
shapes = (
{
closed = 1;
nodes = (
(558,-246,o),
(640,-152,o),
(640,0,cs),
(640,250,ls),
(640,411,o),
(563,508,o),
(435,508,cs),
(351,508,o),
(289,468,o),
(251,392,c),
(251,494,l),
(50,494,l),
(50,0,l),
(261,0,l),
(261,234,ls),
(261,312,o),
(313,360,o),
(360,360,cs),
(403,360,o),
(430,329,o),
(430,271,cs),
(430,-10,ls),
(430,-65,o),
(407,-93,o),
(362,-93,cs),
(343,-93,o),
(320,-89,o),
(294,-79,c),
(248,-193,l),
(301,-229,o),
(358,-246,o),
(419,-246,cs)
);
}
);
};
layerId = UUID0;
shapes = (
{
closed = 1;
nodes = (
(351,508,o),
(289,467,o),
(258,392,c),
(258,501,l),
(50,501,l),
(50,0,l),
(261,0,l),
(261,234,ls),
(261,304,o),
(300,350,o),
(358,350,cs),
(405,350,o),
(430,321,o),
(430,261,cs),
(430,38,ls),
(430,-15,o),
(412,-38,o),
(369,-38,cs),
(351,-38,o),
(329,-34,o),
(309,-26,c),
(279,-169,l),
(313,-184,o),
(359,-195,o),
(412,-195,cs),
(566,-195,o),
(641,-106,o),
(641,56,cs),
(641,250,ls),
(641,414,o),
(566,508,o),
(435,508,cs)
);
}
);
width = 686;
}
);
unicode = 331;
},
{
color = 3;
glyphname = o;
kernLeft = c;
kernRight = o;
lastChange = "2023-02-02 12:39:35 +0000";
layers = (
{
anchors = (
{
name = bottom;
pos = (314,0);
},
{
name = center;
pos = (314,251);
},
{
name = ogonek;
pos = (389,0);
},
{
name = top;
pos = (314,501);
},
{
name = topright;
pos = (607,501);
}
);
background = {
anchors = (
{
name = bottom;
pos = (314,0);
},
{
name = center;
pos = (314,251);
},
{
name = ogonek;
pos = (389,0);
},
{
name = top;
pos = (314,501);
},
{
name = topright;
pos = (607,501);
}
);
shapes = (
{
closed = 1;
nodes = (
(484,-8,o),
(602,96,o),
(602,251,cs),
(602,404,o),
(486,508,o),
(314,508,cs),
(146,508,o),
(25,406,o),
(25,251,cs),
(25,98,o),
(142,-8,o),
(313,-8,cs)
);
},
{
closed = 1;
nodes = (
(260,142,o),
(221,187,o),
(221,251,cs),
(221,315,o),
(260,360,o),
(315,360,cs),
(370,360,o),
(409,315,o),
(409,251,cs),
(409,187,o),
(370,142,o),
(315,142,cs)
);
}
);
};
layerId = UUID0;
shapes = (
{
closed = 1;
nodes = (
(484,-8,o),
(602,96,o),
(602,251,cs),
(602,404,o),
(486,508,o),
(314,508,cs),
(146,508,o),
(25,406,o),
(25,251,cs),
(25,98,o),
(142,-8,o),
(313,-8,cs)
);
},
{
closed = 1;
nodes = (
(260,142,o),
(221,187,o),
(221,251,cs),
(221,315,o),
(260,360,o),
(317,360,cs),
(370,360,o),
(409,315,o),
(409,251,cs),
(409,187,o),
(370,142,o),
(315,142,cs)
);
}
);
width = 627;
}
);
unicode = 111;
},
{
color = 3;
glyphname = ohorn;
kernLeft = c;
kernRight = o;
lastChange = "2023-02-01 10:33:46 +0000";
layers = (
{
anchors = (
{
name = bottom;
pos = (314,0);
},
{
name = ogonek;
pos = (389,0);
},
{
name = top;
pos = (314,501);
}
);
background = {
anchors = (
{
name = bottom;
pos = (314,0);
},
{
name = ogonek;
pos = (389,0);
},
{
name = top;
pos = (314,501);
}
);
shapes = (
{
closed = 1;
nodes = (
(484,-8,o),
(602,96,o),
(602,251,cs),
(602,404,o),
(486,508,o),
(314,508,cs),
(146,508,o),
(25,406,o),
(25,251,cs),
(25,98,o),
(142,-8,o),
(313,-8,cs)
);
},
{
closed = 1;
nodes = (
(260,142,o),
(221,187,o),
(221,251,cs),
(221,315,o),
(260,360,o),
(317,360,cs),
(370,360,o),
(409,315,o),
(409,251,cs),
(409,187,o),
(370,142,o),
(315,142,cs)
);
}
);
};
layerId = UUID0;
shapes = (
{
closed = 1;
nodes = (
(484,-8,o),
(602,96,o),
(602,251,cs),
(602,312,o),
(583,366,o),
(538,418,c),
(599,434,o),
(621,487,o),
(621,594,c),
(504,594,l),
(504,505,o),
(485,498,o),
(430,498,cs),
(395,498,o),
(368,508,o),
(314,508,cs),
(146,508,o),
(25,406,o),
(25,251,cs),
(25,98,o),
(142,-8,o),
(313,-8,cs)
);
},
{
closed = 1;
nodes = (
(260,142,o),
(221,187,o),
(221,251,cs),
(221,315,o),
(260,360,o),
(317,360,cs),
(370,360,o),
(409,315,o),
(409,251,cs),
(409,187,o),
(370,142,o),
(315,142,cs)
);
}
);
width = 627;
}
);
unicode = 417;
},
{
color = 3;
glyphname = oogonek;
kernLeft = c;
kernRight = o;
lastChange = "2023-02-02 15:38:44 +0000";
layers = (
{
anchors = (
{
name = center;
pos = (314,251);
},
{
name = top;
pos = (314,501);
}
);
background = {
shapes = (
{
closed = 1;
nodes = (
(484,-8,o),
(602,96,o),
(602,251,cs),
(602,404,o),
(486,508,o),
(314,508,cs),
(146,508,o),
(25,406,o),
(25,251,cs),
(25,98,o),
(142,-8,o),
(313,-8,cs)
);
},
{
closed = 1;
nodes = (
(260,142,o),
(221,187,o),
(221,251,cs),
(221,315,o),
(260,360,o),
(317,360,cs),
(370,360,o),
(409,315,o),
(409,251,cs),
(409,187,o),
(370,142,o),
(315,142,cs)
);
},
{
closed = 1;
nodes = (
(352,-248,o),
(385,-243,o),
(416,-230,c),
(415,-172,l),
(397,-178,o),
(380,-181,o),
(368,-181,cs),
(336,-181,o),
(320,-167,o),
(320,-140,cs),
(320,-101,o),
(351,-56,o),
(419,0,c),
(351,10,l),
(248,-37,o),
(192,-97,o),
(192,-158,cs),
(192,-212,o),
(237,-248,o),
(323,-248,cs)
);
}
);
};
layerId = UUID0;
shapes = (
{
closed = 1;
nodes = (
(558,78,o),
(602,151,o),
(602,251,cs),
(602,404,o),
(486,508,o),
(314,508,cs),
(146,508,o),
(25,406,o),
(25,251,cs),
(25,98,o),
(142,-8,o),
(310,-8,c),
(239,-50,o),
(198,-103,o),
(198,-158,cs),
(198,-212,o),
(243,-248,o),
(329,-248,cs),
(358,-248,o),
(390,-243,o),
(421,-230,c),
(421,-172,l),
(403,-178,o),
(386,-181,o),
(374,-181,cs),
(342,-181,o),
(326,-167,o),
(326,-140,cs),
(326,-101,o),
(351,-42,o),
(468,26,cs)
);
},
{
closed = 1;
nodes = (
(221,315,o),
(260,360,o),
(317,360,cs),
(370,360,o),
(409,315,o),
(409,251,cs),
(409,187,o),
(370,142,o),
(315,142,cs),
(260,142,o),
(221,187,o),
(221,251,cs)
);
}
);
width = 627;
}
);
unicode = 491;
},
{
color = 6;
glyphname = oslash;
kernLeft = c;
kernRight = o;
lastChange = "2023-02-01 10:33:46 +0000";
layers = (
{
anchors = (
{
name = top;
pos = (314,501);
}
);
background = {
anchors = (
{
name = top;
pos = (314,501);
}
);
shapes = (
{
closed = 1;
nodes = (
(240,-87,l),
(266,-5,l),
(281,-7,o),
(297,-8,o),
(313,-8,cs),
(484,-8,o),
(602,96,o),
(602,251,cs),
(602,368,o),
(535,456,o),
(426,491,c),
(457,587,l),
(387,587,l),
(361,505,l),
(346,507,o),
(330,508,o),
(314,508,cs),
(146,508,o),
(25,406,o),
(25,251,cs),
(25,134,o),
(93,45,o),
(201,9,c),
(170,-87,l)
);
},
{
closed = 1;
nodes = (
(228,182,o),
(215,213,o),
(215,251,cs),
(215,317,o),
(254,362,o),
(314,362,cs),
(315,362,l),
(250,162,l)
);
},
{
closed = 1;
nodes = (
(377,340,l),
(400,320,o),
(413,289,o),
(413,251,cs),
(413,185,o),
(374,140,o),
(314,140,cs),
(313,140,l)
);
}
);
};
layerId = UUID0;
shapes = (
{
ref = o;
},
{
pos = (0,1);
ref = slashlongcomb.o;
}
);
width = 627;
}
);
unicode = 248;
},
{
color = 4;
glyphname = oe;
kernLeft = c;
kernRight = e;
lastChange = "2023-02-01 17:49:25 +0000";
layers = (
{
anchors = (
{
name = bottom;
pos = (507,0);
},
{
name = top;
pos = (507,501);
}
);
background = {
shapes = (
{
closed = 1;
nodes = (
(472,-8,o),
(582,96,o),
(582,251,cs),
(582,404,o),
(474,508,o),
(314,508,cs),
(146,508,o),
(25,406,o),
(25,251,cs),
(25,98,o),
(142,-8,o),
(313,-8,cs)
);
},
{
closed = 1;
nodes = (
(260,142,o),
(221,187,o),
(221,251,cs),
(221,315,o),
(260,360,o),
(317,360,cs),
(370,360,o),
(409,315,o),
(409,251,cs),
(409,187,o),
(370,142,o),
(315,142,cs)
);
},
{
closed = 1;
nodes = (
(605,279,cs),
(604,339,o),
(638,387,o),
(695,387,cs),
(731,387,o),
(756,366,o),
(762,324,c),
(587,287,l),
(595,196,l),
(919,237,l),
(919,410,o),
(838,508,o),
(688,508,cs),
(545,508,o),
(429,406,o),
(429,250,cs),
(429,98,o),
(528,-8,o),
(717,-8,cs),
(791,-8,o),
(847,5,o),
(897,31,c),
(873,160,l),
(827,138,o),
(784,132,o),
(745,132,cs),
(657,132,o),
(607,179,o)
);
}
);
};
layerId = UUID0;
shapes = (
{
closed = 1;
nodes = (
(391,-8,o),
(458,17,o),
(505,61,c),
(553,17,o),
(624,-8,o),
(717,-8,cs),
(791,-8,o),
(847,5,o),
(897,31,c),
(873,160,l),
(827,138,o),
(784,132,o),
(745,132,cs),
(685,132,o),
(643,154,o),
(621,199,c),
(919,237,l),
(919,410,o),
(838,508,o),
(688,508,cs),
(617,508,o),
(553,483,o),
(506,439,c),
(459,483,o),
(393,508,o),
(314,508,cs),
(146,508,o),
(25,406,o),
(25,251,cs),
(25,98,o),
(142,-8,o),
(313,-8,cs)
);
},
{
closed = 1;
nodes = (
(221,315,o),
(260,360,o),
(317,360,cs),
(370,360,o),
(409,315,o),
(409,251,cs),
(409,187,o),
(370,142,o),
(315,142,cs),
(260,142,o),
(221,187,o),
(221,251,cs)
);
},
{
closed = 1;
nodes = (
(609,345,o),
(642,387,o),
(695,387,cs),
(731,387,o),
(756,366,o),
(762,324,c),
(605,291,l)
);
}
);
width = 939;
}
);
metricLeft = o;
metricRight = e;
unicode = 339;
},
{
color = 3;
glyphname = p;
kernLeft = m;
kernRight = o;
lastChange = "2023-02-01 10:33:46 +0000";
layers = (
{
anchors = (
{
name = bottom;
pos = (348,0);
},
{
name = top;
pos = (348,501);
}
);
background = {
anchors = (
{
name = bottom;
pos = (348,0);
},
{
name = top;
pos = (348,501);
}
);
shapes = (
{
closed = 1;
nodes = (
(261,-130,l),
(261,93,l),
(294,26,o),
(349,-8,o),
(425,-8,cs),
(554,-8,o),
(669,101,o),
(669,250,cs),
(669,398,o),
(560,508,o),
(424,508,cs),
(346,508,o),
(293,475,o),
(261,407,c),
(261,494,l),
(50,494,l),
(50,-170,l)
);
},
{
closed = 1;
nodes = (
(308,150,o),
(262,193,o),
(262,250,cs),
(262,254,ls),
(262,306,o),
(306,350,o),
(361,350,cs),
(414,350,o),
(460,307,o),
(460,250,cs),
(460,198,o),
(417,150,o),
(361,150,cs)
);
}
);
};
layerId = UUID0;
shapes = (
{
closed = 1;
nodes = (
(261,93,l),
(292,28,o),
(344,-8,o),
(424,-8,cs),
(563,-8,o),
(670,101,o),
(670,253,cs),
(670,404,o),
(563,508,o),
(424,508,cs),
(359,508,o),
(292,474,o),
(258,392,c),
(258,501,l),
(50,501,l),
(50,-189,l),
(261,-158,l)
);
},
{
closed = 1;
nodes = (
(304,150,o),
(260,195,o),
(260,252,cs),
(260,309,o),
(304,350,o),
(359,350,cs),
(416,350,o),
(460,306,o),
(460,250,cs),
(460,194,o),
(416,150,o),
(359,150,cs)
);
}
);
width = 695;
}
);
unicode = 112;
},
{
color = 3;
glyphname = thorn;
kernLeft = b;
kernRight = o;
lastChange = "2023-02-01 10:33:46 +0000";
layers = (
{
background = {
shapes = (
{
closed = 1;
nodes = (
(261,-249,l),
(261,93,l),
(292,26,o),
(347,-16,o),
(425,-16,cs),
(555,-16,o),
(669,104,o),
(669,250,cs),
(669,397,o),
(560,516,o),
(424,516,cs),
(349,516,o),
(295,479,o),
(261,407,c),
(261,690,l),
(50,659,l),
(50,-249,l)
);
},
{
closed = 1;
nodes = (
(307,150,o),
(261,194,o),
(261,250,cs),
(261,254,l),
(263,306,o),
(305,350,o),
(360,350,cs),
(407,350,o),
(460,314,o),
(460,250,cs),
(460,197,o),
(416,150,o),
(360,150,cs)
);
}
);
};
layerId = UUID0;
shapes = (
{
closed = 1;
nodes = (
(261,93,l),
(292,28,o),
(344,-8,o),
(424,-8,cs),
(563,-8,o),
(670,101,o),
(670,253,cs),
(670,404,o),
(563,508,o),
(424,508,cs),
(359,508,o),
(292,474,o),
(261,396,c),
(261,690,l),
(50,659,l),
(50,-189,l),
(261,-158,l)
);
},
{
closed = 1;
nodes = (
(304,150,o),
(260,195,o),
(260,252,cs),
(260,309,o),
(304,350,o),
(359,350,cs),
(416,350,o),
(460,306,o),
(460,250,cs),
(460,194,o),
(416,150,o),
(359,150,cs)
);
}
);
width = 695;
}
);
unicode = 254;
},
{
color = 3;
glyphname = q;
kernLeft = c;
lastChange = "2023-02-01 10:33:46 +0000";
layers = (
{
anchors = (
{
name = bottom;
pos = (347,0);
},
{
name = top;
pos = (347,501);
}
);
background = {
anchors = (
{
name = bottom;
pos = (347,0);
},
{
name = top;
pos = (347,501);
}
);
shapes = (
{
closed = 1;
nodes = (
(1545,-130,l),
(1545,494,l),
(1334,494,l),
(1334,407,l),
(1299,479,o),
(1244,508,o),
(1170,508,cs),
(1036,508,o),
(925,398,o),
(925,250,cs),
(925,115,o),
(1020,-8,o),
(1169,-8,cs),
(1243,-8,o),
(1298,21,o),
(1334,93,c),
(1334,-170,l)
);
},
{
closed = 1;
nodes = (
(1183,150,o),
(1135,193,o),
(1135,250,cs),
(1135,303,o),
(1179,350,o),
(1235,350,cs),
(1285,350,o),
(1332,307,o),
(1334,254,c),
(1334,246,l),
(1332,195,o),
(1289,150,o),
(1235,150,cs)
);
},
{
closed = 1;
nodes = (
(351,-8,o),
(403,28,o),
(435,93,c),
(435,0,l),
(645,0,l),
(645,501,l),
(437,501,l),
(437,392,l),
(403,474,o),
(336,508,o),
(271,508,cs),
(132,508,o),
(25,404,o),
(25,253,cs),
(25,101,o),
(132,-8,o),
(271,-8,cs)
);
},
{
closed = 1;
nodes = (
(279,150,o),
(235,194,o),
(235,250,cs),
(235,306,o),
(279,350,o),
(336,350,cs),
(391,350,o),
(435,309,o),
(435,252,cs),
(435,195,o),
(391,150,o),
(336,150,cs)
);
}
);
};
layerId = UUID0;
shapes = (
{
closed = 1;
nodes = (
(645,-158,l),
(645,501,l),
(437,501,l),
(437,392,l),
(403,474,o),
(336,508,o),
(271,508,cs),
(132,508,o),
(25,404,o),
(25,253,cs),
(25,101,o),
(132,-8,o),
(271,-8,cs),
(351,-8,o),
(403,28,o),
(434,93,c),
(434,-189,l)
);
},
{
closed = 1;
nodes = (
(279,150,o),
(235,194,o),
(235,250,cs),
(235,306,o),
(279,350,o),
(336,350,cs),
(391,350,o),
(435,309,o),
(435,252,cs),
(435,195,o),
(391,150,o),
(336,150,cs)
);
}
);
width = 695;
}
);
unicode = 113;
},
{
color = 3;
glyphname = r;
kernLeft = m;
kernRight = r;
lastChange = "2023-02-01 10:33:46 +0000";
layers = (
{
anchors = (
{
name = bottom;
pos = (156,0);
},
{
name = top;
pos = (233,501);
}
);
background = {
anchors = (
{
name = bottom;
pos = (156,0);
},
{
name = top;
pos = (233,501);
}
);
shapes = (
{
closed = 1;
nodes = (
(261,0,l),
(261,260,ls),
(261,319,o),
(318,345,o),
(445,345,c),
(416,508,l),
(347,508,o),
(292,472,o),
(261,392,c),
(261,494,l),
(50,494,l),
(50,0,l)
);
}
);
};
layerId = UUID0;
shapes = (
{
closed = 1;
nodes = (
(261,0,l),
(261,220,ls),
(261,298,o),
(309,334,o),
(400,334,cs),
(416,334,o),
(431,333,o),
(447,331,c),
(422,508,l),
(343,508,o),
(284,467,o),
(258,376,c),
(258,501,l),
(50,501,l),
(50,0,l)
);
}
);
width = 447;
}
);
unicode = 114;
},
{
color = 3;
glyphname = s;
kernLeft = s;
kernRight = s;
lastChange = "2023-02-01 10:33:46 +0000";
layers = (
{
anchors = (
{
name = bottom;
pos = (239,0);
},
{
name = top;
pos = (239,501);
}
);
background = {
anchors = (
{
name = bottom;
pos = (229,0);
},
{
name = top;
pos = (229,501);
}
);
shapes = (
{
closed = 1;
nodes = (
(362,-8,o),
(436,59,o),
(436,162,cs),
(436,255,o),
(374,306,o),
(255,327,cs),
(226,332,o),
(205,341,o),
(205,358,cs),
(205,372,o),
(215,384,o),
(265,384,cs),
(294,384,o),
(345,376,o),
(386,361,c),
(407,480,l),
(365,500,o),
(318,508,o),
(249,508,cs),
(115,508,o),
(30,451,o),
(25,345,c),
(25,252,o),
(70,204,o),
(181,183,cs),
(236,173,o),
(250,162,o),
(250,144,cs),
(250,126,o),
(233,116,o),
(200,116,cs),
(157,116,o),
(107,125,o),
(60,142,c),
(37,23,l),
(93,1,o),
(151,-8,o),
(221,-8,cs)
);
}
);
};
layerId = UUID0;
shapes = (
{
closed = 1;
nodes = (
(353,-8,o),
(436,55,o),
(436,162,cs),
(436,342,o),
(214,307,o),
(214,351,cs),
(214,369,o),
(235,377,o),
(284,377,cs),
(321,377,o),
(361,369,o),
(395,355,c),
(416,477,l),
(372,502,o),
(324,508,o),
(268,508,cs),
(122,508,o),
(34,440,o),
(34,335,cs),
(34,146,o),
(250,203,o),
(250,150,cs),
(250,132,o),
(233,123,o),
(200,123,cs),
(158,123,o),
(97,136,o),
(66,152,c),
(37,26,l),
(86,4,o),
(151,-8,o),
(211,-8,cs)
);
}
);
width = 456;
}
);
unicode = 115;
},
{
color = 3;
glyphname = germandbls;
kernLeft = f;
lastChange = "2023-02-01 10:33:46 +0000";
layers = (
{
background = {
shapes = (
{
closed = 1;
nodes = (
(538,-45,o),
(682,26,o),
(682,195,cs),
(682,291,o),
(605,371,o),
(510,402,c),
(556,429,o),
(587,473,o),
(587,534,cs),
(587,641,o),
(469,703,o),
(335,703,cs),
(169,703,o),
(46,633,o),
(46,499,cs),
(46,-16,l),
(261,0,l),
(261,493,ls),
(261,544,o),
(289,570,o),
(343,570,cs),
(380,570,o),
(421,552,o),
(421,513,cs),
(421,478,o),
(385,451,o),
(338,443,c),
(338,351,l),
(424,331,o),
(468,284,o),
(468,229,cs),
(468,164,o),
(431,115,o),
(367,115,cs),
(351,115,o),
(335,116,o),
(318,117,c),
(318,-44,l),
(385,-45,ls)
);
}
);
};
layerId = UUID0;
shapes = (
{
closed = 1;
nodes = (
(576,-9,o),
(679,75,o),
(679,211,cs),
(679,271,o),
(642,360,o),
(510,388,c),
(570,417,o),
(597,464,o),
(597,522,cs),
(597,632,o),
(512,703,o),
(345,703,cs),
(167,703,o),
(50,605,o),
(50,419,cs),
(50,0,l),
(261,0,l),
(261,453,ls),
(261,524,o),
(297,560,o),
(350,560,cs),
(395,560,o),
(416,536,o),
(416,503,cs),
(416,466,o),
(397,439,o),
(338,429,c),
(338,337,l),
(429,321,o),
(468,273,o),
(468,225,cs),
(468,166,o),
(428,141,o),
(367,141,cs),
(351,141,o),
(335,143,o),
(317,146,c),
(328,-1,l),
(349,-6,o),
(377,-9,o),
(415,-9,cs)
);
}
);
width = 700;
}
);
unicode = 223;
},
{
color = 4;
glyphname = longs;
kernLeft = b;
lastChange = "2023-02-01 10:33:46 +0000";
layers = (
{
background = {
shapes = (
{
closed = 1;
nodes = (
(245,0,l),
(245,488,l),
(220,523,o),
(214,543,o),
(214,561,cs),
(214,598,o),
(237,617,o),
(276,617,cs),
(302,617,o),
(335,609,o),
(373,594,c),
(380,729,l),
(336,755,o),
(288,768,o),
(237,768,cs),
(111,768,o),
(34,693,o),
(34,543,cs),
(34,0,l)
);
}
);
};
layerId = UUID0;
shapes = (
{
closed = 1;
nodes = (
(261,0,l),
(261,429,l),
(236,462,o),
(230,482,o),
(230,500,cs),
(230,537,o),
(255,556,o),
(292,556,cs),
(318,556,o),
(351,551,o),
(382,533,c),
(396,668,l),
(362,694,o),
(314,707,o),
(263,707,cs),
(137,707,o),
(50,632,o),
(50,482,cs),
(50,0,l)
);
}
);
width = 378;
}
);
unicode = 383;
},
{
color = 3;
glyphname = t;
kernLeft = t;
kernRight = t;
lastChange = "2023-02-02 12:38:57 +0000";
layers = (
{
anchors = (
{
name = bottom;
pos = (227,0);
},
{
name = center;
pos = (187,281);
},
{
name = top;
pos = (169,659);
},
{
name = topright;
pos = (313,828);
}
);
background = {
anchors = (
{
name = bottom;
pos = (227,0);
},
{
name = center;
pos = (199,251);
},
{
name = top;
pos = (176,688);
},
{
name = topright;
pos = (313,828);
}
);
shapes = (
{
closed = 1;
nodes = (
(899,-8,o),
(958,6,o),
(991,26,c),
(983,166,l),
(968,158,o),
(952,154,o),
(934,154,cs),
(896,154,o),
(873,173,o),
(873,207,cs),
(873,377,l),
(989,377,l),
(989,501,l),
(873,501,l),
(873,690,l),
(772,690,l),
(679,501,l),
(600,501,l),
(600,377,l),
(664,377,l),
(664,182,ls),
(664,63,o),
(733,-8,o),
(850,-8,cs)
);
},
{
closed = 1;
nodes = (
(304,-8,o),
(360,4,o),
(392,27,c),
(377,166,l),
(361,158,o),
(345,154,o),
(329,154,cs),
(297,154,o),
(275,171,o),
(275,202,cs),
(275,710,l),
(64,679,l),
(64,173,ls),
(64,71,o),
(121,-8,o),
(264,-8,cs)
);
}
);
};
layerId = UUID0;
shapes = (
{
closed = 1;
nodes = (
(304,-8,o),
(360,4,o),
(392,27,c),
(377,166,l),
(361,158,o),
(345,154,o),
(329,154,cs),
(297,154,o),
(275,171,o),
(275,202,cs),
(275,377,l),
(391,377,l),
(391,501,l),
(275,501,l),
(275,659,l),
(172,659,l),
(79,501,l),
(0,501,l),
(0,377,l),
(64,377,l),
(64,173,ls),
(64,71,o),
(121,-8,o),
(264,-8,cs)
);
}
);
width = 414;
}
);
unicode = 116;
},
{
color = 6;
glyphname = tbar;
kernLeft = t;
kernRight = t;
lastChange = "2023-02-01 10:33:46 +0000";
layers = (
{
background = {
shapes = (
{
closed = 1;
nodes = (
(323,-8,o),
(382,6,o),
(415,26,c),
(407,166,l),
(392,158,o),
(376,154,o),
(358,154,cs),
(320,154,o),
(297,173,o),
(297,207,cs),
(297,253,l),
(403,253,l),
(403,338,l),
(297,338,l),
(297,377,l),
(413,377,l),
(413,501,l),
(297,501,l),
(297,690,l),
(196,690,l),
(103,501,l),
(24,501,l),
(24,377,l),
(88,377,l),
(88,338,l),
(34,338,l),
(34,253,l),
(88,253,l),
(88,182,ls),
(88,63,o),
(157,-8,o),
(274,-8,cs)
);
}
);
};
layerId = UUID0;
shapes = (
{
ref = t;
},
{
pos = (-144,-2);
ref = strokeshortcomb;
}
);
width = 414;
}
);
unicode = 359;
},
{
color = 3;
glyphname = u;
kernLeft = u;
kernRight = u;
lastChange = "2023-02-01 10:33:46 +0000";
layers = (
{
anchors = (
{
name = bottom;
pos = (313,0);
},
{
name = ogonek;
pos = (393,0);
},
{
name = top;
pos = (313,501);
},
{
name = topright;
pos = (607,501);
}
);
background = {
anchors = (
{
name = bottom;
pos = (313,0);
},
{
name = ogonek;
pos = (393,0);
},
{
name = top;
pos = (313,501);
},
{
name = topright;
pos = (607,501);
}
);
shapes = (
{
closed = 1;
nodes = (
(473,-8,o),
(580,82,o),
(580,215,cs),
(580,501,l),
(378,501,l),
(378,218,ls),
(378,173,o),
(350,148,o),
(316,148,cs),
(280,148,o),
(251,172,o),
(251,218,cs),
(251,501,l),
(45,501,l),
(45,215,ls),
(45,83,o),
(155,-8,o),
(315,-8,cs)
);
}
);
};
layerId = UUID0;
shapes = (
{
closed = 1;
nodes = (
(483,-8,o),
(580,82,o),
(580,235,cs),
(580,501,l),
(378,501,l),
(378,226,ls),
(378,173,o),
(355,148,o),
(316,148,cs),
(276,148,o),
(251,172,o),
(251,226,cs),
(251,501,l),
(45,501,l),
(45,235,ls),
(45,83,o),
(145,-8,o),
(315,-8,cs)
);
}
);
width = 625;
}
);
unicode = 117;
},
{
color = 3;
glyphname = uhorn;
kernLeft = u;
kernRight = u;
lastChange = "2023-02-01 10:33:46 +0000";
layers = (
{
anchors = (
{
name = bottom;
pos = (313,0);
},
{
name = top;
pos = (313,501);
}
);
background = {
anchors = (
{
name = bottom;
pos = (313,0);
},
{
name = top;
pos = (313,501);
}
);
shapes = (
{
closed = 1;
nodes = (
(483,-8,o),
(580,82,o),
(580,235,cs),
(580,501,l),
(378,501,l),
(378,226,ls),
(378,173,o),
(355,148,o),
(316,148,cs),
(276,148,o),
(251,172,o),
(251,226,cs),
(251,501,l),
(45,501,l),
(45,235,ls),
(45,83,o),
(145,-8,o),
(315,-8,cs)
);
}
);
};
layerId = UUID0;
shapes = (
{
closed = 1;
nodes = (
(483,-8,o),
(580,82,o),
(580,235,cs),
(580,400,l),
(646,420,o),
(675,472,o),
(675,594,c),
(558,594,l),
(558,505,o),
(539,501,o),
(474,501,cs),
(378,501,l),
(378,226,ls),
(378,173,o),
(355,148,o),
(316,148,cs),
(276,148,o),
(251,172,o),
(251,226,cs),
(251,501,l),
(45,501,l),
(45,235,ls),
(45,83,o),
(145,-8,o),
(315,-8,cs)
);
}
);
width = 655;
}
);
unicode = 432;
},
{
color = 3;
glyphname = uogonek;
kernLeft = u;
kernRight = u;
lastChange = "2023-02-02 15:38:42 +0000";
layers = (
{
anchors = (
{
name = top;
pos = (313,501);
},
{
name = topright;
pos = (607,501);
}
);
background = {
shapes = (
{
closed = 1;
nodes = (
(483,-8,o),
(580,82,o),
(580,235,cs),
(580,501,l),
(378,501,l),
(378,226,ls),
(378,173,o),
(355,148,o),
(316,148,cs),
(276,148,o),
(251,172,o),
(251,226,cs),
(251,501,l),
(45,501,l),
(45,235,ls),
(45,83,o),
(145,-8,o),
(315,-8,cs)
);
},
{
closed = 1;
nodes = (
(357,-248,o),
(390,-243,o),
(421,-230,c),
(420,-172,l),
(402,-178,o),
(385,-181,o),
(373,-181,cs),
(341,-181,o),
(325,-167,o),
(325,-140,cs),
(325,-101,o),
(356,-56,o),
(424,0,c),
(356,10,l),
(253,-37,o),
(197,-97,o),
(197,-158,cs),
(197,-212,o),
(242,-248,o),
(328,-248,cs)
);
}
);
};
layerId = UUID0;
shapes = (
{
closed = 1;
nodes = (
(378,226,ls),
(378,173,o),
(355,148,o),
(316,148,cs),
(276,148,o),
(251,172,o),
(251,226,cs),
(251,501,l),
(45,501,l),
(45,235,ls),
(45,83,o),
(145,-8,o),
(308,-8,c),
(245,-49,o),
(197,-105,o),
(197,-158,cs),
(197,-212,o),
(242,-248,o),
(328,-248,cs),
(357,-248,o),
(389,-243,o),
(420,-230,c),
(420,-172,l),
(402,-178,o),
(385,-181,o),
(373,-181,cs),
(341,-181,o),
(325,-167,o),
(325,-140,cs),
(325,-101,o),
(362,-30,o),
(471,27,cs),
(539,63,o),
(580,135,o),
(580,235,cs),
(580,501,l),
(378,501,l)
);
}
);
width = 625;
}
);
unicode = 371;
},
{
color = 3;
glyphname = v;
kernLeft = v;
kernRight = v;
lastChange = "2023-02-02 13:24:40 +0000";
layers = (
{
anchors = (
{
name = bottom;
pos = (288,0);
},
{
name = top;
pos = (288,501);
}
);
background = {
anchors = (
{
name = bottom;
pos = (288,0);
},
{
name = top;
pos = (288,501);
}
);
shapes = (
{
closed = 1;
nodes = (
(409,0,l),
(568,501,l),
(385,501,l),
(310,201,l),
(233,501,l),
(1,501,l),
(166,0,l)
);
}
);
};
layerId = UUID0;
shapes = (
{
closed = 1;
nodes = (
(409,0,l),
(578,501,l),
(395,501,l),
(310,201,l),
(223,501,l),
(-9,501,l),
(166,0,l)
);
}
);
width = 572;
}
);
unicode = 118;
},
{
color = 3;
glyphname = w;
kernLeft = v;
kernRight = v;
lastChange = "2023-02-01 10:33:46 +0000";
layers = (
{
anchors = (
{
name = bottom;
pos = (440,0);
},
{
name = top;
pos = (440,501);
}
);
background = {
anchors = (
{
name = bottom;
pos = (440,0);
},
{
name = top;
pos = (440,501);
}
);
shapes = (
{
closed = 1;
nodes = (
(384,0,l),
(437,265,l),
(493,0,l),
(732,0,l),
(836,501,l),
(672,501,l),
(615,168,l),
(545,501,l),
(373,501,l),
(304,176,l),
(247,501,l),
(43,501,l),
(153,0,l)
);
}
);
};
layerId = UUID0;
shapes = (
{
closed = 1;
nodes = (
(374,0,l),
(437,255,l),
(503,0,l),
(742,0,l),
(863,501,l),
(692,501,l),
(625,178,l),
(545,501,l),
(373,501,l),
(294,186,l),
(227,501,l),
(13,501,l),
(143,0,l)
);
}
);
width = 871;
}
);
unicode = 119;
},
{
color = 3;
glyphname = x;
lastChange = "2023-02-01 10:33:46 +0000";
layers = (
{
anchors = (
{
name = bottom;
pos = (279,0);
},
{
name = top;
pos = (279,501);
}
);
background = {
anchors = (
{
name = bottom;
pos = (279,0);
},
{
name = top;
pos = (279,501);
}
);
shapes = (
{
closed = 1;
nodes = (
(214,0,l),
(280,128,l),
(348,0,l),
(553,0,l),
(403,260,l),
(543,501,l),
(338,501,l),
(280,383,l),
(224,501,l),
(13,501,l),
(155,260,l),
(3,0,l)
);
}
);
};
layerId = UUID0;
shapes = (
{
closed = 1;
nodes = (
(214,0,l),
(280,128,l),
(348,0,l),
(553,0,l),
(403,260,l),
(543,501,l),
(338,501,l),
(280,383,l),
(224,501,l),
(13,501,l),
(155,260,l),
(3,0,l)
);
}
);
width = 551;
}
);
unicode = 120;
},
{
color = 4;
glyphname = y;
kernLeft = u;
kernRight = y;
lastChange = "2023-02-01 17:41:58 +0000";
layers = (
{
anchors = (
{
name = bottom;
pos = (683,0);
},
{
name = top;
pos = (333,501);
}
);
background = {
shapes = (
{
closed = 1;
nodes = (
(506,-195,o),
(616,-96,o),
(616,117,cs),
(616,501,l),
(405,501,l),
(405,287,ls),
(405,217,o),
(371,171,o),
(319,171,cs),
(278,171,o),
(256,200,o),
(256,260,cs),
(256,501,l),
(45,501,l),
(45,271,ls),
(45,107,o),
(116,13,o),
(240,13,cs),
(320,13,o),
(380,48,o),
(412,129,c),
(412,72,ls),
(412,-5,o),
(375,-42,o),
(296,-42,cs),
(269,-42,o),
(240,-38,o),
(216,-33,c),
(200,-178,l),
(225,-188,o),
(272,-195,o),
(323,-195,cs)
);
}
);
};
layerId = UUID0;
shapes = (
{
closed = 1;
nodes = (
(506,-195,o),
(616,-96,o),
(616,117,cs),
(616,501,l),
(405,501,l),
(405,287,ls),
(405,217,o),
(371,171,o),
(319,171,cs),
(278,171,o),
(256,200,o),
(256,260,cs),
(256,501,l),
(45,501,l),
(45,271,ls),
(45,107,o),
(116,13,o),
(240,13,cs),
(320,13,o),
(380,48,o),
(412,129,c),
(412,72,ls),
(412,-5,o),
(375,-42,o),
(286,-42,cs),
(259,-42,o),
(230,-38,o),
(206,-33,c),
(190,-178,l),
(215,-188,o),
(262,-195,o),
(313,-195,cs)
);
}
);
width = 666;
}
);
unicode = 121;
},
{
glyphname = ydotbelow;
kernLeft = u;
kernRight = y;
lastChange = "2023-02-01 11:02:02 +0000";
layers = (
{
background = {
shapes = (
{
closed = 1;
nodes = (
(509,-229,o),
(617,-86,o),
(617,127,cs),
(617,501,l),
(406,501,l),
(406,246,ls),
(406,182,o),
(373,141,o),
(329,141,cs),
(284,141,o),
(258,176,o),
(258,220,cs),
(258,501,l),
(48,501,l),
(48,251,ls),
(48,90,o),
(125,-7,o),
(254,-7,cs),
(338,-7,o),
(389,32,o),
(421,93,c),
(419,-28,o),
(369,-76,o),
(299,-76,cs),
(282,-76,o),
(253,-74,o),
(227,-70,c),
(211,-218,l),
(247,-226,o),
(285,-229,o),
(316,-229,cs)
);
},
{
closed = 1;
nodes = (
(661,-244,o),
(699,-214,o),
(699,-169,cs),
(699,-129,o),
(664,-95,o),
(622,-95,cs),
(583,-95,o),
(546,-126,o),
(546,-169,cs),
(546,-211,o),
(580,-244,o),
(622,-244,cs)
);
}
);
};
layerId = UUID0;
shapes = (
{
ref = y;
},
{
pos = (383,0);
ref = dotbelowcomb;
}
);
width = 666;
}
);
unicode = 7925;
},
{
color = 3;
glyphname = z;
kernLeft = z;
kernRight = z;
lastChange = "2023-02-01 10:33:46 +0000";
layers = (
{
anchors = (
{
name = bottom;
pos = (244,0);
},
{
name = top;
pos = (245,501);
}
);
background = {
anchors = (
{
name = bottom;
pos = (244,0);
},
{
name = top;
pos = (245,501);
}
);
shapes = (
{
closed = 1;
nodes = (
(457,0,l),
(457,128,l),
(286,128,l),
(453,393,l),
(453,501,l),
(37,501,l),
(37,373,l),
(206,373,l),
(30,107,l),
(30,0,l)
);
}
);
};
layerId = UUID0;
shapes = (
{
closed = 1;
nodes = (
(457,0,l),
(457,138,l),
(281,138,l),
(453,393,l),
(453,501,l),
(37,501,l),
(37,363,l),
(211,363,l),
(30,107,l),
(30,0,l)
);
}
);
width = 488;
}
);
unicode = 122;
},
{
color = 4;
glyphname = iacute_j.loclNLD;
kernLeft = u;
kernRight = y;
lastChange = "2023-02-01 18:05:31 +0000";
layers = (
{
background = {
shapes = (
{
closed = 1;
nodes = (
(412,718,l),
(306,888,l),
(48,683,l),
(109,576,l)
);
},
{
closed = 1;
nodes = (
(770,709,l),
(669,888,l),
(406,683,l),
(467,576,l)
);
},
{
ref = y;
}
);
};
layerId = UUID0;
shapes = (
{
closed = 1;
nodes = (
(506,-195,o),
(616,-96,o),
(616,117,cs),
(616,501,l),
(405,501,l),
(405,287,ls),
(405,217,o),
(371,171,o),
(319,171,cs),
(278,171,o),
(256,200,o),
(256,260,cs),
(256,501,l),
(45,501,l),
(45,271,ls),
(45,107,o),
(116,13,o),
(240,13,cs),
(320,13,o),
(380,48,o),
(412,129,c),
(412,72,ls),
(412,-5,o),
(375,-42,o),
(296,-42,cs),
(269,-42,o),
(240,-38,o),
(216,-33,c),
(200,-178,l),
(225,-188,o),
(272,-195,o),
(323,-195,cs)
);
},
{
closed = 1;
nodes = (
(409,719,l),
(316,868,l),
(45,663,l),
(111,556,l)
);
},
{
closed = 1;
nodes = (
(769,719,l),
(676,868,l),
(405,663,l),
(471,556,l)
);
}
);
width = 666;
}
);
metricLeft = y;
metricWidth = y;
},
{
color = 4;
glyphname = fi;
kernLeft = f;
kernRight = i;
lastChange = "2023-02-01 18:05:46 +0000";
layers = (
{
anchors = (
{
name = caret_1;
pos = (360,0);
}
);
background = {
shapes = (
{
closed = 1;
nodes = (
(597,576,o),
(653,617,o),
(653,678,cs),
(653,732,o),
(601,779,o),
(540,779,cs),
(483,779,o),
(428,737,o),
(428,678,cs),
(428,621,o),
(478,576,o),
(540,576,cs)
);
},
{
closed = 1;
nodes = (
(718,158,o),
(704,154,o),
(691,154,cs),
(665,154,o),
(645,171,o),
(645,202,cs),
(645,501,l),
(260,501,l),
(249,523,o),
(243,543,o),
(243,561,cs),
(243,598,o),
(268,617,o),
(305,617,cs),
(331,617,o),
(364,612,o),
(395,594,c),
(409,729,l),
(375,755,o),
(327,768,o),
(276,768,cs),
(150,768,o),
(63,693,o),
(63,543,cs),
(63,501,l),
(0,501,l),
(0,377,l),
(63,377,l),
(63,0,l),
(274,0,l),
(274,377,l),
(434,377,l),
(434,173,ls),
(434,71,o),
(488,-8,o),
(622,-8,cs),
(660,-8,o),
(713,4,o),
(743,27,c),
(732,166,l)
);
}
);
};
layerId = UUID0;
shapes = (
{
closed = 1;
nodes = (
(597,576,o),
(653,617,o),
(653,678,cs),
(653,732,o),
(601,779,o),
(540,779,cs),
(483,779,o),
(428,737,o),
(428,678,cs),
(428,621,o),
(478,576,o),
(540,576,cs)
);
},
{
closed = 1;
nodes = (
(718,158,o),
(704,154,o),
(691,154,cs),
(665,154,o),
(645,171,o),
(645,202,cs),
(645,501,l),
(250,501,l),
(245,510,o),
(243,518,o),
(243,527,cs),
(243,554,o),
(267,568,o),
(310,568,cs),
(336,568,o),
(364,565,o),
(394,558,c),
(401,685,l),
(368,699,o),
(320,707,o),
(276,707,cs),
(150,707,o),
(63,639,o),
(63,530,cs),
(63,501,l),
(0,501,l),
(0,377,l),
(63,377,l),
(63,0,l),
(274,0,l),
(274,377,l),
(434,377,l),
(434,173,ls),
(434,71,o),
(488,-8,o),
(622,-8,cs),
(660,-8,o),
(713,4,o),
(743,27,c),
(732,166,l)
);
}
);
width = 744;
}
);
unicode = 64257;
},
{
color = 4;
glyphname = fl;
kernLeft = f;
kernRight = l;
lastChange = "2023-02-01 18:05:49 +0000";
layers = (
{
anchors = (
{
name = caret_1;
pos = (360,0);
}
);
background = {
shapes = (
{
closed = 1;
nodes = (
(274,0,l),
(274,377,l),
(391,377,l),
(391,501,l),
(250,501,l),
(245,510,o),
(243,518,o),
(243,527,cs),
(243,554,o),
(267,568,o),
(310,568,cs),
(336,568,o),
(364,565,o),
(394,558,c),
(408,685,l),
(375,699,o),
(327,707,o),
(276,707,cs),
(150,707,o),
(63,639,o),
(63,530,cs),
(63,501,l),
(0,501,l),
(0,377,l),
(63,377,l),
(63,0,l)
);
}
);
};
layerId = UUID0;
shapes = (
{
closed = 1;
nodes = (
(731,158,o),
(715,154,o),
(699,154,cs),
(667,154,o),
(645,171,o),
(645,202,cs),
(645,665,l),
(568,694,o),
(476,707,o),
(385,707,cs),
(160,707,o),
(73,593,o),
(63,501,c),
(0,501,l),
(0,377,l),
(63,377,l),
(63,0,l),
(274,0,l),
(274,377,l),
(371,377,l),
(371,501,l),
(274,501,l),
(280,547,o),
(310,572,o),
(365,572,cs),
(384,572,o),
(413,568,o),
(434,560,c),
(434,173,ls),
(434,71,o),
(491,-8,o),
(634,-8,cs),
(674,-8,o),
(730,4,o),
(762,27,c),
(747,166,l)
);
}
);
width = 762;
}
);
unicode = 64258;
},
{
color = 3;
glyphname = ordfeminine;
kernLeft = ord;
kernRight = ord;
lastChange = "2023-02-01 10:33:46 +0000";
layers = (
{
background = {
shapes = (
{
closed = 1;
nodes = (
(243,336,o),
(279,354,o),
(302,407,c),
(302,342,l),
(454,342,l),
(454,698,l),
(302,698,l),
(302,616,l),
(281,683,o),
(232,698,o),
(187,698,cs),
(88,698,o),
(15,623,o),
(15,519,cs),
(15,415,o),
(87,336,o),
(187,336,cs)
);
},
{
closed = 1;
nodes = (
(204,452,o),
(173,477,o),
(173,517,cs),
(173,557,o),
(201,582,o),
(238,582,cs),
(272,582,o),
(300,557,o),
(300,517,cs),
(300,477,o),
(274,452,o),
(238,452,cs)
);
}
);
};
layerId = UUID0;
shapes = (
{
closed = 1;
nodes = (
(243,336,o),
(279,354,o),
(302,407,c),
(302,342,l),
(454,342,l),
(454,688,l),
(302,688,l),
(302,616,l),
(281,683,o),
(232,698,o),
(187,698,cs),
(88,698,o),
(15,623,o),
(15,519,cs),
(15,415,o),
(87,336,o),
(187,336,cs)
);
},
{
closed = 1;
nodes = (
(204,452,o),
(173,477,o),
(173,517,cs),
(173,557,o),
(201,582,o),
(238,582,cs),
(272,582,o),
(300,557,o),
(300,517,cs),
(300,477,o),
(274,452,o),
(238,452,cs)
);
}
);
width = 484;
}
);
unicode = 170;
},
{
color = 3;
glyphname = ordmasculine;
kernLeft = ord;
kernRight = ord;
lastChange = "2023-02-02 12:46:28 +0000";
layers = (
{
background = {
shapes = (
{
closed = 1;
nodes = (
(312,336,o),
(418,389,o),
(418,518,cs),
(418,623,o),
(336,698,o),
(217,698,cs),
(109,698,o),
(15,635,o),
(15,518,cs),
(15,410,o),
(96,336,o),
(216,336,cs)
);
},
{
closed = 1;
nodes = (
(187,451,o),
(160,474,o),
(160,518,cs),
(160,562,o),
(187,584,o),
(218,584,cs),
(249,584,o),
(275,562,o),
(275,518,cs),
(275,474,o),
(249,451,o),
(218,451,cs)
);
}
);
};
layerId = UUID0;
shapes = (
{
closed = 1;
nodes = (
(312,336,o),
(418,389,o),
(418,518,cs),
(418,623,o),
(336,698,o),
(217,698,cs),
(109,698,o),
(15,635,o),
(15,518,cs),
(15,410,o),
(96,336,o),
(216,336,cs)
);
},
{
closed = 1;
nodes = (
(187,451,o),
(160,474,o),
(160,518,cs),
(160,562,o),
(187,584,o),
(218,584,cs),
(249,584,o),
(275,562,o),
(275,518,cs),
(275,474,o),
(249,451,o),
(218,451,cs)
);
}
);
width = 433;
}
);
unicode = 186;
},
{
color = 3;
glyphname = Omega;
lastChange = "2019-06-16 19:47:07 +0000";
layers = (
{
background = {
shapes = (
{
closed = 1;
nodes = (
(349,0,l),
(349,131,l),
(267,206,o),
(255,275,o),
(255,355,cs),
(255,470,o),
(315,529,o),
(387,529,cs),
(459,529,o),
(519,470,o),
(519,355,cs),
(519,275,o),
(507,206,o),
(425,131,c),
(425,0,l),
(754,0,l),
(754,146,l),
(609,146,l),
(713,212,o),
(745,305,o),
(745,395,cs),
(745,552,o),
(617,704,o),
(387,704,cs),
(157,704,o),
(29,552,o),
(29,395,cs),
(29,305,o),
(61,212,o),
(165,146,c),
(20,146,l),
(20,0,l)
);
}
);
};
layerId = UUID0;
shapes = (
{
closed = 1;
nodes = (
(349,0,l),
(349,131,l),
(267,206,o),
(255,275,o),
(255,355,cs),
(255,470,o),
(315,529,o),
(387,529,cs),
(459,529,o),
(519,470,o),
(519,355,cs),
(519,275,o),
(507,206,o),
(425,131,c),
(425,0,l),
(754,0,l),
(754,146,l),
(609,146,l),
(713,212,o),
(745,305,o),
(745,395,cs),
(745,552,o),
(617,704,o),
(387,704,cs),
(157,704,o),
(29,552,o),
(29,395,cs),
(29,305,o),
(61,212,o),
(165,146,c),
(20,146,l),
(20,0,l)
);
}
);
width = 774;
}
);
unicode = 937;
},
{
color = 3;
glyphname = mu;
lastChange = "2023-02-01 10:33:46 +0000";
layers = (
{
background = {
shapes = (
{
closed = 1;
nodes = (
(230,-132,l),
(230,12,l),
(268,-6,o),
(306,-16,o),
(342,-16,cs),
(465,-16,o),
(560,82,o),
(560,215,cs),
(560,501,l),
(359,501,l),
(359,208,ls),
(359,165,o),
(332,148,o),
(298,148,cs),
(276,148,o),
(256,155,o),
(236,168,c),
(236,501,l),
(30,501,l),
(30,-146,l)
);
}
);
};
layerId = UUID0;
shapes = (
{
closed = 1;
nodes = (
(50,-189,l),
(258,-158,l),
(258,79,l),
(287,34,o),
(344,-7,o),
(424,-7,cs),
(548,-7,o),
(621,87,o),
(621,251,cs),
(621,501,l),
(410,501,l),
(410,240,ls),
(410,180,o),
(388,151,o),
(347,151,cs),
(295,151,o),
(261,187,o),
(261,267,cs),
(261,501,l),
(50,501,l)
);
}
);
width = 666;
}
);
unicode = 956;
},
{
color = 3;
glyphname = pi;
lastChange = "2023-02-01 10:33:46 +0000";
layers = (
{
background = {
shapes = (
{
closed = 1;
nodes = (
(242,-16,o),
(309,60,o),
(309,185,cs),
(309,316,l),
(423,316,l),
(423,1,l),
(634,1,l),
(634,501,l),
(97,501,l),
(97,194,ls),
(97,163,o),
(78,146,o),
(52,146,cs),
(39,146,o),
(25,150,o),
(11,158,c),
(1,19,l),
(40,-4,o),
(84,-16,o),
(131,-16,cs)
);
}
);
};
layerId = UUID0;
shapes = (
{
closed = 1;
nodes = (
(242,-16,o),
(309,43,o),
(309,168,cs),
(309,316,l),
(423,316,l),
(423,1,l),
(634,1,l),
(634,501,l),
(97,501,l),
(97,191,ls),
(97,160,o),
(80,146,o),
(52,146,cs),
(39,146,o),
(25,150,o),
(11,158,c),
(1,19,l),
(40,-4,o),
(84,-16,o),
(131,-16,cs)
);
}
);
width = 684;
}
);
unicode = 960;
},
{
color = 4;
glyphname = zero;
lastChange = "2023-02-01 12:47:41 +0000";
layers = (
{
background = {
shapes = (
{
closed = 1;
nodes = (
(522,-8,o),
(653,137,o),
(653,338,cs),
(653,537,o),
(520,683,o),
(340,683,cs),
(158,683,o),
(26,538,o),
(26,338,cs),
(26,136,o),
(157,-8,o),
(340,-8,cs)
);
},
{
closed = 1;
nodes = (
(274,158,o),
(232,228,o),
(232,338,cs),
(232,450,o),
(272,517,o),
(340,517,cs),
(406,517,o),
(447,448,o),
(447,338,cs),
(447,225,o),
(407,158,o),
(340,158,cs)
);
}
);
};
layerId = UUID0;
shapes = (
{
closed = 1;
nodes = (
(522,-8,o),
(653,141,o),
(653,348,cs),
(653,553,o),
(520,703,o),
(340,703,cs),
(158,703,o),
(26,554,o),
(26,348,cs),
(26,140,o),
(157,-8,o),
(340,-8,cs)
);
},
{
closed = 1;
nodes = (
(274,163,o),
(232,235,o),
(232,348,cs),
(232,463,o),
(272,532,o),
(340,532,cs),
(406,532,o),
(447,461,o),
(447,348,cs),
(447,232,o),
(407,163,o),
(340,163,cs)
);
}
);
width = 679;
}
);
unicode = 48;
},
{
color = 4;
glyphname = one;
lastChange = "2023-02-02 12:44:40 +0000";
layers = (
{
background = {
shapes = (
{
closed = 1;
nodes = (
(431,0,l),
(431,147,l),
(347,147,l),
(347,669,l),
(242,669,l),
(176,625,o),
(105,604,o),
(48,604,c),
(48,474,l),
(132,480,l),
(132,147,l),
(48,147,l),
(48,0,l)
);
}
);
};
layerId = UUID0;
shapes = (
{
closed = 1;
nodes = (
(431,0,l),
(431,146,l),
(347,146,l),
(347,688,l),
(242,688,l),
(176,644,o),
(105,623,o),
(48,623,c),
(48,492,l),
(132,492,l),
(132,146,l),
(48,146,l),
(48,0,l)
);
}
);
width = 444;
}
);
unicode = 49;
},
{
color = 4;
glyphname = two;
lastChange = "2023-02-01 12:48:48 +0000";
layers = (
{
background = {
shapes = (
{
closed = 1;
nodes = (
(477,0,l),
(477,146,l),
(236,146,l),
(398,240,o),
(481,342,o),
(481,465,cs),
(481,586,o),
(393,676,o),
(250,676,cs),
(168,676,o),
(100,656,o),
(29,620,c),
(78,471,l),
(119,495,o),
(164,510,o),
(207,510,cs),
(250,510,o),
(279,488,o),
(279,444,cs),
(279,376,o),
(190,275,o),
(41,141,c),
(41,0,l)
);
}
);
};
layerId = UUID0;
shapes = (
{
closed = 1;
nodes = (
(477,0,l),
(477,146,l),
(236,146,l),
(398,245,o),
(481,352,o),
(481,481,cs),
(481,608,o),
(403,703,o),
(240,703,cs),
(168,703,o),
(90,682,o),
(29,644,c),
(78,488,l),
(119,515,o),
(164,529,o),
(207,529,cs),
(250,529,o),
(279,506,o),
(279,459,cs),
(279,388,o),
(190,282,o),
(41,141,c),
(41,0,l)
);
}
);
width = 519;
}
);
unicode = 50;
},
{
color = 4;
glyphname = three;
lastChange = "2023-02-01 12:49:33 +0000";
layers = (
{
background = {
shapes = (
{
closed = 1;
nodes = (
(387,-11,o),
(490,69,o),
(490,199,cs),
(490,261,o),
(453,325,o),
(366,355,c),
(425,393,o),
(460,449,o),
(460,513,cs),
(460,614,o),
(377,677,o),
(243,677,cs),
(162,677,o),
(87,659,o),
(22,623,c),
(61,487,l),
(107,510,o),
(156,521,o),
(212,521,cs),
(260,521,o),
(289,504,o),
(289,476,cs),
(289,431,o),
(228,407,o),
(111,407,c),
(111,283,l),
(242,283,o),
(293,261,o),
(293,207,cs),
(293,164,o),
(265,143,o),
(211,143,cs),
(167,143,o),
(118,154,o),
(64,175,c),
(31,28,l),
(90,3,o),
(162,-11,o),
(232,-11,cs)
);
}
);
};
layerId = UUID0;
shapes = (
{
closed = 1;
nodes = (
(387,-11,o),
(490,72,o),
(490,207,cs),
(490,271,o),
(453,338,o),
(366,369,c),
(426,408,o),
(460,466,o),
(460,533,cs),
(460,638,o),
(377,703,o),
(243,703,cs),
(162,703,o),
(87,684,o),
(22,647,c),
(61,506,l),
(107,530,o),
(156,541,o),
(212,541,cs),
(260,541,o),
(289,523,o),
(289,494,cs),
(289,448,o),
(228,423,o),
(111,423,c),
(111,286,l),
(242,286,o),
(293,264,o),
(293,211,cs),
(293,170,o),
(265,149,o),
(211,149,cs),
(167,149,o),
(118,160,o),
(64,182,c),
(31,29,l),
(90,4,o),
(162,-11,o),
(232,-11,cs)
);
}
);
width = 515;
}
);
unicode = 51;
},
{
color = 4;
glyphname = four;
lastChange = "2023-02-01 13:01:04 +0000";
layers = (
{
background = {
shapes = (
{
closed = 1;
nodes = (
(518,0,l),
(518,155,l),
(614,155,l),
(614,301,l),
(518,301,l),
(518,669,l),
(294,669,l),
(28,303,l),
(28,155,l),
(305,155,l),
(305,0,l)
);
},
{
closed = 1;
nodes = (
(305,499,l),
(305,301,l),
(175,301,l)
);
}
);
};
layerId = UUID0;
shapes = (
{
closed = 1;
nodes = (
(518,0,l),
(518,162,l),
(614,162,l),
(614,308,l),
(518,308,l),
(518,688,l),
(294,688,l),
(28,310,l),
(28,162,l),
(305,162,l),
(305,0,l)
);
},
{
closed = 1;
nodes = (
(305,518,l),
(305,308,l),
(175,308,l)
);
}
);
width = 626;
}
);
unicode = 52;
},
{
color = 4;
glyphname = five;
lastChange = "2023-02-01 13:01:01 +0000";
layers = (
{
background = {
shapes = (
{
closed = 1;
nodes = (
(397,-11,o),
(500,72,o),
(500,207,cs),
(500,271,o),
(463,338,o),
(376,369,c),
(436,408,o),
(470,466,o),
(470,533,cs),
(470,638,o),
(387,703,o),
(253,703,cs),
(172,703,o),
(97,684,o),
(32,647,c),
(71,506,l),
(117,530,o),
(166,541,o),
(222,541,cs),
(270,541,o),
(299,523,o),
(299,494,cs),
(299,448,o),
(238,423,o),
(121,423,c),
(121,286,l),
(252,286,o),
(303,264,o),
(303,211,cs),
(303,170,o),
(275,149,o),
(221,149,cs),
(177,149,o),
(128,160,o),
(74,182,c),
(41,29,l),
(100,4,o),
(172,-11,o),
(242,-11,cs)
);
}
);
};
layerId = UUID0;
shapes = (
{
closed = 1;
nodes = (
(405,-13,o),
(520,68,o),
(520,243,cs),
(520,351,o),
(462,449,o),
(327,449,cs),
(276,449,o),
(213,427,o),
(181,367,c),
(214,351,l),
(232,538,l),
(460,538,l),
(475,688,l),
(82,688,l),
(49,298,l),
(157,252,l),
(185,280,o),
(216,293,o),
(251,293,cs),
(294,293,o),
(323,268,o),
(323,225,cs),
(323,177,o),
(291,148,o),
(219,148,cs),
(174,148,o),
(118,160,o),
(74,181,c),
(42,28,l),
(108,-2,o),
(171,-13,o),
(232,-13,cs)
);
}
);
width = 547;
}
);
unicode = 53;
},
{
color = 4;
glyphname = six;
lastChange = "2023-02-01 13:02:56 +0000";
layers = (
{
background = {
shapes = (
{
closed = 1;
nodes = (
(471,-7,o),
(588,92,o),
(588,216,cs),
(588,339,o),
(509,419,o),
(388,419,cs),
(319,419,o),
(260,394,o),
(224,349,c),
(235,470,o),
(279,524,o),
(366,524,cs),
(414,524,o),
(458,511,o),
(510,481,c),
(557,612,l),
(490,656,o),
(417,679,o),
(343,679,cs),
(156,679,o),
(26,526,o),
(26,316,cs),
(26,119,o),
(144,-7,o),
(325,-7,cs)
);
},
{
closed = 1;
nodes = (
(265,136,o),
(231,183,o),
(228,271,c),
(254,282,o),
(285,289,o),
(312,289,cs),
(369,289,o),
(403,261,o),
(403,216,cs),
(403,169,o),
(371,136,o),
(324,136,cs)
);
}
);
};
layerId = UUID0;
shapes = (
{
closed = 1;
nodes = (
(26,113,o),
(134,-7,o),
(317,-7,cs),
(476,-7,o),
(584,90,o),
(584,233,cs),
(584,359,o),
(501,441,o),
(374,441,cs),
(313,441,o),
(255,406,o),
(226,353,c),
(236,474,o),
(295,543,o),
(391,543,cs),
(430,543,o),
(472,531,o),
(513,510,c),
(554,654,l),
(507,686,o),
(447,703,o),
(373,703,cs),
(167,703,o),
(26,546,o),
(26,317,cs)
);
},
{
closed = 1;
nodes = (
(252,286,o),
(284,295,o),
(318,295,cs),
(370,295,o),
(403,265,o),
(403,220,cs),
(403,170,o),
(369,137,o),
(318,137,cs),
(263,137,o),
(233,181,o),
(226,269,c)
);
}
);
width = 593;
}
);
unicode = 54;
},
{
color = 4;
glyphname = seven;
lastChange = "2023-02-02 12:44:47 +0000";
layers = (
{
background = {
shapes = (
{
closed = 1;
nodes = (
(485,547,l),
(485,669,l),
(26,669,l),
(26,524,l),
(265,524,l),
(51,60,l),
(233,-17,l)
);
}
);
};
layerId = UUID0;
shapes = (
{
closed = 1;
nodes = (
(494,566,l),
(494,688,l),
(26,688,l),
(26,542,l),
(274,542,l),
(51,60,l),
(233,-17,l)
);
}
);
width = 513;
}
);
unicode = 55;
},
{
color = 4;
glyphname = eight;
lastChange = "2023-02-01 13:03:34 +0000";
layers = (
{
background = {
shapes = (
{
closed = 1;
nodes = (
(1177,-13,o),
(1283,66,o),
(1283,198,cs),
(1283,283,o),
(1241,342,o),
(1149,390,c),
(1207,420,o),
(1232,461,o),
(1232,523,cs),
(1232,614,o),
(1140,678,o),
(1010,678,cs),
(866,678,o),
(767,603,o),
(767,494,cs),
(767,430,o),
(788,387,o),
(843,342,c),
(759,309,o),
(717,256,o),
(717,182,cs),
(717,63,o),
(828,-13,o),
(1001,-13,cs)
);
},
{
closed = 1;
nodes = (
(951,125,o),
(917,154,o),
(917,198,cs),
(917,232,o),
(927,257,o),
(949,280,c),
(995,262,ls),
(1061,236,o),
(1087,212,o),
(1087,178,cs),
(1087,146,o),
(1053,125,o),
(1002,125,cs)
);
},
{
closed = 1;
nodes = (
(1010,439,ls),
(948,463,o),
(924,485,o),
(924,518,cs),
(924,552,o),
(951,570,o),
(1001,570,cs),
(1049,570,o),
(1075,544,o),
(1075,498,cs),
(1075,469,o),
(1065,446,o),
(1044,426,c)
);
},
{
closed = 1;
nodes = (
(22,60,o),
(133,-13,o),
(301,-13,cs),
(452,-13,o),
(578,69,o),
(578,206,cs),
(578,313,o),
(509,367,o),
(431,403,c),
(502,434,o),
(532,477,o),
(532,542,cs),
(532,637,o),
(440,703,o),
(310,703,cs),
(166,703,o),
(61,625,o),
(61,502,cs),
(61,415,o),
(103,363,o),
(157,329,c),
(68,297,o),
(22,245,o),
(22,175,cs)
);
},
{
closed = 1;
nodes = (
(212,236,o),
(222,261,o),
(245,286,c),
(321,257,o),
(392,239,o),
(392,190,cs),
(392,146,o),
(358,118,o),
(302,118,cs),
(246,118,o),
(212,154,o),
(212,206,cs)
);
},
{
closed = 1;
nodes = (
(224,567,o),
(252,591,o),
(299,591,cs),
(349,591,o),
(375,564,o),
(375,516,cs),
(375,485,o),
(365,461,o),
(342,440,c),
(277,465,o),
(224,488,o),
(224,534,cs)
);
}
);
};
layerId = UUID0;
shapes = (
{
closed = 1;
nodes = (
(22,60,o),
(133,-13,o),
(301,-13,cs),
(452,-13,o),
(578,69,o),
(578,206,cs),
(578,313,o),
(509,367,o),
(431,403,c),
(502,434,o),
(532,477,o),
(532,542,cs),
(532,637,o),
(440,703,o),
(310,703,cs),
(166,703,o),
(61,625,o),
(61,502,cs),
(61,415,o),
(103,363,o),
(157,329,c),
(68,297,o),
(22,245,o),
(22,175,cs)
);
},
{
closed = 1;
nodes = (
(212,236,o),
(222,261,o),
(245,286,c),
(351,250,o),
(392,229,o),
(392,190,cs),
(392,146,o),
(358,118,o),
(302,118,cs),
(246,118,o),
(212,154,o),
(212,206,cs)
);
},
{
closed = 1;
nodes = (
(224,567,o),
(252,591,o),
(299,591,cs),
(349,591,o),
(375,564,o),
(375,516,cs),
(375,485,o),
(365,461,o),
(342,440,c),
(277,465,o),
(224,488,o),
(224,534,cs)
);
}
);
width = 600;
}
);
unicode = 56;
},
{
color = 4;
glyphname = nine;
lastChange = "2023-02-01 13:03:42 +0000";
layers = (
{
background = {
shapes = (
{
closed = 1;
nodes = (
(432,-7,o),
(562,146,o),
(562,356,cs),
(562,553,o),
(444,679,o),
(263,679,cs),
(117,679,o),
(5,580,o),
(5,456,cs),
(5,333,o),
(79,253,o),
(210,253,cs),
(279,253,o),
(328,278,o),
(364,323,c),
(353,202,o),
(309,148,o),
(222,148,cs),
(174,148,o),
(130,161,o),
(78,191,c),
(31,60,l),
(98,16,o),
(171,-7,o),
(245,-7,cs)
);
},
{
closed = 1;
nodes = (
(219,378,o),
(185,406,o),
(185,454,cs),
(185,503,o),
(217,536,o),
(264,536,cs),
(323,536,o),
(357,489,o),
(360,396,c),
(334,385,o),
(303,378,o),
(276,378,cs)
);
}
);
};
layerId = UUID0;
shapes = (
{
closed = 1;
nodes = (
(9,339,o),
(90,255,o),
(219,255,cs),
(270,255,o),
(334,281,o),
(367,343,c),
(357,224,o),
(299,153,o),
(202,153,cs),
(161,153,o),
(119,165,o),
(80,186,c),
(39,42,l),
(87,7,o),
(149,-7,o),
(220,-7,cs),
(428,-7,o),
(567,152,o),
(567,379,cs),
(567,572,o),
(470,703,o),
(276,703,cs),
(112,703,o),
(9,602,o),
(9,463,cs)
);
},
{
closed = 1;
nodes = (
(190,525,o),
(223,559,o),
(275,559,cs),
(331,559,o),
(360,514,o),
(367,427,c),
(340,409,o),
(307,401,o),
(275,401,cs),
(224,401,o),
(190,430,o),
(190,476,cs)
);
}
);
width = 593;
}
);
metricLeft = "=|six";
unicode = 57;
},
{
color = 4;
glyphname = zero.lf;
lastChange = "2023-02-01 13:47:35 +0000";
layers = (
{
background = {
shapes = (
{
closed = 1;
nodes = (
(522,-8,o),
(653,137,o),
(653,338,cs),
(653,537,o),
(520,683,o),
(340,683,cs),
(158,683,o),
(26,538,o),
(26,338,cs),
(26,136,o),
(157,-8,o),
(340,-8,cs)
);
},
{
closed = 1;
nodes = (
(274,158,o),
(232,228,o),
(232,338,cs),
(232,450,o),
(272,517,o),
(340,517,cs),
(406,517,o),
(447,448,o),
(447,338,cs),
(447,225,o),
(407,158,o),
(340,158,cs)
);
}
);
};
layerId = UUID0;
shapes = (
{
closed = 1;
nodes = (
(522,-8,o),
(653,141,o),
(653,348,cs),
(653,553,o),
(520,703,o),
(340,703,cs),
(158,703,o),
(26,554,o),
(26,348,cs),
(26,140,o),
(157,-8,o),
(340,-8,cs)
);
},
{
closed = 1;
nodes = (
(274,163,o),
(232,235,o),
(232,348,cs),
(232,463,o),
(272,532,o),
(340,532,cs),
(406,532,o),
(447,461,o),
(447,348,cs),
(447,232,o),
(407,163,o),
(340,163,cs)
);
}
);
width = 679;
}
);
},
{
color = 4;
glyphname = one.lf;
lastChange = "2023-02-01 13:47:35 +0000";
layers = (
{
background = {
shapes = (
{
closed = 1;
nodes = (
(431,0,l),
(431,147,l),
(347,147,l),
(347,669,l),
(242,669,l),
(176,625,o),
(105,604,o),
(48,604,c),
(48,474,l),
(132,480,l),
(132,147,l),
(48,147,l),
(48,0,l)
);
}
);
};
layerId = UUID0;
shapes = (
{
closed = 1;
nodes = (
(431,0,l),
(431,146,l),
(347,146,l),
(347,688,l),
(242,688,l),
(176,644,o),
(105,623,o),
(48,623,c),
(48,492,l),
(132,492,l),
(132,146,l),
(48,146,l),
(48,0,l)
);
}
);
width = 444;
}
);
},
{
color = 4;
glyphname = two.lf;
lastChange = "2023-02-01 13:47:35 +0000";
layers = (
{
background = {
shapes = (
{
closed = 1;
nodes = (
(477,0,l),
(477,146,l),
(236,146,l),
(398,240,o),
(481,342,o),
(481,465,cs),
(481,586,o),
(393,676,o),
(250,676,cs),
(168,676,o),
(100,656,o),
(29,620,c),
(78,471,l),
(119,495,o),
(164,510,o),
(207,510,cs),
(250,510,o),
(279,488,o),
(279,444,cs),
(279,376,o),
(190,275,o),
(41,141,c),
(41,0,l)
);
}
);
};
layerId = UUID0;
shapes = (
{
closed = 1;
nodes = (
(477,0,l),
(477,146,l),
(236,146,l),
(398,245,o),
(481,352,o),
(481,481,cs),
(481,608,o),
(403,703,o),
(240,703,cs),
(168,703,o),
(90,682,o),
(29,644,c),
(78,488,l),
(119,515,o),
(164,529,o),
(207,529,cs),
(250,529,o),
(279,506,o),
(279,459,cs),
(279,388,o),
(190,282,o),
(41,141,c),
(41,0,l)
);
}
);
width = 519;
}
);
},
{
color = 4;
glyphname = three.lf;
lastChange = "2023-02-01 13:47:35 +0000";
layers = (
{
background = {
shapes = (
{
closed = 1;
nodes = (
(387,-11,o),
(490,69,o),
(490,199,cs),
(490,261,o),
(453,325,o),
(366,355,c),
(425,393,o),
(460,449,o),
(460,513,cs),
(460,614,o),
(377,677,o),
(243,677,cs),
(162,677,o),
(87,659,o),
(22,623,c),
(61,487,l),
(107,510,o),
(156,521,o),
(212,521,cs),
(260,521,o),
(289,504,o),
(289,476,cs),
(289,431,o),
(228,407,o),
(111,407,c),
(111,283,l),
(242,283,o),
(293,261,o),
(293,207,cs),
(293,164,o),
(265,143,o),
(211,143,cs),
(167,143,o),
(118,154,o),
(64,175,c),
(31,28,l),
(90,3,o),
(162,-11,o),
(232,-11,cs)
);
}
);
};
layerId = UUID0;
shapes = (
{
closed = 1;
nodes = (
(387,-11,o),
(490,72,o),
(490,207,cs),
(490,271,o),
(453,338,o),
(366,369,c),
(426,408,o),
(460,466,o),
(460,533,cs),
(460,638,o),
(377,703,o),
(243,703,cs),
(162,703,o),
(87,684,o),
(22,647,c),
(61,506,l),
(107,530,o),
(156,541,o),
(212,541,cs),
(260,541,o),
(289,523,o),
(289,494,cs),
(289,448,o),
(228,423,o),
(111,423,c),
(111,286,l),
(242,286,o),
(293,264,o),
(293,211,cs),
(293,170,o),
(265,149,o),
(211,149,cs),
(167,149,o),
(118,160,o),
(64,182,c),
(31,29,l),
(90,4,o),
(162,-11,o),
(232,-11,cs)
);
}
);
width = 515;
}
);
},
{
color = 4;
glyphname = four.lf;
lastChange = "2023-02-01 13:47:35 +0000";
layers = (
{
background = {
shapes = (
{
closed = 1;
nodes = (
(518,0,l),
(518,155,l),
(614,155,l),
(614,301,l),
(518,301,l),
(518,669,l),
(294,669,l),
(28,303,l),
(28,155,l),
(305,155,l),
(305,0,l)
);
},
{
closed = 1;
nodes = (
(305,499,l),
(305,301,l),
(175,301,l)
);
}
);
};
layerId = UUID0;
shapes = (
{
closed = 1;
nodes = (
(518,0,l),
(518,162,l),
(614,162,l),
(614,308,l),
(518,308,l),
(518,688,l),
(294,688,l),
(28,310,l),
(28,162,l),
(305,162,l),
(305,0,l)
);
},
{
closed = 1;
nodes = (
(305,518,l),
(305,308,l),
(175,308,l)
);
}
);
width = 626;
}
);
},
{
color = 4;
glyphname = five.lf;
lastChange = "2023-02-01 13:47:35 +0000";
layers = (
{
background = {
shapes = (
{
closed = 1;
nodes = (
(397,-11,o),
(500,72,o),
(500,207,cs),
(500,271,o),
(463,338,o),
(376,369,c),
(436,408,o),
(470,466,o),
(470,533,cs),
(470,638,o),
(387,703,o),
(253,703,cs),
(172,703,o),
(97,684,o),
(32,647,c),
(71,506,l),
(117,530,o),
(166,541,o),
(222,541,cs),
(270,541,o),
(299,523,o),
(299,494,cs),
(299,448,o),
(238,423,o),
(121,423,c),
(121,286,l),
(252,286,o),
(303,264,o),
(303,211,cs),
(303,170,o),
(275,149,o),
(221,149,cs),
(177,149,o),
(128,160,o),
(74,182,c),
(41,29,l),
(100,4,o),
(172,-11,o),
(242,-11,cs)
);
}
);
};
layerId = UUID0;
shapes = (
{
closed = 1;
nodes = (
(405,-13,o),
(520,68,o),
(520,243,cs),
(520,351,o),
(462,449,o),
(327,449,cs),
(276,449,o),
(213,427,o),
(181,367,c),
(214,351,l),
(232,538,l),
(460,538,l),
(475,688,l),
(82,688,l),
(49,298,l),
(157,252,l),
(185,280,o),
(216,293,o),
(251,293,cs),
(294,293,o),
(323,268,o),
(323,225,cs),
(323,177,o),
(291,148,o),
(219,148,cs),
(174,148,o),
(118,160,o),
(74,181,c),
(42,28,l),
(108,-2,o),
(171,-13,o),
(232,-13,cs)
);
}
);
width = 547;
}
);
},
{
color = 4;
glyphname = six.lf;
lastChange = "2023-02-01 13:47:35 +0000";
layers = (
{
background = {
shapes = (
{
closed = 1;
nodes = (
(471,-7,o),
(588,92,o),
(588,216,cs),
(588,339,o),
(509,419,o),
(388,419,cs),
(319,419,o),
(260,394,o),
(224,349,c),
(235,470,o),
(279,524,o),
(366,524,cs),
(414,524,o),
(458,511,o),
(510,481,c),
(557,612,l),
(490,656,o),
(417,679,o),
(343,679,cs),
(156,679,o),
(26,526,o),
(26,316,cs),
(26,119,o),
(144,-7,o),
(325,-7,cs)
);
},
{
closed = 1;
nodes = (
(265,136,o),
(231,183,o),
(228,271,c),
(254,282,o),
(285,289,o),
(312,289,cs),
(369,289,o),
(403,261,o),
(403,216,cs),
(403,169,o),
(371,136,o),
(324,136,cs)
);
}
);
};
layerId = UUID0;
shapes = (
{
closed = 1;
nodes = (
(26,113,o),
(134,-7,o),
(317,-7,cs),
(476,-7,o),
(584,90,o),
(584,233,cs),
(584,359,o),
(501,441,o),
(374,441,cs),
(313,441,o),
(255,406,o),
(226,353,c),
(236,474,o),
(295,543,o),
(391,543,cs),
(430,543,o),
(472,531,o),
(513,510,c),
(554,654,l),
(507,686,o),
(447,703,o),
(373,703,cs),
(167,703,o),
(26,546,o),
(26,317,cs)
);
},
{
closed = 1;
nodes = (
(252,286,o),
(284,295,o),
(318,295,cs),
(370,295,o),
(403,265,o),
(403,220,cs),
(403,170,o),
(369,137,o),
(318,137,cs),
(263,137,o),
(233,181,o),
(226,269,c)
);
}
);
width = 593;
}
);
},
{
color = 4;
glyphname = seven.lf;
lastChange = "2023-02-01 13:47:35 +0000";
layers = (
{
background = {
shapes = (
{
closed = 1;
nodes = (
(485,547,l),
(485,669,l),
(26,669,l),
(26,524,l),
(265,524,l),
(51,60,l),
(233,-17,l)
);
}
);
};
layerId = UUID0;
shapes = (
{
closed = 1;
nodes = (
(494,566,l),
(494,688,l),
(26,688,l),
(26,542,l),
(274,542,l),
(51,60,l),
(233,-17,l)
);
}
);
width = 513;
}
);
},
{
color = 4;
glyphname = eight.lf;
lastChange = "2023-02-01 13:47:35 +0000";
layers = (
{
background = {
shapes = (
{
closed = 1;
nodes = (
(1177,-13,o),
(1283,66,o),
(1283,198,cs),
(1283,283,o),
(1241,342,o),
(1149,390,c),
(1207,420,o),
(1232,461,o),
(1232,523,cs),
(1232,614,o),
(1140,678,o),
(1010,678,cs),
(866,678,o),
(767,603,o),
(767,494,cs),
(767,430,o),
(788,387,o),
(843,342,c),
(759,309,o),
(717,256,o),
(717,182,cs),
(717,63,o),
(828,-13,o),
(1001,-13,cs)
);
},
{
closed = 1;
nodes = (
(951,125,o),
(917,154,o),
(917,198,cs),
(917,232,o),
(927,257,o),
(949,280,c),
(995,262,ls),
(1061,236,o),
(1087,212,o),
(1087,178,cs),
(1087,146,o),
(1053,125,o),
(1002,125,cs)
);
},
{
closed = 1;
nodes = (
(1010,439,ls),
(948,463,o),
(924,485,o),
(924,518,cs),
(924,552,o),
(951,570,o),
(1001,570,cs),
(1049,570,o),
(1075,544,o),
(1075,498,cs),
(1075,469,o),
(1065,446,o),
(1044,426,c)
);
},
{
closed = 1;
nodes = (
(22,60,o),
(133,-13,o),
(301,-13,cs),
(452,-13,o),
(578,69,o),
(578,206,cs),
(578,313,o),
(509,367,o),
(431,403,c),
(502,434,o),
(532,477,o),
(532,542,cs),
(532,637,o),
(440,703,o),
(310,703,cs),
(166,703,o),
(61,625,o),
(61,502,cs),
(61,415,o),
(103,363,o),
(157,329,c),
(68,297,o),
(22,245,o),
(22,175,cs)
);
},
{
closed = 1;
nodes = (
(212,236,o),
(222,261,o),
(245,286,c),
(321,257,o),
(392,239,o),
(392,190,cs),
(392,146,o),
(358,118,o),
(302,118,cs),
(246,118,o),
(212,154,o),
(212,206,cs)
);
},
{
closed = 1;
nodes = (
(224,567,o),
(252,591,o),
(299,591,cs),
(349,591,o),
(375,564,o),
(375,516,cs),
(375,485,o),
(365,461,o),
(342,440,c),
(277,465,o),
(224,488,o),
(224,534,cs)
);
}
);
};
layerId = UUID0;
shapes = (
{
closed = 1;
nodes = (
(22,60,o),
(133,-13,o),
(301,-13,cs),
(452,-13,o),
(578,69,o),
(578,206,cs),
(578,313,o),
(509,367,o),
(431,403,c),
(502,434,o),
(532,477,o),
(532,542,cs),
(532,637,o),
(440,703,o),
(310,703,cs),
(166,703,o),
(61,625,o),
(61,502,cs),
(61,415,o),
(103,363,o),
(157,329,c),
(68,297,o),
(22,245,o),
(22,175,cs)
);
},
{
closed = 1;
nodes = (
(212,236,o),
(222,261,o),
(245,286,c),
(351,250,o),
(392,229,o),
(392,190,cs),
(392,146,o),
(358,118,o),
(302,118,cs),
(246,118,o),
(212,154,o),
(212,206,cs)
);
},
{
closed = 1;
nodes = (
(224,567,o),
(252,591,o),
(299,591,cs),
(349,591,o),
(375,564,o),
(375,516,cs),
(375,485,o),
(365,461,o),
(342,440,c),
(277,465,o),
(224,488,o),
(224,534,cs)
);
}
);
width = 600;
}
);
},
{
color = 4;
glyphname = nine.lf;
lastChange = "2023-02-01 13:47:35 +0000";
layers = (
{
background = {
shapes = (
{
closed = 1;
nodes = (
(432,-7,o),
(562,146,o),
(562,356,cs),
(562,553,o),
(444,679,o),
(263,679,cs),
(117,679,o),
(5,580,o),
(5,456,cs),
(5,333,o),
(79,253,o),
(210,253,cs),
(279,253,o),
(328,278,o),
(364,323,c),
(353,202,o),
(309,148,o),
(222,148,cs),
(174,148,o),
(130,161,o),
(78,191,c),
(31,60,l),
(98,16,o),
(171,-7,o),
(245,-7,cs)
);
},
{
closed = 1;
nodes = (
(219,378,o),
(185,406,o),
(185,454,cs),
(185,503,o),
(217,536,o),
(264,536,cs),
(323,536,o),
(357,489,o),
(360,396,c),
(334,385,o),
(303,378,o),
(276,378,cs)
);
}
);
};
layerId = UUID0;
shapes = (
{
closed = 1;
nodes = (
(9,339,o),
(90,255,o),
(219,255,cs),
(270,255,o),
(334,281,o),
(367,343,c),
(357,224,o),
(299,153,o),
(202,153,cs),
(161,153,o),
(119,165,o),
(80,186,c),
(39,42,l),
(87,7,o),
(149,-7,o),
(220,-7,cs),
(428,-7,o),
(567,152,o),
(567,379,cs),
(567,572,o),
(470,703,o),
(276,703,cs),
(112,703,o),
(9,602,o),
(9,463,cs)
);
},
{
closed = 1;
nodes = (
(190,525,o),
(223,559,o),
(275,559,cs),
(331,559,o),
(360,514,o),
(367,427,c),
(340,409,o),
(307,401,o),
(275,401,cs),
(224,401,o),
(190,430,o),
(190,476,cs)
);
}
);
width = 593;
}
);
metricLeft = "=|six";
},
{
color = 4;
glyphname = zero.tf;
lastChange = "2023-02-01 13:03:56 +0000";
layers = (
{
background = {
shapes = (
{
closed = 1;
nodes = (
(466,-8,o),
(577,131,o),
(577,338,cs),
(577,543,o),
(465,683,o),
(300,683,cs),
(134,683,o),
(23,545,o),
(23,338,cs),
(23,131,o),
(134,-8,o),
(300,-8,cs)
);
},
{
closed = 1;
nodes = (
(247,154,o),
(217,221,o),
(217,338,cs),
(217,457,o),
(246,521,o),
(300,521,cs),
(353,521,o),
(383,455,o),
(383,338,cs),
(383,223,o),
(352,154,o),
(300,154,cs)
);
}
);
};
layerId = UUID0;
shapes = (
{
closed = 1;
nodes = (
(466,-8,o),
(577,135,o),
(577,348,cs),
(577,559,o),
(465,703,o),
(300,703,cs),
(134,703,o),
(23,561,o),
(23,348,cs),
(23,135,o),
(134,-8,o),
(300,-8,cs)
);
},
{
closed = 1;
nodes = (
(247,159,o),
(217,222,o),
(217,348,cs),
(217,476,o),
(246,536,o),
(300,536,cs),
(353,536,o),
(383,474,o),
(383,348,cs),
(383,225,o),
(352,159,o),
(300,159,cs)
);
}
);
width = 600;
}
);
},
{
color = 4;
glyphname = one.tf;
lastChange = "2023-02-01 13:05:48 +0000";
layers = (
{
background = {
shapes = (
{
closed = 1;
nodes = (
(532,0,l),
(532,147,l),
(428,147,l),
(428,669,l),
(323,669,l),
(257,625,o),
(196,604,o),
(99,604,c),
(99,473,l),
(213,473,l),
(213,147,l),
(76,147,l),
(76,0,l)
);
}
);
};
layerId = UUID0;
shapes = (
{
closed = 1;
nodes = (
(532,0,l),
(532,146,l),
(428,146,l),
(428,688,l),
(323,688,l),
(257,644,o),
(196,623,o),
(99,623,c),
(99,492,l),
(213,492,l),
(213,146,l),
(76,146,l),
(76,0,l)
);
}
);
width = 600;
}
);
},
{
color = 4;
glyphname = two.tf;
lastChange = "2023-02-01 13:08:42 +0000";
layers = (
{
background = {
shapes = (
{
closed = 1;
nodes = (
(542,0,l),
(542,146,l),
(262,146,l),
(445,240,o),
(534,342,o),
(534,465,cs),
(534,586,o),
(440,676,o),
(288,676,cs),
(200,676,o),
(128,656,o),
(52,620,c),
(105,471,l),
(148,495,o),
(196,510,o),
(246,510,cs),
(298,510,o),
(329,488,o),
(329,444,cs),
(329,376,o),
(235,275,o),
(65,141,c),
(65,0,l)
);
}
);
};
layerId = UUID0;
shapes = (
{
closed = 1;
nodes = (
(542,0,l),
(542,146,l),
(260,146,l),
(446,245,o),
(531,352,o),
(531,481,cs),
(531,608,o),
(440,703,o),
(278,703,cs),
(201,703,o),
(118,682,o),
(53,644,c),
(106,488,l),
(151,515,o),
(201,529,o),
(248,529,cs),
(304,529,o),
(331,506,o),
(331,459,cs),
(331,388,o),
(234,282,o),
(65,141,c),
(65,0,l)
);
}
);
width = 600;
}
);
},
{
color = 4;
glyphname = three.tf;
lastChange = "2023-02-01 13:08:39 +0000";
layers = (
{
background = {
shapes = (
{
closed = 1;
nodes = (
(439,-11,o),
(544,66,o),
(544,189,cs),
(544,263,o),
(499,326,o),
(414,360,c),
(479,391,o),
(513,446,o),
(513,513,cs),
(513,617,o),
(427,677,o),
(299,677,cs),
(211,677,o),
(131,659,o),
(53,623,c),
(88,484,l),
(153,511,o),
(206,521,o),
(255,521,cs),
(304,521,o),
(337,509,o),
(337,476,cs),
(337,432,o),
(276,407,o),
(148,407,c),
(148,283,l),
(287,283,o),
(342,261,o),
(342,204,cs),
(342,164,o),
(313,143,o),
(254,143,cs),
(205,143,o),
(153,154,o),
(98,175,c),
(63,28,l),
(128,2,o),
(203,-11,o),
(277,-11,cs)
);
}
);
};
layerId = UUID0;
shapes = (
{
closed = 1;
nodes = (
(435,-11,o),
(541,72,o),
(541,207,cs),
(541,271,o),
(503,342,o),
(403,369,c),
(486,408,o),
(511,466,o),
(511,533,cs),
(511,638,o),
(425,703,o),
(287,703,cs),
(203,703,o),
(125,684,o),
(58,647,c),
(97,506,l),
(146,530,o),
(198,541,o),
(258,541,cs),
(309,541,o),
(340,523,o),
(340,494,cs),
(340,448,o),
(275,423,o),
(150,423,c),
(150,282,l),
(290,282,o),
(344,261,o),
(344,210,cs),
(344,169,o),
(314,149,o),
(257,149,cs),
(210,149,o),
(158,160,o),
(100,182,c),
(67,29,l),
(128,4,o),
(202,-11,o),
(275,-11,cs)
);
}
);
width = 600;
}
);
},
{
color = 4;
glyphname = four.tf;
lastChange = "2023-02-01 13:09:34 +0000";
layers = (
{
background = {
shapes = (
{
closed = 1;
nodes = (
(518,0,l),
(518,162,l),
(614,162,l),
(614,308,l),
(518,308,l),
(518,688,l),
(294,688,l),
(28,310,l),
(28,162,l),
(305,162,l),
(305,0,l)
);
},
{
closed = 1;
nodes = (
(305,518,l),
(305,308,l),
(175,308,l)
);
}
);
};
layerId = UUID0;
shapes = (
{
closed = 1;
nodes = (
(507,0,l),
(507,162,l),
(593,162,l),
(593,308,l),
(507,308,l),
(507,688,l),
(283,688,l),
(27,310,l),
(27,162,l),
(294,162,l),
(294,0,l)
);
},
{
closed = 1;
nodes = (
(294,518,l),
(294,308,l),
(174,308,l)
);
}
);
width = 600;
}
);
},
{
color = 4;
glyphname = five.tf;
lastChange = "2023-02-01 13:10:17 +0000";
layers = (
{
background = {
shapes = (
{
closed = 1;
nodes = (
(444,-13,o),
(559,85,o),
(559,246,cs),
(559,341,o),
(492,436,o),
(364,436,cs),
(302,436,o),
(248,415,o),
(215,357,c),
(241,341,l),
(257,523,l),
(501,523,l),
(516,669,l),
(113,669,l),
(80,290,l),
(191,245,l),
(220,272,o),
(253,285,o),
(289,285,cs),
(334,285,o),
(364,260,o),
(364,219,cs),
(364,172,o),
(331,140,o),
(245,140,cs),
(203,140,o),
(145,155,o),
(105,176,c),
(73,27,l),
(140,-2,o),
(205,-13,o),
(267,-13,cs)
);
}
);
};
layerId = UUID0;
shapes = (
{
closed = 1;
nodes = (
(445,-13,o),
(562,68,o),
(562,243,cs),
(562,351,o),
(503,449,o),
(365,449,cs),
(313,449,o),
(249,427,o),
(216,367,c),
(246,351,l),
(264,538,l),
(502,538,l),
(517,688,l),
(114,688,l),
(81,298,l),
(189,252,l),
(219,280,o),
(252,293,o),
(289,293,cs),
(334,293,o),
(365,268,o),
(365,225,cs),
(365,177,o),
(331,148,o),
(255,148,cs),
(207,148,o),
(150,160,o),
(106,181,c),
(74,28,l),
(141,-2,o),
(206,-13,o),
(268,-13,cs)
);
}
);
width = 600;
}
);
},
{
color = 4;
glyphname = six.tf;
lastChange = "2023-02-01 13:17:22 +0000";
layers = (
{
background = {
shapes = (
{
closed = 1;
nodes = (
(209,261,l),
(237,283,o),
(274,295,o),
(313,295,cs),
(365,295,o),
(398,265,o),
(398,220,cs),
(398,170,o),
(364,137,o),
(313,137,cs),
(250,137,o),
(219,195,o),
(219,312,cs),
(219,459,o),
(280,543,o),
(386,543,cs),
(425,543,o),
(467,531,o),
(508,510,c),
(549,654,l),
(502,686,o),
(442,703,o),
(368,703,cs),
(162,703,o),
(21,546,o),
(21,317,cs),
(21,113,o),
(129,-7,o),
(312,-7,cs),
(471,-7,o),
(579,90,o),
(579,233,cs),
(579,359,o),
(496,441,o),
(369,441,cs),
(299,441,o),
(234,396,o),
(210,329,c)
);
}
);
};
layerId = UUID0;
shapes = (
{
closed = 1;
nodes = (
(21,113,o),
(129,-7,o),
(312,-7,cs),
(471,-7,o),
(579,90,o),
(579,233,cs),
(579,359,o),
(496,441,o),
(369,441,cs),
(308,441,o),
(250,406,o),
(221,353,c),
(231,474,o),
(290,543,o),
(386,543,cs),
(425,543,o),
(467,531,o),
(508,510,c),
(549,654,l),
(502,686,o),
(442,703,o),
(368,703,cs),
(162,703,o),
(21,546,o),
(21,317,cs)
);
},
{
closed = 1;
nodes = (
(247,286,o),
(279,295,o),
(313,295,cs),
(365,295,o),
(398,265,o),
(398,220,cs),
(398,170,o),
(364,137,o),
(313,137,cs),
(258,137,o),
(228,181,o),
(221,269,c)
);
}
);
width = 600;
}
);
},
{
color = 4;
glyphname = seven.tf;
lastChange = "2023-02-01 13:17:33 +0000";
layers = (
{
background = {
shapes = (
{
closed = 1;
nodes = (
(550,547,l),
(550,669,l),
(71,669,l),
(71,524,l),
(330,524,l),
(91,60,l),
(273,-17,l)
);
}
);
};
layerId = UUID0;
shapes = (
{
closed = 1;
nodes = (
(560,566,l),
(560,688,l),
(71,688,l),
(71,542,l),
(340,542,l),
(91,60,l),
(273,-17,l)
);
}
);
width = 600;
}
);
},
{
color = 4;
glyphname = eight.tf;
lastChange = "2023-02-01 13:17:45 +0000";
layers = (
{
background = {
shapes = (
{
closed = 1;
nodes = (
(414,396,l),
(497,427,o),
(532,472,o),
(532,542,cs),
(532,637,o),
(440,703,o),
(310,703,cs),
(166,703,o),
(61,625,o),
(61,502,cs),
(61,257,o),
(392,296,o),
(392,190,cs),
(392,146,o),
(358,118,o),
(302,118,cs),
(246,118,o),
(212,154,o),
(212,206,cs),
(212,242,o),
(226,271,o),
(262,303,c),
(176,335,l),
(75,304,o),
(22,250,o),
(22,175,cs),
(22,60,o),
(133,-13,o),
(301,-13,cs),
(452,-13,o),
(578,69,o),
(578,206,cs),
(578,448,o),
(224,416,o),
(224,534,cs),
(224,567,o),
(252,591,o),
(299,591,cs),
(349,591,o),
(375,564,o),
(375,516,cs),
(375,480,o),
(361,453,o),
(330,429,c)
);
}
);
};
layerId = UUID0;
shapes = (
{
closed = 1;
nodes = (
(22,60,o),
(133,-13,o),
(301,-13,cs),
(452,-13,o),
(578,69,o),
(578,206,cs),
(578,313,o),
(509,367,o),
(431,403,c),
(502,434,o),
(532,477,o),
(532,542,cs),
(532,637,o),
(440,703,o),
(310,703,cs),
(166,703,o),
(61,625,o),
(61,502,cs),
(61,415,o),
(103,363,o),
(157,329,c),
(68,297,o),
(22,245,o),
(22,175,cs)
);
},
{
closed = 1;
nodes = (
(212,236,o),
(222,261,o),
(245,286,c),
(351,250,o),
(392,229,o),
(392,190,cs),
(392,146,o),
(358,118,o),
(302,118,cs),
(246,118,o),
(212,154,o),
(212,206,cs)
);
},
{
closed = 1;
nodes = (
(224,567,o),
(252,591,o),
(299,591,cs),
(349,591,o),
(375,564,o),
(375,516,cs),
(375,485,o),
(365,461,o),
(342,440,c),
(277,465,o),
(224,488,o),
(224,534,cs)
);
}
);
width = 600;
}
);
},
{
color = 4;
glyphname = nine.tf;
lastChange = "2023-02-01 13:17:57 +0000";
layers = (
{
background = {
shapes = (
{
closed = 1;
nodes = (
(391,435,l),
(363,413,o),
(326,401,o),
(287,401,cs),
(235,401,o),
(202,431,o),
(202,476,cs),
(202,526,o),
(236,559,o),
(287,559,cs),
(350,559,o),
(381,501,o),
(381,384,cs),
(381,237,o),
(320,153,o),
(214,153,cs),
(175,153,o),
(133,165,o),
(92,186,c),
(51,42,l),
(98,10,o),
(158,-7,o),
(232,-7,cs),
(438,-7,o),
(579,150,o),
(579,379,cs),
(579,583,o),
(471,703,o),
(288,703,cs),
(129,703,o),
(21,606,o),
(21,463,cs),
(21,337,o),
(104,255,o),
(231,255,cs),
(301,255,o),
(366,300,o),
(390,367,c)
);
}
);
};
layerId = UUID0;
shapes = (
{
closed = 1;
nodes = (
(21,337,o),
(104,255,o),
(231,255,cs),
(292,255,o),
(350,290,o),
(379,343,c),
(369,222,o),
(310,153,o),
(214,153,cs),
(175,153,o),
(133,165,o),
(92,186,c),
(51,42,l),
(98,10,o),
(158,-7,o),
(232,-7,cs),
(438,-7,o),
(579,150,o),
(579,379,cs),
(579,583,o),
(471,703,o),
(288,703,cs),
(129,703,o),
(21,606,o),
(21,463,cs)
);
},
{
closed = 1;
nodes = (
(202,526,o),
(236,559,o),
(287,559,cs),
(342,559,o),
(372,515,o),
(379,427,c),
(353,410,o),
(321,401,o),
(287,401,cs),
(235,401,o),
(202,431,o),
(202,476,cs)
);
}
);
width = 600;
}
);
},
{
color = 4;
glyphname = zero.dnom;
lastChange = "2023-02-01 18:12:00 +0000";
layers = (
{
background = {
shapes = (
{
closed = 1;
nodes = (
(296,-10,o),
(361,79,o),
(361,182,cs),
(361,285,o),
(293,374,o),
(190,374,cs),
(99,374,o),
(18,304,o),
(18,182,cs),
(18,79,o),
(81,-10,o),
(190,-10,cs)
);
},
{
closed = 1;
nodes = (
(150,82,o),
(131,132,o),
(131,182,cs),
(131,236,o),
(150,282,o),
(190,282,cs),
(227,282,o),
(248,235,o),
(248,182,cs),
(248,124,o),
(222,82,o),
(190,82,cs)
);
}
);
};
layerId = UUID0;
shapes = (
{
closed = 1;
nodes = (
(296,-11,o),
(361,80,o),
(361,185,cs),
(361,289,o),
(293,380,o),
(190,380,cs),
(99,380,o),
(18,309,o),
(18,185,cs),
(18,80,o),
(81,-11,o),
(190,-11,cs)
);
},
{
closed = 1;
nodes = (
(150,83,o),
(131,134,o),
(131,185,cs),
(131,239,o),
(150,286,o),
(190,286,cs),
(227,286,o),
(248,238,o),
(248,185,cs),
(248,125,o),
(222,83,o),
(190,83,cs)
);
}
);
width = 379;
}
);
},
{
color = 4;
glyphname = one.dnom;
lastChange = "2023-02-01 18:15:09 +0000";
layers = (
{
background = {
shapes = (
{
closed = 1;
nodes = (
(238,0,l),
(238,78,l),
(194,78,l),
(194,355,l),
(139,355,l),
(108,332,o),
(74,320,o),
(37,320,c),
(37,251,l),
(81,255,l),
(81,78,l),
(37,78,l),
(37,0,l)
);
}
);
};
layerId = UUID0;
shapes = (
{
closed = 1;
nodes = (
(238,0,l),
(238,78,l),
(194,78,l),
(194,368,l),
(139,368,l),
(108,345,o),
(74,333,o),
(37,333,c),
(37,266,l),
(81,266,l),
(81,78,l),
(37,78,l),
(37,0,l)
);
}
);
width = 259;
}
);
},
{
color = 4;
glyphname = two.dnom;
lastChange = "2023-02-01 18:15:16 +0000";
layers = (
{
background = {
shapes = (
{
closed = 1;
nodes = (
(257,0,l),
(257,83,l),
(140,83,l),
(224,130,o),
(268,186,o),
(268,247,cs),
(268,320,o),
(218,368,o),
(137,368,cs),
(92,368,o),
(50,358,o),
(14,337,c),
(43,252,l),
(60,264,o),
(90,273,o),
(111,273,cs),
(136,273,o),
(151,264,o),
(151,243,cs),
(151,216,o),
(122,171,o),
(21,79,c),
(21,0,l)
);
}
);
};
layerId = UUID0;
shapes = (
{
closed = 1;
nodes = (
(265,0,l),
(265,80,l),
(128,80,l),
(220,133,o),
(267,190,o),
(267,260,cs),
(267,329,o),
(217,380,o),
(130,380,cs),
(89,380,o),
(44,369,o),
(9,349,c),
(37,264,l),
(61,279,o),
(86,286,o),
(111,286,cs),
(136,286,o),
(152,274,o),
(152,249,cs),
(152,210,o),
(101,153,o),
(16,77,c),
(16,0,l)
);
}
);
width = 294;
}
);
},
{
color = 4;
glyphname = three.dnom;
lastChange = "2023-02-01 18:15:27 +0000";
layers = (
{
background = {
shapes = (
{
closed = 1;
nodes = (
(215,-10,o),
(268,31,o),
(268,96,cs),
(268,142,o),
(245,175,o),
(200,195,c),
(240,218,o),
(252,248,o),
(252,284,cs),
(252,335,o),
(203,373,o),
(139,373,cs),
(94,373,o),
(53,363,o),
(16,344,c),
(35,270,l),
(67,282,o),
(96,286,o),
(119,286,cs),
(146,286,o),
(157,277,o),
(157,260,cs),
(157,237,o),
(126,224,o),
(61,224,c),
(61,150,l),
(127,150,o),
(160,136,o),
(160,106,cs),
(160,86,o),
(145,73,o),
(119,73,cs),
(95,73,o),
(67,79,o),
(35,91,c),
(16,14,l),
(53,-2,o),
(92,-10,o),
(133,-10,cs)
);
}
);
};
layerId = UUID0;
shapes = (
{
closed = 1;
nodes = (
(214,-11,o),
(269,35,o),
(269,108,cs),
(269,144,o),
(249,179,o),
(202,197,c),
(234,218,o),
(253,250,o),
(253,286,cs),
(253,343,o),
(208,380,o),
(136,380,cs),
(92,380,o),
(51,369,o),
(16,348,c),
(37,272,l),
(62,284,o),
(89,291,o),
(119,291,cs),
(145,291,o),
(161,281,o),
(161,265,cs),
(161,239,o),
(128,226,o),
(64,226,c),
(64,156,l),
(135,156,o),
(163,144,o),
(163,113,cs),
(163,89,o),
(148,77,o),
(118,77,cs),
(95,77,o),
(68,83,o),
(39,95,c),
(21,11,l),
(53,-3,o),
(92,-11,o),
(130,-11,cs)
);
}
);
width = 294;
}
);
},
{
color = 4;
glyphname = four.dnom;
lastChange = "2023-02-01 18:15:32 +0000";
layers = (
{
background = {
shapes = (
{
closed = 1;
nodes = (
(294,0,l),
(294,88,l),
(340,88,l),
(340,165,l),
(294,165,l),
(294,369,l),
(169,369,l),
(22,165,l),
(22,88,l),
(174,88,l),
(174,0,l)
);
},
{
closed = 1;
nodes = (
(174,273,l),
(174,165,l),
(102,165,l)
);
}
);
};
layerId = UUID0;
shapes = (
{
closed = 1;
nodes = (
(294,0,l),
(294,88,l),
(340,88,l),
(340,165,l),
(294,165,l),
(294,368,l),
(169,368,l),
(22,165,l),
(22,88,l),
(174,88,l),
(174,0,l)
);
},
{
closed = 1;
nodes = (
(174,272,l),
(174,165,l),
(102,165,l)
);
}
);
width = 357;
}
);
},
{
color = 4;
glyphname = five.dnom;
lastChange = "2023-02-01 18:15:40 +0000";
layers = (
{
background = {
shapes = (
{
closed = 1;
nodes = (
(218,-10,o),
(277,43,o),
(277,118,cs),
(277,190,o),
(233,241,o),
(165,241,cs),
(147,241,o),
(124,237,o),
(103,228,c),
(111,288,l),
(240,288,l),
(248,369,l),
(37,369,l),
(23,162,l),
(79,137,l),
(99,151,o),
(118,159,o),
(133,159,cs),
(156,159,o),
(171,143,o),
(171,118,cs),
(171,89,o),
(151,73,o),
(117,73,cs),
(92,73,o),
(60,79,o),
(32,90,c),
(25,10,l),
(63,-5,o),
(97,-10,o),
(129,-10,cs)
);
}
);
};
layerId = UUID0;
shapes = (
{
closed = 1;
nodes = (
(218,-11,o),
(278,44,o),
(278,132,cs),
(278,185,o),
(243,238,o),
(177,238,cs),
(145,238,o),
(117,226,o),
(100,194,c),
(115,185,l),
(124,286,l),
(248,286,l),
(256,368,l),
(47,368,l),
(30,156,l),
(87,131,l),
(102,146,o),
(118,153,o),
(137,153,cs),
(160,153,o),
(175,139,o),
(175,117,cs),
(175,92,o),
(158,74,o),
(120,74,cs),
(93,74,o),
(63,83,o),
(43,95,c),
(26,11,l),
(61,-5,o),
(94,-11,o),
(127,-11,cs)
);
}
);
width = 294;
}
);
},
{
color = 4;
glyphname = six.dnom;
lastChange = "2023-02-01 18:15:00 +0000";
layers = (
{
background = {
shapes = (
{
closed = 1;
nodes = (
(262,-10,o),
(326,46,o),
(326,114,cs),
(326,182,o),
(283,227,o),
(217,227,cs),
(181,227,o),
(151,214,o),
(127,188,c),
(134,258,o),
(158,286,o),
(209,286,cs),
(228,286,o),
(254,278,o),
(283,262,c),
(309,335,l),
(277,358,o),
(235,372,o),
(196,372,cs),
(94,372,o),
(19,287,o),
(19,170,cs),
(19,60,o),
(83,-10,o),
(182,-10,cs)
);
},
{
closed = 1;
nodes = (
(148,70,o),
(130,99,o),
(129,145,c),
(144,151,o),
(159,155,o),
(181,155,cs),
(206,155,o),
(225,137,o),
(225,114,cs),
(225,88,o),
(205,70,o),
(182,70,cs)
);
}
);
};
layerId = UUID0;
shapes = (
{
closed = 1;
nodes = (
(121,137,l),
(137,150,o),
(158,155,o),
(178,155,cs),
(206,155,o),
(225,140,o),
(225,114,cs),
(225,87,o),
(206,68,o),
(178,68,cs),
(143,68,o),
(126,101,o),
(126,164,cs),
(126,244,o),
(159,291,o),
(218,291,cs),
(241,291,o),
(264,285,o),
(285,274,c),
(308,353,l),
(281,372,o),
(247,380,o),
(208,380,cs),
(94,380,o),
(18,292,o),
(18,167,cs),
(18,61,o),
(71,-11,o),
(177,-11,cs),
(267,-11,o),
(324,45,o),
(324,121,cs),
(324,189,o),
(280,236,o),
(209,236,cs),
(177,236,o),
(137,218,o),
(121,175,c)
);
}
);
width = 342;
}
);
},
{
color = 4;
glyphname = seven.dnom;
lastChange = "2023-02-01 18:15:47 +0000";
layers = (
{
background = {
shapes = (
{
closed = 1;
nodes = (
(251,298,l),
(251,369,l),
(22,369,l),
(22,289,l),
(136,289,l),
(30,30,l),
(131,-12,l)
);
}
);
};
layerId = UUID0;
shapes = (
{
closed = 1;
nodes = (
(251,297,l),
(251,368,l),
(22,368,l),
(22,288,l),
(136,288,l),
(30,29,l),
(131,-13,l)
);
}
);
width = 267;
}
);
},
{
color = 4;
glyphname = eight.dnom;
lastChange = "2023-02-01 18:11:39 +0000";
layers = (
{
background = {
shapes = (
{
closed = 1;
nodes = (
(232,213,l),
(278,229,o),
(298,253,o),
(298,292,cs),
(298,344,o),
(246,380,o),
(174,380,cs),
(94,380,o),
(36,337,o),
(36,270,cs),
(36,136,o),
(220,157,o),
(220,100,cs),
(220,76,o),
(201,61,o),
(170,61,cs),
(139,61,o),
(120,80,o),
(120,108,cs),
(120,128,o),
(127,144,o),
(147,161,c),
(100,178,l),
(43,162,o),
(14,132,o),
(14,92,cs),
(14,28,o),
(76,-11,o),
(169,-11,cs),
(253,-11,o),
(323,33,o),
(323,108,cs),
(323,241,o),
(126,223,o),
(126,287,cs),
(126,305,o),
(142,319,o),
(168,319,cs),
(196,319,o),
(210,303,o),
(210,278,cs),
(210,258,o),
(202,243,o),
(185,230,c)
);
}
);
};
layerId = UUID0;
shapes = (
{
closed = 1;
nodes = (
(14,28,o),
(76,-11,o),
(169,-11,cs),
(253,-11,o),
(323,33,o),
(323,108,cs),
(323,167,o),
(284,196,o),
(241,216,c),
(281,232,o),
(298,256,o),
(298,292,cs),
(298,344,o),
(246,380,o),
(174,380,cs),
(94,380,o),
(36,337,o),
(36,270,cs),
(36,222,o),
(60,194,o),
(90,175,c),
(40,158,o),
(14,130,o),
(14,92,cs)
);
},
{
closed = 1;
nodes = (
(120,125,o),
(125,138,o),
(138,152,c),
(180,136,o),
(220,126,o),
(220,100,cs),
(220,76,o),
(201,61,o),
(170,61,cs),
(139,61,o),
(120,80,o),
(120,108,cs)
);
},
{
closed = 1;
nodes = (
(126,305,o),
(142,319,o),
(168,319,cs),
(196,319,o),
(210,303,o),
(210,278,cs),
(210,261,o),
(204,248,o),
(192,236,c),
(156,250,o),
(126,262,o),
(126,287,cs)
);
}
);
width = 337;
}
);
},
{
color = 4;
glyphname = nine.dnom;
lastChange = "2023-02-01 18:15:53 +0000";
layers = (
{
background = {
shapes = (
{
closed = 1;
nodes = (
(248,-10,o),
(323,75,o),
(323,192,cs),
(323,302,o),
(259,372,o),
(160,372,cs),
(80,372,o),
(16,316,o),
(16,248,cs),
(16,180,o),
(59,135,o),
(125,135,cs),
(161,135,o),
(191,148,o),
(215,174,c),
(208,104,o),
(184,76,o),
(133,76,cs),
(114,76,o),
(88,84,o),
(59,100,c),
(33,27,l),
(65,4,o),
(107,-10,o),
(146,-10,cs)
);
},
{
closed = 1;
nodes = (
(136,207,o),
(117,225,o),
(117,248,cs),
(117,274,o),
(137,292,o),
(160,292,cs),
(194,292,o),
(212,263,o),
(213,217,c),
(198,211,o),
(183,207,o),
(161,207,cs)
);
}
);
};
layerId = UUID0;
shapes = (
{
closed = 1;
nodes = (
(221,232,l),
(205,219,o),
(184,214,o),
(164,214,cs),
(136,214,o),
(117,229,o),
(117,255,cs),
(117,282,o),
(136,301,o),
(164,301,cs),
(199,301,o),
(216,268,o),
(216,205,cs),
(216,125,o),
(183,78,o),
(124,78,cs),
(101,78,o),
(78,84,o),
(57,95,c),
(34,16,l),
(61,-3,o),
(95,-11,o),
(134,-11,cs),
(248,-11,o),
(324,77,o),
(324,202,cs),
(324,308,o),
(271,380,o),
(165,380,cs),
(75,380,o),
(18,324,o),
(18,248,cs),
(18,180,o),
(62,133,o),
(133,133,cs),
(165,133,o),
(205,151,o),
(221,194,c)
);
}
);
width = 342;
}
);
},
{
color = 6;
glyphname = zero.numr;
lastChange = "2023-02-01 18:12:29 +0000";
layers = (
{
background = {
shapes = (
{
closed = 1;
nodes = (
(296,325,o),
(361,414,o),
(361,517,cs),
(361,620,o),
(293,709,o),
(190,709,cs),
(99,709,o),
(18,639,o),
(18,517,cs),
(18,414,o),
(81,325,o),
(190,325,cs)
);
},
{
closed = 1;
nodes = (
(150,417,o),
(131,467,o),
(131,517,cs),
(131,571,o),
(150,617,o),
(190,617,cs),
(227,617,o),
(248,570,o),
(248,517,cs),
(248,459,o),
(222,417,o),
(190,417,cs)
);
}
);
};
layerId = UUID0;
shapes = (
{
pos = (0,320);
ref = zero.dnom;
}
);
width = 379;
}
);
},
{
color = 6;
glyphname = one.numr;
lastChange = "2023-02-01 18:15:54 +0000";
layers = (
{
background = {
shapes = (
{
closed = 1;
nodes = (
(228,335,l),
(228,413,l),
(184,413,l),
(184,690,l),
(129,690,l),
(98,667,o),
(64,655,o),
(27,655,c),
(27,586,l),
(71,590,l),
(71,413,l),
(27,413,l),
(27,335,l)
);
}
);
};
layerId = UUID0;
shapes = (
{
pos = (0,320);
ref = one.dnom;
}
);
width = 259;
}
);
},
{
color = 6;
glyphname = two.numr;
lastChange = "2023-02-01 18:12:29 +0000";
layers = (
{
background = {
shapes = (
{
closed = 1;
nodes = (
(270,335,l),
(270,415,l),
(133,415,l),
(225,466,o),
(272,521,o),
(272,588,cs),
(272,654,o),
(222,703,o),
(135,703,cs),
(94,703,o),
(49,692,o),
(14,673,c),
(42,592,l),
(66,606,o),
(91,613,o),
(116,613,cs),
(141,613,o),
(157,601,o),
(157,577,cs),
(157,540,o),
(106,485,o),
(21,412,c),
(21,335,l)
);
}
);
};
layerId = UUID0;
shapes = (
{
pos = (0,320);
ref = two.dnom;
}
);
width = 294;
}
);
},
{
color = 6;
glyphname = three.numr;
lastChange = "2023-02-01 18:15:54 +0000";
layers = (
{
background = {
shapes = (
{
closed = 1;
nodes = (
(212,324,o),
(267,369,o),
(267,441,cs),
(267,476,o),
(247,511,o),
(200,528,c),
(232,549,o),
(251,580,o),
(251,616,cs),
(251,672,o),
(206,708,o),
(134,708,cs),
(90,708,o),
(49,697,o),
(14,677,c),
(35,602,l),
(60,614,o),
(87,621,o),
(117,621,cs),
(143,621,o),
(159,611,o),
(159,595,cs),
(159,570,o),
(126,557,o),
(62,557,c),
(62,488,l),
(133,488,o),
(161,476,o),
(161,446,cs),
(161,422,o),
(146,410,o),
(116,410,cs),
(93,410,o),
(66,416,o),
(37,428,c),
(19,346,l),
(51,332,o),
(90,324,o),
(128,324,cs)
);
}
);
};
layerId = UUID0;
shapes = (
{
pos = (0,320);
ref = three.dnom;
}
);
width = 294;
}
);
},
{
color = 6;
glyphname = four.numr;
lastChange = "2023-02-01 18:15:54 +0000";
layers = (
{
background = {
shapes = (
{
closed = 1;
nodes = (
(282,335,l),
(282,423,l),
(328,423,l),
(328,500,l),
(282,500,l),
(282,704,l),
(157,704,l),
(10,500,l),
(10,423,l),
(162,423,l),
(162,335,l)
);
},
{
closed = 1;
nodes = (
(162,608,l),
(162,500,l),
(90,500,l)
);
}
);
};
layerId = UUID0;
shapes = (
{
pos = (0,320);
ref = four.dnom;
}
);
width = 357;
}
);
},
{
color = 6;
glyphname = five.numr;
lastChange = "2023-02-01 18:15:54 +0000";
layers = (
{
background = {
shapes = (
{
closed = 1;
nodes = (
(155,573,o),
(135,567,o),
(119,552,c),
(125,622,l),
(249,622,l),
(257,704,l),
(48,704,l),
(31,491,l),
(88,466,l),
(103,481,o),
(119,488,o),
(138,488,cs),
(161,488,o),
(176,474,o),
(176,452,cs),
(176,425,o),
(159,407,o),
(121,407,cs),
(94,407,o),
(64,416,o),
(44,428,c),
(27,344,l),
(62,328,o),
(95,322,o),
(128,322,cs),
(219,322,o),
(279,377,o),
(279,467,cs),
(279,520,o),
(244,573,o),
(178,573,cs)
);
}
);
};
layerId = UUID0;
shapes = (
{
pos = (0,320);
ref = five.dnom;
}
);
width = 294;
}
);
},
{
color = 6;
glyphname = six.numr;
lastChange = "2023-02-01 18:15:54 +0000";
layers = (
{
background = {
shapes = (
{
closed = 1;
nodes = (
(180,567,o),
(146,554,o),
(127,521,c),
(133,584,o),
(165,621,o),
(218,621,cs),
(241,621,o),
(264,615,o),
(285,604,c),
(308,681,l),
(281,699,o),
(247,707,o),
(208,707,cs),
(94,707,o),
(18,622,o),
(18,501,cs),
(18,398,o),
(71,328,o),
(177,328,cs),
(267,328,o),
(324,382,o),
(324,456,cs),
(324,522,o),
(280,567,o),
(209,567,cs)
);
},
{
closed = 1;
nodes = (
(148,405,o),
(131,429,o),
(127,475,c),
(142,485,o),
(160,489,o),
(178,489,cs),
(206,489,o),
(225,474,o),
(225,449,cs),
(225,423,o),
(206,405,o),
(178,405,cs)
);
}
);
};
layerId = UUID0;
shapes = (
{
pos = (0,320);
ref = six.dnom;
}
);
width = 342;
}
);
},
{
color = 6;
glyphname = seven.numr;
lastChange = "2023-02-01 18:15:54 +0000";
layers = (
{
background = {
shapes = (
{
closed = 1;
nodes = (
(251,633,l),
(251,704,l),
(22,704,l),
(22,624,l),
(136,624,l),
(30,365,l),
(131,323,l)
);
}
);
};
layerId = UUID0;
shapes = (
{
pos = (0,320);
ref = seven.dnom;
}
);
width = 267;
}
);
},
{
color = 6;
glyphname = eight.numr;
lastChange = "2023-02-01 18:12:29 +0000";
layers = (
{
background = {
shapes = (
{
closed = 1;
nodes = (
(281,563,o),
(298,587,o),
(298,623,cs),
(298,674,o),
(246,710,o),
(174,710,cs),
(94,710,o),
(36,667,o),
(36,601,cs),
(36,553,o),
(59,526,o),
(90,507,c),
(39,490,o),
(14,462,o),
(14,424,cs),
(14,361,o),
(76,322,o),
(169,322,cs),
(253,322,o),
(323,366,o),
(323,440,cs),
(323,499,o),
(284,528,o),
(241,547,c)
);
},
{
closed = 1;
nodes = (
(196,649,o),
(210,634,o),
(210,609,cs),
(210,592,o),
(204,579,o),
(192,567,c),
(156,581,o),
(126,593,o),
(126,618,cs),
(126,636,o),
(142,649,o),
(168,649,cs)
);
},
{
closed = 1;
nodes = (
(139,393,o),
(120,412,o),
(120,440,cs),
(120,457,o),
(125,470,o),
(138,484,c),
(180,468,o),
(220,458,o),
(220,432,cs),
(220,408,o),
(201,393,o),
(170,393,cs)
);
}
);
};
layerId = UUID0;
shapes = (
{
pos = (0,320);
ref = eight.dnom;
}
);
width = 337;
}
);
},
{
color = 6;
glyphname = nine.numr;
lastChange = "2023-02-01 18:15:54 +0000";
layers = (
{
background = {
shapes = (
{
closed = 1;
nodes = (
(55,707,o),
(-2,653,o),
(-2,579,cs),
(-2,513,o),
(42,468,o),
(113,468,cs),
(142,468,o),
(176,481,o),
(195,514,c),
(189,451,o),
(157,414,o),
(104,414,cs),
(81,414,o),
(58,420,o),
(37,431,c),
(14,354,l),
(41,336,o),
(75,328,o),
(114,328,cs),
(228,328,o),
(304,413,o),
(304,534,cs),
(304,637,o),
(251,707,o),
(145,707,cs)
);
},
{
closed = 1;
nodes = (
(116,546,o),
(97,561,o),
(97,586,cs),
(97,612,o),
(116,630,o),
(144,630,cs),
(174,630,o),
(191,606,o),
(195,560,c),
(180,550,o),
(162,546,o),
(144,546,cs)
);
}
);
};
layerId = UUID0;
shapes = (
{
pos = (0,320);
ref = nine.dnom;
}
);
width = 342;
}
);
},
{
color = 3;
glyphname = fraction;
lastChange = "2023-02-01 10:33:46 +0000";
layers = (
{
background = {
shapes = (
{
closed = 1;
nodes = (
(-68,0,l),
(308,688,l),
(198,688,l),
(-176,0,l)
);
}
);
};
layerId = UUID0;
shapes = (
{
closed = 1;
nodes = (
(-68,0,l),
(308,688,l),
(198,688,l),
(-176,0,l)
);
}
);
width = 132;
}
);
unicode = 8260;
},
{
color = 4;
glyphname = zeroinferior;
lastChange = "2023-02-01 18:16:36 +0000";
layers = (
{
background = {
shapes = (
{
closed = 1;
nodes = (
(296,-10,o),
(361,79,o),
(361,182,cs),
(361,285,o),
(293,374,o),
(190,374,cs),
(99,374,o),
(18,304,o),
(18,182,cs),
(18,79,o),
(81,-10,o),
(190,-10,cs)
);
},
{
closed = 1;
nodes = (
(150,82,o),
(131,132,o),
(131,182,cs),
(131,236,o),
(150,282,o),
(190,282,cs),
(227,282,o),
(248,235,o),
(248,182,cs),
(248,124,o),
(222,82,o),
(190,82,cs)
);
}
);
};
layerId = UUID0;
shapes = (
{
closed = 1;
nodes = (
(296,-11,o),
(361,80,o),
(361,185,cs),
(361,289,o),
(293,380,o),
(190,380,cs),
(99,380,o),
(18,309,o),
(18,185,cs),
(18,80,o),
(81,-11,o),
(190,-11,cs)
);
},
{
closed = 1;
nodes = (
(150,83,o),
(131,134,o),
(131,185,cs),
(131,239,o),
(150,286,o),
(190,286,cs),
(227,286,o),
(248,238,o),
(248,185,cs),
(248,125,o),
(222,83,o),
(190,83,cs)
);
}
);
width = 379;
}
);
unicode = 8320;
},
{
color = 4;
glyphname = oneinferior;
lastChange = "2023-02-01 18:16:36 +0000";
layers = (
{
background = {
shapes = (
{
closed = 1;
nodes = (
(238,0,l),
(238,78,l),
(194,78,l),
(194,355,l),
(139,355,l),
(108,332,o),
(74,320,o),
(37,320,c),
(37,251,l),
(81,255,l),
(81,78,l),
(37,78,l),
(37,0,l)
);
}
);
};
layerId = UUID0;
shapes = (
{
closed = 1;
nodes = (
(238,0,l),
(238,78,l),
(194,78,l),
(194,368,l),
(139,368,l),
(108,345,o),
(74,333,o),
(37,333,c),
(37,266,l),
(81,266,l),
(81,78,l),
(37,78,l),
(37,0,l)
);
}
);
width = 259;
}
);
unicode = 8321;
},
{
color = 4;
glyphname = twoinferior;
lastChange = "2023-02-01 18:16:36 +0000";
layers = (
{
background = {
shapes = (
{
closed = 1;
nodes = (
(257,0,l),
(257,83,l),
(140,83,l),
(224,130,o),
(268,186,o),
(268,247,cs),
(268,320,o),
(218,368,o),
(137,368,cs),
(92,368,o),
(50,358,o),
(14,337,c),
(43,252,l),
(60,264,o),
(90,273,o),
(111,273,cs),
(136,273,o),
(151,264,o),
(151,243,cs),
(151,216,o),
(122,171,o),
(21,79,c),
(21,0,l)
);
}
);
};
layerId = UUID0;
shapes = (
{
closed = 1;
nodes = (
(265,0,l),
(265,80,l),
(128,80,l),
(220,133,o),
(267,190,o),
(267,260,cs),
(267,329,o),
(217,380,o),
(130,380,cs),
(89,380,o),
(44,369,o),
(9,349,c),
(37,264,l),
(61,279,o),
(86,286,o),
(111,286,cs),
(136,286,o),
(152,274,o),
(152,249,cs),
(152,210,o),
(101,153,o),
(16,77,c),
(16,0,l)
);
}
);
width = 294;
}
);
unicode = 8322;
},
{
color = 4;
glyphname = threeinferior;
lastChange = "2023-02-01 18:16:36 +0000";
layers = (
{
background = {
shapes = (
{
closed = 1;
nodes = (
(215,-10,o),
(268,31,o),
(268,96,cs),
(268,142,o),
(245,175,o),
(200,195,c),
(240,218,o),
(252,248,o),
(252,284,cs),
(252,335,o),
(203,373,o),
(139,373,cs),
(94,373,o),
(53,363,o),
(16,344,c),
(35,270,l),
(67,282,o),
(96,286,o),
(119,286,cs),
(146,286,o),
(157,277,o),
(157,260,cs),
(157,237,o),
(126,224,o),
(61,224,c),
(61,150,l),
(127,150,o),
(160,136,o),
(160,106,cs),
(160,86,o),
(145,73,o),
(119,73,cs),
(95,73,o),
(67,79,o),
(35,91,c),
(16,14,l),
(53,-2,o),
(92,-10,o),
(133,-10,cs)
);
}
);
};
layerId = UUID0;
shapes = (
{
closed = 1;
nodes = (
(214,-11,o),
(269,35,o),
(269,108,cs),
(269,144,o),
(249,179,o),
(202,197,c),
(234,218,o),
(253,250,o),
(253,286,cs),
(253,343,o),
(208,380,o),
(136,380,cs),
(92,380,o),
(51,369,o),
(16,348,c),
(37,272,l),
(62,284,o),
(89,291,o),
(119,291,cs),
(145,291,o),
(161,281,o),
(161,265,cs),
(161,239,o),
(128,226,o),
(64,226,c),
(64,156,l),
(135,156,o),
(163,144,o),
(163,113,cs),
(163,89,o),
(148,77,o),
(118,77,cs),
(95,77,o),
(68,83,o),
(39,95,c),
(21,11,l),
(53,-3,o),
(92,-11,o),
(130,-11,cs)
);
}
);
width = 294;
}
);
unicode = 8323;
},
{
color = 4;
glyphname = fourinferior;
lastChange = "2023-02-01 18:16:36 +0000";
layers = (
{
background = {
shapes = (
{
closed = 1;
nodes = (
(294,0,l),
(294,88,l),
(340,88,l),
(340,165,l),
(294,165,l),
(294,369,l),
(169,369,l),
(22,165,l),
(22,88,l),
(174,88,l),
(174,0,l)
);
},
{
closed = 1;
nodes = (
(174,273,l),
(174,165,l),
(102,165,l)
);
}
);
};
layerId = UUID0;
shapes = (
{
closed = 1;
nodes = (
(294,0,l),
(294,88,l),
(340,88,l),
(340,165,l),
(294,165,l),
(294,368,l),
(169,368,l),
(22,165,l),
(22,88,l),
(174,88,l),
(174,0,l)
);
},
{
closed = 1;
nodes = (
(174,272,l),
(174,165,l),
(102,165,l)
);
}
);
width = 357;
}
);
unicode = 8324;
},
{
color = 4;
glyphname = fiveinferior;
lastChange = "2023-02-01 18:16:36 +0000";
layers = (
{
background = {
shapes = (
{
closed = 1;
nodes = (
(218,-10,o),
(277,43,o),
(277,118,cs),
(277,190,o),
(233,241,o),
(165,241,cs),
(147,241,o),
(124,237,o),
(103,228,c),
(111,288,l),
(240,288,l),
(248,369,l),
(37,369,l),
(23,162,l),
(79,137,l),
(99,151,o),
(118,159,o),
(133,159,cs),
(156,159,o),
(171,143,o),
(171,118,cs),
(171,89,o),
(151,73,o),
(117,73,cs),
(92,73,o),
(60,79,o),
(32,90,c),
(25,10,l),
(63,-5,o),
(97,-10,o),
(129,-10,cs)
);
}
);
};
layerId = UUID0;
shapes = (
{
closed = 1;
nodes = (
(218,-11,o),
(278,44,o),
(278,132,cs),
(278,185,o),
(243,238,o),
(177,238,cs),
(145,238,o),
(117,226,o),
(100,194,c),
(115,185,l),
(124,286,l),
(248,286,l),
(256,368,l),
(47,368,l),
(30,156,l),
(87,131,l),
(102,146,o),
(118,153,o),
(137,153,cs),
(160,153,o),
(175,139,o),
(175,117,cs),
(175,92,o),
(158,74,o),
(120,74,cs),
(93,74,o),
(63,83,o),
(43,95,c),
(26,11,l),
(61,-5,o),
(94,-11,o),
(127,-11,cs)
);
}
);
width = 294;
}
);
unicode = 8325;
},
{
color = 4;
glyphname = sixinferior;
lastChange = "2023-02-01 18:16:36 +0000";
layers = (
{
background = {
shapes = (
{
closed = 1;
nodes = (
(262,-10,o),
(326,46,o),
(326,114,cs),
(326,182,o),
(283,227,o),
(217,227,cs),
(181,227,o),
(151,214,o),
(127,188,c),
(134,258,o),
(158,286,o),
(209,286,cs),
(228,286,o),
(254,278,o),
(283,262,c),
(309,335,l),
(277,358,o),
(235,372,o),
(196,372,cs),
(94,372,o),
(19,287,o),
(19,170,cs),
(19,60,o),
(83,-10,o),
(182,-10,cs)
);
},
{
closed = 1;
nodes = (
(148,70,o),
(130,99,o),
(129,145,c),
(144,151,o),
(159,155,o),
(181,155,cs),
(206,155,o),
(225,137,o),
(225,114,cs),
(225,88,o),
(205,70,o),
(182,70,cs)
);
}
);
};
layerId = UUID0;
shapes = (
{
closed = 1;
nodes = (
(121,137,l),
(137,150,o),
(158,155,o),
(178,155,cs),
(206,155,o),
(225,140,o),
(225,114,cs),
(225,87,o),
(206,68,o),
(178,68,cs),
(143,68,o),
(126,101,o),
(126,164,cs),
(126,244,o),
(159,291,o),
(218,291,cs),
(241,291,o),
(264,285,o),
(285,274,c),
(308,353,l),
(281,372,o),
(247,380,o),
(208,380,cs),
(94,380,o),
(18,292,o),
(18,167,cs),
(18,61,o),
(71,-11,o),
(177,-11,cs),
(267,-11,o),
(324,45,o),
(324,121,cs),
(324,189,o),
(280,236,o),
(209,236,cs),
(177,236,o),
(137,218,o),
(121,175,c)
);
}
);
width = 342;
}
);
unicode = 8326;
},
{
color = 4;
glyphname = seveninferior;
lastChange = "2023-02-01 18:16:36 +0000";
layers = (
{
background = {
shapes = (
{
closed = 1;
nodes = (
(251,298,l),
(251,369,l),
(22,369,l),
(22,289,l),
(136,289,l),
(30,30,l),
(131,-12,l)
);
}
);
};
layerId = UUID0;
shapes = (
{
closed = 1;
nodes = (
(251,297,l),
(251,368,l),
(22,368,l),
(22,288,l),
(136,288,l),
(30,29,l),
(131,-13,l)
);
}
);
width = 267;
}
);
unicode = 8327;
},
{
color = 4;
glyphname = eightinferior;
lastChange = "2023-02-01 18:16:36 +0000";
layers = (
{
background = {
shapes = (
{
closed = 1;
nodes = (
(232,213,l),
(278,229,o),
(298,253,o),
(298,292,cs),
(298,344,o),
(246,380,o),
(174,380,cs),
(94,380,o),
(36,337,o),
(36,270,cs),
(36,136,o),
(220,157,o),
(220,100,cs),
(220,76,o),
(201,61,o),
(170,61,cs),
(139,61,o),
(120,80,o),
(120,108,cs),
(120,128,o),
(127,144,o),
(147,161,c),
(100,178,l),
(43,162,o),
(14,132,o),
(14,92,cs),
(14,28,o),
(76,-11,o),
(169,-11,cs),
(253,-11,o),
(323,33,o),
(323,108,cs),
(323,241,o),
(126,223,o),
(126,287,cs),
(126,305,o),
(142,319,o),
(168,319,cs),
(196,319,o),
(210,303,o),
(210,278,cs),
(210,258,o),
(202,243,o),
(185,230,c)
);
}
);
};
layerId = UUID0;
shapes = (
{
closed = 1;
nodes = (
(14,28,o),
(76,-11,o),
(169,-11,cs),
(253,-11,o),
(323,33,o),
(323,108,cs),
(323,167,o),
(284,196,o),
(241,216,c),
(281,232,o),
(298,256,o),
(298,292,cs),
(298,344,o),
(246,380,o),
(174,380,cs),
(94,380,o),
(36,337,o),
(36,270,cs),
(36,222,o),
(60,194,o),
(90,175,c),
(40,158,o),
(14,130,o),
(14,92,cs)
);
},
{
closed = 1;
nodes = (
(120,125,o),
(125,138,o),
(138,152,c),
(180,136,o),
(220,126,o),
(220,100,cs),
(220,76,o),
(201,61,o),
(170,61,cs),
(139,61,o),
(120,80,o),
(120,108,cs)
);
},
{
closed = 1;
nodes = (
(126,305,o),
(142,319,o),
(168,319,cs),
(196,319,o),
(210,303,o),
(210,278,cs),
(210,261,o),
(204,248,o),
(192,236,c),
(156,250,o),
(126,262,o),
(126,287,cs)
);
}
);
width = 337;
}
);
unicode = 8328;
},
{
color = 4;
glyphname = nineinferior;
lastChange = "2023-02-01 18:16:36 +0000";
layers = (
{
background = {
shapes = (
{
closed = 1;
nodes = (
(248,-10,o),
(323,75,o),
(323,192,cs),
(323,302,o),
(259,372,o),
(160,372,cs),
(80,372,o),
(16,316,o),
(16,248,cs),
(16,180,o),
(59,135,o),
(125,135,cs),
(161,135,o),
(191,148,o),
(215,174,c),
(208,104,o),
(184,76,o),
(133,76,cs),
(114,76,o),
(88,84,o),
(59,100,c),
(33,27,l),
(65,4,o),
(107,-10,o),
(146,-10,cs)
);
},
{
closed = 1;
nodes = (
(136,207,o),
(117,225,o),
(117,248,cs),
(117,274,o),
(137,292,o),
(160,292,cs),
(194,292,o),
(212,263,o),
(213,217,c),
(198,211,o),
(183,207,o),
(161,207,cs)
);
}
);
};
layerId = UUID0;
shapes = (
{
closed = 1;
nodes = (
(221,232,l),
(205,219,o),
(184,214,o),
(164,214,cs),
(136,214,o),
(117,229,o),
(117,255,cs),
(117,282,o),
(136,301,o),
(164,301,cs),
(199,301,o),
(216,268,o),
(216,205,cs),
(216,125,o),
(183,78,o),
(124,78,cs),
(101,78,o),
(78,84,o),
(57,95,c),
(34,16,l),
(61,-3,o),
(95,-11,o),
(134,-11,cs),
(248,-11,o),
(324,77,o),
(324,202,cs),
(324,308,o),
(271,380,o),
(165,380,cs),
(75,380,o),
(18,324,o),
(18,248,cs),
(18,180,o),
(62,133,o),
(133,133,cs),
(165,133,o),
(205,151,o),
(221,194,c)
);
}
);
width = 342;
}
);
unicode = 8329;
},
{
color = 6;
glyphname = zerosuperior;
lastChange = "2023-02-01 18:12:46 +0000";
layers = (
{
background = {
shapes = (
{
closed = 1;
nodes = (
(296,325,o),
(361,414,o),
(361,517,cs),
(361,620,o),
(293,709,o),
(190,709,cs),
(99,709,o),
(18,639,o),
(18,517,cs),
(18,414,o),
(81,325,o),
(190,325,cs)
);
},
{
closed = 1;
nodes = (
(150,417,o),
(131,467,o),
(131,517,cs),
(131,571,o),
(150,617,o),
(190,617,cs),
(227,617,o),
(248,570,o),
(248,517,cs),
(248,459,o),
(222,417,o),
(190,417,cs)
);
}
);
};
layerId = UUID0;
shapes = (
{
pos = (0,320);
ref = zero.dnom;
}
);
width = 379;
}
);
unicode = 8304;
},
{
color = 6;
glyphname = onesuperior;
lastChange = "2023-02-01 18:15:54 +0000";
layers = (
{
background = {
shapes = (
{
closed = 1;
nodes = (
(228,335,l),
(228,413,l),
(184,413,l),
(184,690,l),
(129,690,l),
(98,667,o),
(64,655,o),
(27,655,c),
(27,586,l),
(71,590,l),
(71,413,l),
(27,413,l),
(27,335,l)
);
}
);
};
layerId = UUID0;
shapes = (
{
pos = (0,320);
ref = one.dnom;
}
);
width = 259;
}
);
unicode = 185;
},
{
color = 6;
glyphname = twosuperior;
lastChange = "2023-02-01 18:12:46 +0000";
layers = (
{
background = {
shapes = (
{
closed = 1;
nodes = (
(270,335,l),
(270,415,l),
(133,415,l),
(225,466,o),
(272,521,o),
(272,588,cs),
(272,654,o),
(222,703,o),
(135,703,cs),
(94,703,o),
(49,692,o),
(14,673,c),
(42,592,l),
(66,606,o),
(91,613,o),
(116,613,cs),
(141,613,o),
(157,601,o),
(157,577,cs),
(157,540,o),
(106,485,o),
(21,412,c),
(21,335,l)
);
}
);
};
layerId = UUID0;
shapes = (
{
pos = (0,320);
ref = two.dnom;
}
);
width = 294;
}
);
unicode = 178;
},
{
color = 6;
glyphname = threesuperior;
lastChange = "2023-02-01 18:15:54 +0000";
layers = (
{
background = {
shapes = (
{
closed = 1;
nodes = (
(212,324,o),
(267,369,o),
(267,441,cs),
(267,476,o),
(247,511,o),
(200,528,c),
(232,549,o),
(251,580,o),
(251,616,cs),
(251,672,o),
(206,708,o),
(134,708,cs),
(90,708,o),
(49,697,o),
(14,677,c),
(35,602,l),
(60,614,o),
(87,621,o),
(117,621,cs),
(143,621,o),
(159,611,o),
(159,595,cs),
(159,570,o),
(126,557,o),
(62,557,c),
(62,488,l),
(133,488,o),
(161,476,o),
(161,446,cs),
(161,422,o),
(146,410,o),
(116,410,cs),
(93,410,o),
(66,416,o),
(37,428,c),
(19,346,l),
(51,332,o),
(90,324,o),
(128,324,cs)
);
}
);
};
layerId = UUID0;
shapes = (
{
pos = (0,320);
ref = three.dnom;
}
);
width = 294;
}
);
unicode = 179;
},
{
color = 6;
glyphname = foursuperior;
lastChange = "2023-02-01 18:15:54 +0000";
layers = (
{
background = {
shapes = (
{
closed = 1;
nodes = (
(282,335,l),
(282,423,l),
(328,423,l),
(328,500,l),
(282,500,l),
(282,704,l),
(157,704,l),
(10,500,l),
(10,423,l),
(162,423,l),
(162,335,l)
);
},
{
closed = 1;
nodes = (
(162,608,l),
(162,500,l),
(90,500,l)
);
}
);
};
layerId = UUID0;
shapes = (
{
pos = (0,320);
ref = four.dnom;
}
);
width = 357;
}
);
unicode = 8308;
},
{
color = 6;
glyphname = fivesuperior;
lastChange = "2023-02-01 18:15:54 +0000";
layers = (
{
background = {
shapes = (
{
closed = 1;
nodes = (
(155,573,o),
(135,567,o),
(119,552,c),
(125,622,l),
(249,622,l),
(257,704,l),
(48,704,l),
(31,491,l),
(88,466,l),
(103,481,o),
(119,488,o),
(138,488,cs),
(161,488,o),
(176,474,o),
(176,452,cs),
(176,425,o),
(159,407,o),
(121,407,cs),
(94,407,o),
(64,416,o),
(44,428,c),
(27,344,l),
(62,328,o),
(95,322,o),
(128,322,cs),
(219,322,o),
(279,377,o),
(279,467,cs),
(279,520,o),
(244,573,o),
(178,573,cs)
);
}
);
};
layerId = UUID0;
shapes = (
{
pos = (0,320);
ref = five.dnom;
}
);
width = 294;
}
);
unicode = 8309;
},
{
color = 6;
glyphname = sixsuperior;
lastChange = "2023-02-01 18:15:54 +0000";
layers = (
{
background = {
shapes = (
{
closed = 1;
nodes = (
(180,567,o),
(146,554,o),
(127,521,c),
(133,584,o),
(165,621,o),
(218,621,cs),
(241,621,o),
(264,615,o),
(285,604,c),
(308,681,l),
(281,699,o),
(247,707,o),
(208,707,cs),
(94,707,o),
(18,622,o),
(18,501,cs),
(18,398,o),
(71,328,o),
(177,328,cs),
(267,328,o),
(324,382,o),
(324,456,cs),
(324,522,o),
(280,567,o),
(209,567,cs)
);
},
{
closed = 1;
nodes = (
(148,405,o),
(131,429,o),
(127,475,c),
(142,485,o),
(160,489,o),
(178,489,cs),
(206,489,o),
(225,474,o),
(225,449,cs),
(225,423,o),
(206,405,o),
(178,405,cs)
);
}
);
};
layerId = UUID0;
shapes = (
{
pos = (0,320);
ref = six.dnom;
}
);
width = 342;
}
);
unicode = 8310;
},
{
color = 6;
glyphname = sevensuperior;
lastChange = "2023-02-01 18:15:54 +0000";
layers = (
{
background = {
shapes = (
{
closed = 1;
nodes = (
(251,633,l),
(251,704,l),
(22,704,l),
(22,624,l),
(136,624,l),
(30,365,l),
(131,323,l)
);
}
);
};
layerId = UUID0;
shapes = (
{
pos = (0,320);
ref = seven.dnom;
}
);
width = 267;
}
);
unicode = 8311;
},
{
color = 6;
glyphname = eightsuperior;
lastChange = "2023-02-01 18:12:46 +0000";
layers = (
{
background = {
shapes = (
{
closed = 1;
nodes = (
(281,563,o),
(298,587,o),
(298,623,cs),
(298,674,o),
(246,710,o),
(174,710,cs),
(94,710,o),
(36,667,o),
(36,601,cs),
(36,553,o),
(59,526,o),
(90,507,c),
(39,490,o),
(14,462,o),
(14,424,cs),
(14,361,o),
(76,322,o),
(169,322,cs),
(253,322,o),
(323,366,o),
(323,440,cs),
(323,499,o),
(284,528,o),
(241,547,c)
);
},
{
closed = 1;
nodes = (
(196,649,o),
(210,634,o),
(210,609,cs),
(210,592,o),
(204,579,o),
(192,567,c),
(156,581,o),
(126,593,o),
(126,618,cs),
(126,636,o),
(142,649,o),
(168,649,cs)
);
},
{
closed = 1;
nodes = (
(139,393,o),
(120,412,o),
(120,440,cs),
(120,457,o),
(125,470,o),
(138,484,c),
(180,468,o),
(220,458,o),
(220,432,cs),
(220,408,o),
(201,393,o),
(170,393,cs)
);
}
);
};
layerId = UUID0;
shapes = (
{
pos = (0,320);
ref = eight.dnom;
}
);
width = 337;
}
);
unicode = 8312;
},
{
color = 6;
glyphname = ninesuperior;
lastChange = "2023-02-01 18:15:54 +0000";
layers = (
{
background = {
shapes = (
{
closed = 1;
nodes = (
(55,707,o),
(-2,653,o),
(-2,579,cs),
(-2,513,o),
(42,468,o),
(113,468,cs),
(142,468,o),
(176,481,o),
(195,514,c),
(189,451,o),
(157,414,o),
(104,414,cs),
(81,414,o),
(58,420,o),
(37,431,c),
(14,354,l),
(41,336,o),
(75,328,o),
(114,328,cs),
(228,328,o),
(304,413,o),
(304,534,cs),
(304,637,o),
(251,707,o),
(145,707,cs)
);
},
{
closed = 1;
nodes = (
(116,546,o),
(97,561,o),
(97,586,cs),
(97,612,o),
(116,630,o),
(144,630,cs),
(174,630,o),
(191,606,o),
(195,560,c),
(180,550,o),
(162,546,o),
(144,546,cs)
);
}
);
};
layerId = UUID0;
shapes = (
{
pos = (0,320);
ref = nine.dnom;
}
);
width = 342;
}
);
unicode = 8313;
},
{
color = 9;
glyphname = .notdef;
lastChange = "2023-02-02 15:29:45 +0000";
layers = (
{
layerId = UUID0;
shapes = (
{
closed = 1;
nodes = (
(713,-170,l),
(713,688,l),
(100,688,l),
(100,-170,l)
);
},
{
closed = 1;
nodes = (
(283,535,l),
(530,535,l),
(530,-17,l),
(283,-17,l)
);
}
);
width = 813;
}
);
},
{
color = 3;
glyphname = "leftanglebracket-math";
lastChange = "2019-06-13 11:09:43 +0000";
layers = (
{
background = {
shapes = (
{
closed = 1;
nodes = (
(370,-133,l),
(204,321,l),
(370,775,l),
(216,775,l),
(40,321,l),
(216,-133,l)
);
}
);
};
layerId = UUID0;
shapes = (
{
closed = 1;
nodes = (
(370,-133,l),
(194,321,l),
(370,775,l),
(216,775,l),
(40,321,l),
(216,-133,l)
);
}
);
width = 370;
}
);
unicode = 10216;
},
{
color = 3;
glyphname = "rightanglebracket-math";
lastChange = "2019-06-13 11:09:46 +0000";
layers = (
{
background = {
shapes = (
{
closed = 1;
nodes = (
(154,-133,l),
(330,321,l),
(154,775,l),
(0,775,l),
(166,321,l),
(0,-133,l)
);
}
);
};
layerId = UUID0;
shapes = (
{
closed = 1;
nodes = (
(154,-133,l),
(330,321,l),
(154,775,l),
(0,775,l),
(176,321,l),
(0,-133,l)
);
}
);
width = 370;
}
);
unicode = 10217;
},
{
color = 3;
glyphname = period;
kernLeft = period;
kernRight = period;
lastChange = "2023-02-01 10:33:46 +0000";
layers = (
{
background = {
shapes = (
{
closed = 1;
nodes = (
(216,-6,o),
(255,35,o),
(255,96,cs),
(255,150,o),
(211,197,o),
(143,197,cs),
(75,197,o),
(30,155,o),
(30,96,cs),
(30,39,o),
(70,-6,o),
(143,-6,cs)
);
}
);
};
layerId = UUID0;
shapes = (
{
closed = 1;
nodes = (
(216,-6,o),
(255,35,o),
(255,96,cs),
(255,150,o),
(211,197,o),
(143,197,cs),
(75,197,o),
(30,155,o),
(30,96,cs),
(30,39,o),
(70,-6,o),
(143,-6,cs)
);
}
);
width = 285;
}
);
unicode = 46;
},
{
color = 3;
glyphname = comma;
kernLeft = period;
kernRight = period;
lastChange = "2023-02-01 10:33:46 +0000";
layers = (
{
background = {
shapes = (
{
closed = 1;
nodes = (
(623,-169,o),
(645,-130,o),
(645,85,cs),
(645,187,l),
(440,187,l),
(440,0,l),
(533,0,l),
(533,-53,o),
(529,-52,o),
(440,-52,c),
(440,-169,l)
);
},
{
closed = 1;
nodes = (
(208,-6,o),
(245,35,o),
(245,96,cs),
(245,150,o),
(203,197,o),
(138,197,cs),
(73,197,o),
(30,155,o),
(30,96,cs),
(30,39,o),
(68,-6,o),
(138,-6,cs)
);
}
);
};
layerId = UUID0;
shapes = (
{
closed = 1;
nodes = (
(189,-138,o),
(255,-57,o),
(255,57,cs),
(255,144,o),
(212,197,o),
(140,197,cs),
(75,197,o),
(30,155,o),
(30,96,cs),
(30,37,o),
(70,-6,o),
(123,-6,c),
(123,-36,o),
(94,-61,o),
(35,-81,c),
(70,-169,l)
);
}
);
width = 285;
}
);
unicode = 44;
},
{
color = 3;
glyphname = exclam;
lastChange = "2023-02-01 10:33:46 +0000";
layers = (
{
background = {
shapes = (
{
closed = 1;
nodes = (
(219,252,l),
(258,535,l),
(258,690,l),
(47,690,l),
(47,535,l),
(87,252,l)
);
},
{
closed = 1;
nodes = (
(226,-6,o),
(265,35,o),
(265,96,cs),
(265,150,o),
(221,197,o),
(153,197,cs),
(85,197,o),
(40,155,o),
(40,96,cs),
(40,39,o),
(80,-6,o),
(153,-6,cs)
);
}
);
};
layerId = UUID0;
shapes = (
{
closed = 1;
nodes = (
(219,252,l),
(258,535,l),
(258,690,l),
(47,690,l),
(47,535,l),
(87,252,l)
);
},
{
closed = 1;
nodes = (
(226,-6,o),
(265,35,o),
(265,96,cs),
(265,150,o),
(221,197,o),
(153,197,cs),
(85,197,o),
(40,155,o),
(40,96,cs),
(40,39,o),
(80,-6,o),
(153,-6,cs)
);
}
);
width = 305;
}
);
unicode = 33;
},
{
color = 3;
glyphname = exclamdown;
lastChange = "2023-02-01 10:33:46 +0000";
layers = (
{
background = {
shapes = (
{
closed = 1;
nodes = (
(258,0,l),
(258,155,l),
(219,438,l),
(87,438,l),
(47,155,l),
(47,0,l)
);
},
{
closed = 1;
nodes = (
(226,494,o),
(265,535,o),
(265,596,cs),
(265,650,o),
(221,697,o),
(153,697,cs),
(85,697,o),
(40,655,o),
(40,596,cs),
(40,539,o),
(80,494,o),
(153,494,cs)
);
}
);
};
layerId = UUID0;
shapes = (
{
closed = 1;
nodes = (
(258,-190,l),
(258,-35,l),
(219,248,l),
(87,248,l),
(47,-35,l),
(47,-190,l)
);
},
{
closed = 1;
nodes = (
(226,304,o),
(265,345,o),
(265,406,cs),
(265,460,o),
(221,507,o),
(153,507,cs),
(85,507,o),
(40,465,o),
(40,406,cs),
(40,349,o),
(80,304,o),
(153,304,cs)
);
}
);
width = 305;
}
);
unicode = 161;
},
{
color = 3;
glyphname = question;
lastChange = "2023-02-02 11:27:38 +0000";
layers = (
{
background = {
shapes = (
{
closed = 1;
nodes = (
(237,254,l),
(237,273,ls),
(237,368,o),
(461,338,o),
(461,517,cs),
(461,627,o),
(362,703,o),
(219,703,cs),
(160,703,o),
(83,688,o),
(18,659,c),
(32,507,l),
(71,524,o),
(114,533,o),
(162,533,cs),
(214,533,o),
(241,522,o),
(241,501,cs),
(241,457,o),
(80,454,o),
(80,332,cs),
(80,310,o),
(87,282,o),
(97,254,c)
);
},
{
closed = 1;
nodes = (
(236,-6,o),
(278,32,o),
(278,96,cs),
(278,154,o),
(230,197,o),
(166,197,cs),
(99,197,o),
(53,156,o),
(53,96,cs),
(53,35,o),
(98,-6,o),
(166,-6,cs)
);
}
);
};
layerId = UUID0;
shapes = (
{
closed = 1;
nodes = (
(237,254,l),
(237,273,ls),
(237,368,o),
(461,338,o),
(461,517,cs),
(461,627,o),
(362,703,o),
(219,703,cs),
(150,703,o),
(73,688,o),
(18,659,c),
(32,507,l),
(71,524,o),
(114,533,o),
(162,533,cs),
(214,533,o),
(241,522,o),
(241,501,cs),
(241,457,o),
(80,454,o),
(80,332,cs),
(80,310,o),
(87,282,o),
(97,254,c)
);
},
{
closed = 1;
nodes = (
(236,-6,o),
(278,32,o),
(278,96,cs),
(278,154,o),
(230,197,o),
(166,197,cs),
(99,197,o),
(53,156,o),
(53,96,cs),
(53,35,o),
(98,-6,o),
(166,-6,cs)
);
}
);
width = 475;
}
);
unicode = 63;
},
{
color = 3;
glyphname = questiondown;
lastChange = "2023-02-02 11:27:37 +0000";
layers = (
{
background = {
shapes = (
{
closed = 1;
nodes = (
(315,-15,o),
(392,0,o),
(457,29,c),
(443,181,l),
(404,164,o),
(361,155,o),
(313,155,cs),
(261,155,o),
(234,166,o),
(234,187,cs),
(234,231,o),
(395,234,o),
(395,356,cs),
(395,378,o),
(388,406,o),
(378,434,c),
(238,434,l),
(238,415,ls),
(238,320,o),
(14,350,o),
(14,171,cs),
(14,61,o),
(113,-15,o),
(256,-15,cs)
);
},
{
closed = 1;
nodes = (
(384,494,o),
(423,535,o),
(423,596,cs),
(423,650,o),
(379,697,o),
(311,697,cs),
(243,697,o),
(198,655,o),
(198,596,cs),
(198,539,o),
(238,494,o),
(311,494,cs)
);
}
);
};
layerId = UUID0;
shapes = (
{
closed = 1;
nodes = (
(325,-185,o),
(402,-171,o),
(457,-143,c),
(443,9,l),
(404,-7,o),
(361,-15,o),
(313,-15,cs),
(261,-15,o),
(234,-5,o),
(234,15,cs),
(234,56,o),
(395,58,o),
(395,172,cs),
(395,192,o),
(388,218,o),
(378,244,c),
(238,244,l),
(238,226,ls),
(238,135,o),
(14,164,o),
(14,-7,cs),
(14,-112,o),
(113,-185,o),
(256,-185,cs)
);
},
{
closed = 1;
nodes = (
(384,304,o),
(423,345,o),
(423,406,cs),
(423,460,o),
(379,507,o),
(311,507,cs),
(243,507,o),
(198,465,o),
(198,406,cs),
(198,349,o),
(238,304,o),
(311,304,cs)
);
}
);
width = 475;
}
);
unicode = 191;
},
{
color = 3;
glyphname = periodcentered;
lastChange = "2023-02-01 10:33:46 +0000";
layers = (
{
background = {
shapes = (
{
closed = 1;
nodes = (
(255,166,l),
(255,353,l),
(50,353,l),
(50,166,l)
);
}
);
};
layerId = UUID0;
shapes = (
{
closed = 1;
nodes = (
(226,159,o),
(265,200,o),
(265,261,cs),
(265,315,o),
(221,362,o),
(153,362,cs),
(85,362,o),
(40,320,o),
(40,261,cs),
(40,204,o),
(80,159,o),
(153,159,cs)
);
}
);
width = 305;
}
);
unicode = 183;
},
{
color = 3;
glyphname = bullet;
lastChange = "2023-02-01 10:33:46 +0000";
layers = (
{
background = {
shapes = (
{
closed = 1;
nodes = (
(371,56,o),
(473,130,o),
(473,259,cs),
(473,378,o),
(381,462,o),
(253,462,cs),
(123,462,o),
(33,374,o),
(33,259,cs),
(33,139,o),
(126,56,o),
(252,56,cs)
);
}
);
};
layerId = UUID0;
shapes = (
{
closed = 1;
nodes = (
(371,56,o),
(473,130,o),
(473,259,cs),
(473,378,o),
(381,462,o),
(253,462,cs),
(123,462,o),
(33,374,o),
(33,259,cs),
(33,139,o),
(126,56,o),
(252,56,cs)
);
}
);
width = 506;
}
);
unicode = 8226;
},
{
color = 3;
glyphname = asterisk;
lastChange = "2023-02-01 10:33:46 +0000";
layers = (
{
background = {
shapes = (
{
closed = 1;
nodes = (
(244,376,l),
(340,231,l),
(441,312,l),
(327,432,l),
(483,499,l),
(427,607,l),
(296,525,l),
(309,688,l),
(187,688,l),
(198,524,l),
(63,605,l),
(10,499,l),
(164,432,l),
(50,313,l),
(150,231,l)
);
}
);
};
layerId = UUID0;
shapes = (
{
closed = 1;
nodes = (
(244,376,l),
(340,231,l),
(441,312,l),
(327,432,l),
(483,499,l),
(427,607,l),
(296,525,l),
(309,688,l),
(187,688,l),
(198,524,l),
(63,605,l),
(10,499,l),
(164,432,l),
(50,313,l),
(150,231,l)
);
}
);
width = 493;
}
);
unicode = 42;
},
{
color = 3;
glyphname = numbersign;
lastChange = "2023-02-01 10:33:46 +0000";
layers = (
{
background = {
shapes = (
{
closed = 1;
nodes = (
(199,0,l),
(232,188,l),
(313,188,l),
(280,0,l),
(413,0,l),
(446,188,l),
(532,188,l),
(554,312,l),
(468,312,l),
(479,376,l),
(566,376,l),
(588,500,l),
(501,500,l),
(534,688,l),
(401,688,l),
(368,500,l),
(287,500,l),
(320,688,l),
(187,688,l),
(154,500,l),
(68,500,l),
(46,376,l),
(132,376,l),
(121,312,l),
(34,312,l),
(12,188,l),
(99,188,l),
(66,0,l)
);
},
{
closed = 1;
nodes = (
(265,376,l),
(346,376,l),
(335,312,l),
(254,312,l)
);
}
);
};
layerId = UUID0;
shapes = (
{
closed = 1;
nodes = (
(199,0,l),
(232,188,l),
(313,188,l),
(280,0,l),
(413,0,l),
(446,188,l),
(532,188,l),
(554,312,l),
(468,312,l),
(479,376,l),
(566,376,l),
(588,500,l),
(501,500,l),
(534,688,l),
(401,688,l),
(368,500,l),
(287,500,l),
(320,688,l),
(187,688,l),
(154,500,l),
(68,500,l),
(46,376,l),
(132,376,l),
(121,312,l),
(34,312,l),
(12,188,l),
(99,188,l),
(66,0,l)
);
},
{
closed = 1;
nodes = (
(265,376,l),
(346,376,l),
(335,312,l),
(254,312,l)
);
}
);
width = 600;
}
);
unicode = 35;
},
{
color = 3;
glyphname = slash;
lastChange = "2023-02-01 10:33:46 +0000";
layers = (
{
background = {
shapes = (
{
closed = 1;
nodes = (
(204,0,l),
(470,688,l),
(276,688,l),
(10,0,l)
);
}
);
};
layerId = UUID0;
shapes = (
{
closed = 1;
nodes = (
(204,0,l),
(470,688,l),
(276,688,l),
(10,0,l)
);
}
);
width = 480;
}
);
unicode = 47;
},
{
color = 3;
glyphname = backslash;
lastChange = "2023-02-01 10:33:46 +0000";
layers = (
{
background = {
shapes = (
{
closed = 1;
nodes = (
(470,0,l),
(204,688,l),
(10,688,l),
(276,0,l)
);
}
);
};
layerId = UUID0;
shapes = (
{
closed = 1;
nodes = (
(470,0,l),
(204,688,l),
(10,688,l),
(276,0,l)
);
}
);
width = 480;
}
);
unicode = 92;
},
{
color = 3;
glyphname = periodcentered.loclCAT;
lastChange = "2019-06-13 11:03:11 +0000";
layers = (
{
anchors = (
{
name = _center;
pos = (46,378);
}
);
background = {
anchors = (
{
name = _center;
pos = (46,418);
}
);
shapes = (
{
closed = 1;
nodes = (
(102,320,o),
(148,361,o),
(148,417,cs),
(148,475,o),
(102,515,o),
(46,515,cs),
(-10,515,o),
(-57,471,o),
(-57,417,cs),
(-57,357,o),
(-10,320,o),
(46,320,cs)
);
}
);
};
layerId = UUID0;
shapes = (
{
closed = 1;
nodes = (
(102,280,o),
(148,321,o),
(148,377,cs),
(148,435,o),
(102,475,o),
(46,475,cs),
(-10,475,o),
(-57,431,o),
(-57,377,cs),
(-57,317,o),
(-10,280,o),
(46,280,cs)
);
}
);
width = 148;
}
);
},
{
color = 3;
glyphname = hyphen;
kernLeft = hyphen;
kernRight = hyphen;
lastChange = "2023-02-01 10:33:46 +0000";
layers = (
{
background = {
shapes = (
{
closed = 1;
nodes = (
(315,173,l),
(315,329,l),
(46,329,l),
(46,173,l)
);
}
);
};
layerId = UUID0;
shapes = (
{
closed = 1;
nodes = (
(315,173,l),
(315,329,l),
(46,329,l),
(46,173,l)
);
}
);
width = 361;
}
);
unicode = 45;
},
{
color = 3;
glyphname = endash;
kernLeft = hyphen;
kernRight = hyphen;
lastChange = "2023-02-01 10:33:46 +0000";
layers = (
{
background = {
shapes = (
{
closed = 1;
nodes = (
(454,173,l),
(454,329,l),
(46,329,l),
(46,173,l)
);
}
);
};
layerId = UUID0;
shapes = (
{
closed = 1;
nodes = (
(454,173,l),
(454,329,l),
(46,329,l),
(46,173,l)
);
}
);
width = 500;
}
);
unicode = 8211;
},
{
color = 3;
glyphname = emdash;
kernLeft = hyphen;
kernRight = hyphen;
lastChange = "2023-02-01 10:33:46 +0000";
layers = (
{
background = {
shapes = (
{
closed = 1;
nodes = (
(754,173,l),
(754,329,l),
(46,329,l),
(46,173,l)
);
}
);
};
layerId = UUID0;
shapes = (
{
closed = 1;
nodes = (
(754,173,l),
(754,329,l),
(46,329,l),
(46,173,l)
);
}
);
width = 800;
}
);
unicode = 8212;
},
{
color = 3;
glyphname = underscore;
lastChange = "2023-02-02 12:39:49 +0000";
layers = (
{
background = {
shapes = (
{
closed = 1;
nodes = (
(428,0,l),
(428,156,l),
(47,156,l),
(47,0,l)
);
}
);
};
layerId = UUID0;
shapes = (
{
closed = 1;
nodes = (
(428,-156,l),
(428,0,l),
(47,0,l),
(47,-156,l)
);
}
);
width = 475;
}
);
unicode = 95;
},
{
color = 4;
glyphname = parenleft;
lastChange = "2023-02-02 12:21:38 +0000";
layers = (
{
background = {
shapes = (
{
closed = 1;
nodes = (
(395,-2,l),
(285,18,o),
(243,150,o),
(243,326,cs),
(243,521,o),
(302,630,o),
(395,646,c),
(395,772,l),
(165,749,o),
(20,590,o),
(20,326,cs),
(20,76,o),
(152,-107,o),
(395,-129,c)
);
}
);
};
layerId = UUID0;
shapes = (
{
closed = 1;
nodes = (
(395,-67,l),
(285,-47,o),
(243,85,o),
(243,261,cs),
(243,456,o),
(302,565,o),
(395,581,c),
(395,707,l),
(165,684,o),
(20,525,o),
(20,261,cs),
(20,11,o),
(152,-172,o),
(395,-194,c)
);
}
);
width = 417;
}
);
unicode = 40;
},
{
color = 4;
glyphname = parenright;
lastChange = "2023-02-01 20:34:43 +0000";
layers = (
{
background = {
shapes = (
{
closed = 1;
nodes = (
(259,-107,o),
(397,68,o),
(397,326,cs),
(397,568,o),
(271,747,o),
(22,772,c),
(22,646,l),
(121,630,o),
(175,511,o),
(175,326,cs),
(175,125,o),
(116,14,o),
(22,-2,c),
(22,-129,l)
);
}
);
};
layerId = UUID0;
shapes = (
{
closed = 1;
nodes = (
(259,-172,o),
(397,3,o),
(397,261,cs),
(397,503,o),
(271,682,o),
(22,707,c),
(22,581,l),
(121,565,o),
(175,446,o),
(175,261,cs),
(175,60,o),
(116,-51,o),
(22,-67,c),
(22,-194,l)
);
}
);
width = 417;
}
);
unicode = 41;
},
{
color = 4;
glyphname = braceleft;
lastChange = "2023-02-02 12:21:59 +0000";
layers = (
{
background = {
shapes = (
{
closed = 1;
nodes = (
(435,-67,l),
(325,-47,o),
(283,85,o),
(283,261,cs),
(283,456,o),
(342,565,o),
(435,581,c),
(435,707,l),
(205,684,o),
(60,525,o),
(60,261,cs),
(60,11,o),
(192,-172,o),
(435,-194,c)
);
}
);
};
layerId = UUID0;
shapes = (
{
closed = 1;
nodes = (
(435,-89,l),
(386,-71,o),
(353,7,o),
(345,118,cs),
(339,195,o),
(308,228,o),
(252,259,c),
(307,288,o),
(339,323,o),
(345,399,cs),
(353,505,o),
(383,587,o),
(435,607,c),
(435,712,l),
(251,696,o),
(122,575,o),
(112,399,cs),
(110,353,o),
(84,331,o),
(40,326,c),
(40,192,l),
(84,187,o),
(110,162,o),
(112,118,cs),
(122,-53,o),
(248,-180,o),
(435,-194,c)
);
}
);
width = 457;
}
);
unicode = 123;
},
{
color = 4;
glyphname = braceright;
lastChange = "2023-02-01 20:34:43 +0000";
layers = (
{
background = {
shapes = (
{
closed = 1;
nodes = (
(189,-23,o),
(288,76,o),
(288,238,cs),
(288,275,o),
(313,295,o),
(350,299,c),
(350,377,l),
(313,381,o),
(288,399,o),
(288,437,cs),
(288,595,o),
(193,699,o),
(33,712,c),
(33,625,l),
(74,609,o),
(95,546,o),
(95,437,cs),
(95,391,o),
(124,362,o),
(171,338,c),
(124,313,o),
(95,285,o),
(95,238,cs),
(95,134,o),
(77,67,o),
(33,51,c),
(33,-36,l)
);
}
);
};
layerId = UUID0;
shapes = (
{
closed = 1;
nodes = (
(209,-180,o),
(335,-53,o),
(345,118,cs),
(347,162,o),
(373,187,o),
(417,192,c),
(417,326,l),
(373,331,o),
(347,353,o),
(345,399,cs),
(335,575,o),
(206,696,o),
(22,712,c),
(22,607,l),
(74,587,o),
(104,505,o),
(112,399,cs),
(118,323,o),
(150,288,o),
(205,259,c),
(149,228,o),
(118,195,o),
(112,118,cs),
(104,7,o),
(71,-71,o),
(22,-89,c),
(22,-194,l)
);
}
);
width = 457;
}
);
unicode = 125;
},
{
color = 4;
glyphname = bracketleft;
lastChange = "2023-02-01 20:34:43 +0000";
layers = (
{
background = {
shapes = (
{
closed = 1;
nodes = (
(413,0,l),
(413,147,l),
(273,147,l),
(273,539,l),
(413,539,l),
(413,688,l),
(58,688,l),
(58,0,l)
);
}
);
};
layerId = UUID0;
shapes = (
{
closed = 1;
nodes = (
(413,-180,l),
(413,-34,l),
(273,-34,l),
(273,542,l),
(413,542,l),
(413,688,l),
(58,688,l),
(58,-180,l)
);
}
);
width = 435;
}
);
unicode = 91;
},
{
color = 4;
glyphname = bracketright;
lastChange = "2023-02-01 20:34:43 +0000";
layers = (
{
background = {
shapes = (
{
closed = 1;
nodes = (
(389,0,l),
(389,688,l),
(34,688,l),
(34,539,l),
(174,539,l),
(174,147,l),
(34,147,l),
(34,0,l)
);
}
);
};
layerId = UUID0;
shapes = (
{
closed = 1;
nodes = (
(377,-180,l),
(377,688,l),
(22,688,l),
(22,542,l),
(162,542,l),
(162,-34,l),
(22,-34,l),
(22,-180,l)
);
}
);
width = 435;
}
);
unicode = 93;
},
{
color = 3;
glyphname = quoteleft;
kernLeft = quoteleft;
kernRight = quoteleft;
lastChange = "2023-02-02 12:44:27 +0000";
layers = (
{
background = {
shapes = (
{
closed = 1;
nodes = (
(245,342,l),
(245,529,l),
(152,529,l),
(152,582,o),
(156,581,o),
(245,581,c),
(245,698,l),
(62,698,o),
(40,659,o),
(40,444,cs),
(40,342,l)
);
}
);
};
layerId = UUID0;
shapes = (
{
closed = 1;
nodes = (
(96,667,o),
(30,586,o),
(30,472,cs),
(30,385,o),
(73,332,o),
(145,332,cs),
(210,332,o),
(255,374,o),
(255,433,cs),
(255,492,o),
(215,535,o),
(162,535,c),
(162,565,o),
(191,590,o),
(250,610,c),
(215,698,l)
);
}
);
width = 285;
}
);
unicode = 8216;
},
{
color = 3;
glyphname = quoteright;
kernLeft = quoteright;
kernRight = quoteright;
lastChange = "2023-02-02 12:44:28 +0000";
layers = (
{
background = {
shapes = (
{
closed = 1;
nodes = (
(223,332,o),
(245,371,o),
(245,586,cs),
(245,688,l),
(40,688,l),
(40,501,l),
(133,501,l),
(133,448,o),
(129,449,o),
(40,449,c),
(40,332,l)
);
}
);
};
layerId = UUID0;
shapes = (
{
closed = 1;
nodes = (
(189,363,o),
(255,444,o),
(255,558,cs),
(255,645,o),
(212,698,o),
(140,698,cs),
(75,698,o),
(30,656,o),
(30,597,cs),
(30,538,o),
(70,495,o),
(123,495,c),
(123,465,o),
(94,440,o),
(35,420,c),
(70,332,l)
);
}
);
width = 285;
}
);
unicode = 8217;
},
{
color = 3;
glyphname = guillemetleft;
kernLeft = guillemotleft;
kernRight = guillemotleft;
lastChange = "2023-02-01 10:33:46 +0000";
layers = (
{
background = {
shapes = (
{
closed = 1;
nodes = (
(496,245,l),
(399,306,l),
(496,363,l),
(496,545,l),
(286,396,l),
(286,216,l),
(496,63,l)
);
},
{
closed = 1;
nodes = (
(236,245,l),
(140,306,l),
(236,363,l),
(236,545,l),
(26,396,l),
(26,216,l),
(236,63,l)
);
}
);
};
layerId = UUID0;
shapes = (
{
closed = 1;
nodes = (
(496,195,l),
(399,256,l),
(496,313,l),
(496,495,l),
(286,346,l),
(286,166,l),
(496,13,l)
);
},
{
closed = 1;
nodes = (
(236,195,l),
(140,256,l),
(236,313,l),
(236,495,l),
(26,346,l),
(26,166,l),
(236,13,l)
);
}
);
width = 542;
}
);
unicode = 171;
},
{
color = 3;
glyphname = guillemetright;
kernLeft = guillemotright;
kernRight = guillemotright;
lastChange = "2023-02-01 10:33:46 +0000";
layers = (
{
background = {
shapes = (
{
closed = 1;
nodes = (
(515,216,l),
(515,396,l),
(305,545,l),
(305,363,l),
(400,306,l),
(305,245,l),
(305,63,l)
);
},
{
closed = 1;
nodes = (
(256,216,l),
(256,396,l),
(46,545,l),
(46,363,l),
(142,306,l),
(46,245,l),
(46,63,l)
);
}
);
};
layerId = UUID0;
shapes = (
{
closed = 1;
nodes = (
(515,166,l),
(515,346,l),
(305,495,l),
(305,313,l),
(400,256,l),
(305,195,l),
(305,13,l)
);
},
{
closed = 1;
nodes = (
(256,166,l),
(256,346,l),
(46,495,l),
(46,313,l),
(142,256,l),
(46,195,l),
(46,13,l)
);
}
);
width = 541;
}
);
unicode = 187;
},
{
color = 3;
glyphname = guilsinglleft;
kernLeft = guillemotleft;
kernRight = guillemotleft;
lastChange = "2023-02-01 10:33:46 +0000";
layers = (
{
background = {
shapes = (
{
closed = 1;
nodes = (
(236,245,l),
(139,306,l),
(236,363,l),
(236,545,l),
(26,396,l),
(26,216,l),
(236,63,l)
);
}
);
};
layerId = UUID0;
shapes = (
{
closed = 1;
nodes = (
(236,195,l),
(139,256,l),
(236,313,l),
(236,495,l),
(26,346,l),
(26,166,l),
(236,13,l)
);
}
);
width = 282;
}
);
unicode = 8249;
},
{
color = 3;
glyphname = guilsinglright;
kernLeft = guillemotright;
kernRight = guillemotright;
lastChange = "2023-02-01 10:33:46 +0000";
layers = (
{
background = {
shapes = (
{
closed = 1;
nodes = (
(256,216,l),
(256,396,l),
(46,545,l),
(46,363,l),
(142,306,l),
(46,245,l),
(46,63,l)
);
}
);
};
layerId = UUID0;
shapes = (
{
closed = 1;
nodes = (
(256,166,l),
(256,346,l),
(46,495,l),
(46,313,l),
(142,256,l),
(46,195,l),
(46,13,l)
);
}
);
width = 282;
}
);
unicode = 8250;
},
{
color = 3;
glyphname = quotedbl;
kernLeft = quotedbl;
kernRight = quotedbl;
lastChange = "2023-02-01 10:33:46 +0000";
layers = (
{
background = {
shapes = (
{
closed = 1;
nodes = (
(377,451,l),
(405,749,l),
(240,749,l),
(261,451,l)
);
},
{
closed = 1;
nodes = (
(167,451,l),
(195,749,l),
(30,749,l),
(51,451,l)
);
}
);
};
layerId = UUID0;
shapes = (
{
closed = 1;
nodes = (
(377,451,l),
(405,749,l),
(240,749,l),
(261,451,l)
);
},
{
closed = 1;
nodes = (
(167,451,l),
(195,749,l),
(30,749,l),
(51,451,l)
);
}
);
width = 435;
}
);
unicode = 34;
},
{
color = 3;
glyphname = quotesingle;
kernLeft = quotedbl;
kernRight = quotedbl;
lastChange = "2023-02-01 10:33:46 +0000";
layers = (
{
background = {
shapes = (
{
closed = 1;
nodes = (
(167,451,l),
(195,749,l),
(30,749,l),
(51,451,l)
);
}
);
};
layerId = UUID0;
shapes = (
{
closed = 1;
nodes = (
(167,451,l),
(195,749,l),
(30,749,l),
(51,451,l)
);
}
);
width = 225;
}
);
unicode = 39;
},
{
color = 4;
glyphname = florin;
lastChange = "2023-02-01 11:29:16 +0000";
layers = (
{
background = {
shapes = (
{
closed = 1;
nodes = (
(1121,598,o),
(1146,617,o),
(1183,617,cs),
(1209,617,o),
(1242,612,o),
(1273,594,c),
(1287,729,l),
(1253,755,o),
(1205,768,o),
(1154,768,cs),
(1028,768,o),
(941,693,o),
(941,543,cs),
(941,501,l),
(835,501,l),
(835,377,l),
(941,377,l),
(941,38,ls),
(941,-15,o),
(921,-38,o),
(875,-38,cs),
(856,-38,o),
(832,-34,o),
(810,-26,c),
(780,-169,l),
(815,-184,o),
(862,-195,o),
(917,-195,cs),
(1075,-195,o),
(1152,-106,o),
(1152,56,cs),
(1152,377,l),
(1279,377,l),
(1279,501,l),
(1138,501,l),
(1127,523,o),
(1121,543,o),
(1121,561,cs)
);
},
{
closed = 1;
nodes = (
(352,0,l),
(352,377,l),
(469,377,l),
(469,501,l),
(328,501,l),
(323,510,o),
(321,518,o),
(321,527,cs),
(321,554,o),
(345,568,o),
(388,568,cs),
(414,568,o),
(442,565,o),
(472,558,c),
(486,685,l),
(453,699,o),
(405,707,o),
(354,707,cs),
(228,707,o),
(141,639,o),
(141,530,cs),
(141,501,l),
(78,501,l),
(78,377,l),
(141,377,l),
(141,0,l)
);
}
);
};
layerId = UUID0;
shapes = (
{
closed = 1;
nodes = (
(321,554,o),
(345,568,o),
(388,568,cs),
(414,568,o),
(442,565,o),
(472,558,c),
(486,685,l),
(453,699,o),
(405,707,o),
(354,707,cs),
(228,707,o),
(141,639,o),
(141,530,cs),
(141,501,l),
(35,501,l),
(35,377,l),
(141,377,l),
(141,38,ls),
(141,-15,o),
(121,-38,o),
(75,-38,cs),
(56,-38,o),
(32,-34,o),
(10,-26,c),
(-20,-169,l),
(15,-184,o),
(62,-195,o),
(117,-195,cs),
(275,-195,o),
(352,-106,o),
(352,56,cs),
(352,377,l),
(479,377,l),
(479,501,l),
(328,501,l),
(323,510,o),
(321,518,o),
(321,527,cs)
);
}
);
width = 489;
}
);
unicode = 402;
},
{
color = 3;
glyphname = at;
lastChange = "2023-02-01 10:33:46 +0000";
layers = (
{
background = {
shapes = (
{
closed = 1;
nodes = (
(542,-16,o),
(616,3,o),
(698,50,c),
(640,150,l),
(582,119,o),
(515,104,o),
(439,104,cs),
(272,104,o),
(157,208,o),
(157,360,cs),
(157,513,o),
(277,624,o),
(444,624,cs),
(622,624,o),
(711,552,o),
(711,408,cs),
(711,331,o),
(689,284,o),
(652,284,cs),
(641,284,o),
(628,291,o),
(616,304,c),
(616,528,l),
(569,536,o),
(506,542,o),
(454,542,cs),
(314,542,o),
(228,471,o),
(228,356,cs),
(228,254,o),
(304,185,o),
(393,185,cs),
(447,185,o),
(488,210,o),
(514,258,c),
(544,208,o),
(593,184,o),
(665,184,cs),
(774,184,o),
(838,268,o),
(838,410,cs),
(838,615,o),
(689,740,o),
(443,740,cs),
(202,740,o),
(31,582,o),
(31,359,cs),
(31,138,o),
(198,-16,o),
(439,-16,cs)
);
},
{
closed = 1;
nodes = (
(390,296,o),
(360,326,o),
(360,364,cs),
(360,413,o),
(395,440,o),
(458,440,cs),
(494,440,l),
(494,361,ls),
(494,326,o),
(464,296,o),
(428,296,cs)
);
}
);
};
layerId = UUID0;
shapes = (
{
closed = 1;
nodes = (
(731,175,o),
(824,268,o),
(824,416,cs),
(824,600,o),
(674,718,o),
(448,718,cs),
(207,718,o),
(34,563,o),
(34,345,cs),
(34,127,o),
(198,-21,o),
(439,-21,cs),
(538,-21,o),
(612,-1,o),
(684,46,c),
(640,131,l),
(572,95,o),
(514,81,o),
(439,81,cs),
(272,81,o),
(157,189,o),
(157,346,cs),
(157,505,o),
(274,615,o),
(444,615,cs),
(616,615,o),
(711,543,o),
(711,414,cs),
(711,327,o),
(679,283,o),
(623,283,c),
(623,519,l),
(493,519,l),
(493,450,l),
(474,500,o),
(435,524,o),
(389,524,cs),
(300,524,o),
(235,450,o),
(235,349,cs),
(235,246,o),
(301,170,o),
(389,170,cs),
(437,170,o),
(470,187,o),
(491,233,c),
(491,175,l),
(582,175,ls)
);
},
{
closed = 1;
nodes = (
(394,278,o),
(367,309,o),
(367,347,cs),
(367,385,o),
(394,416,o),
(429,416,cs),
(464,416,o),
(491,387,o),
(491,348,cs),
(491,309,o),
(464,278,o),
(429,278,cs)
);
}
);
width = 864;
}
);
unicode = 64;
},
{
color = 4;
glyphname = ampersand;
lastChange = "2023-02-01 11:31:44 +0000";
layers = (
{
background = {
shapes = (
{
closed = 1;
nodes = (
(670,85,l),
(316,441,ls),
(285,472,o),
(280,493,o),
(280,512,cs),
(280,544,o),
(300,566,o),
(335,566,cs),
(369,566,o),
(389,546,o),
(389,514,cs),
(389,372,o),
(18,400,o),
(18,172,cs),
(18,62,o),
(115,-16,o),
(260,-16,cs),
(440,-16,o),
(590,110,o),
(688,259,c),
(567,344,l),
(439,172,o),
(370,132,o),
(290,132,cs),
(228,132,o),
(201,154,o),
(201,190,cs),
(201,321,o),
(551,298,o),
(551,518,cs),
(551,622,o),
(462,690,o),
(327,690,cs),
(192,690,o),
(96,610,o),
(96,509,cs),
(96,460,o),
(112,410,o),
(150,373,cs),
(556,-29,l)
);
}
);
};
layerId = UUID0;
shapes = (
{
closed = 1;
nodes = (
(670,85,l),
(604,152,l),
(635,185,o),
(663,221,o),
(688,259,c),
(567,344,l),
(542,310,o),
(519,282,o),
(498,258,c),
(417,340,l),
(489,376,o),
(551,425,o),
(551,518,cs),
(551,622,o),
(462,690,o),
(327,690,cs),
(192,690,o),
(96,610,o),
(96,509,cs),
(96,460,o),
(112,410,o),
(150,373,cs),
(165,358,l),
(87,321,o),
(18,270,o),
(18,172,cs),
(18,62,o),
(115,-16,o),
(260,-16,cs),
(339,-16,o),
(412,8,o),
(478,48,c),
(556,-29,l)
);
},
{
closed = 1;
nodes = (
(201,223,o),
(224,247,o),
(257,267,c),
(374,151,l),
(345,137,o),
(318,132,o),
(290,132,cs),
(228,132,o),
(201,154,o),
(201,190,cs)
);
},
{
closed = 1;
nodes = (
(280,544,o),
(300,566,o),
(335,566,cs),
(369,566,o),
(389,546,o),
(389,514,cs),
(389,477,o),
(364,452,o),
(327,430,c),
(316,441,ls),
(285,472,o),
(280,493,o),
(280,512,cs)
);
}
);
width = 701;
}
);
unicode = 38;
},
{
color = 3;
glyphname = paragraph;
lastChange = "2023-02-01 10:33:46 +0000";
layers = (
{
background = {
shapes = (
{
closed = 1;
nodes = (
(332,0,l),
(332,612,l),
(395,612,l),
(395,0,l),
(475,0,l),
(475,688,l),
(251,688,ls),
(108,688,o),
(16,618,o),
(16,521,cs),
(16,424,o),
(98,355,o),
(209,355,cs),
(251,355,l),
(251,0,l)
);
}
);
};
layerId = UUID0;
shapes = (
{
closed = 1;
nodes = (
(332,0,l),
(332,612,l),
(395,612,l),
(395,0,l),
(475,0,l),
(475,688,l),
(231,688,ls),
(108,688,o),
(16,618,o),
(16,521,cs),
(16,424,o),
(98,355,o),
(209,355,cs),
(251,355,l),
(251,0,l)
);
}
);
width = 530;
}
);
unicode = 182;
},
{
color = 4;
glyphname = section;
lastChange = "2023-02-01 11:32:25 +0000";
layers = (
{
background = {
shapes = (
{
closed = 1;
nodes = (
(372,213,o),
(481,261,o),
(481,362,cs),
(481,522,o),
(213,500,o),
(213,555,cs),
(213,573,o),
(234,583,o),
(286,583,cs),
(316,583,o),
(380,576,o),
(419,555,c),
(455,664,l),
(416,689,o),
(347,703,o),
(291,703,cs),
(133,703,o),
(40,639,o),
(40,536,cs),
(40,371,o),
(309,410,o),
(309,335,cs),
(309,314,o),
(286,304,o),
(244,294,c),
(286,203,l)
);
},
{
closed = 1;
nodes = (
(139,474,o),
(30,426,o),
(30,325,cs),
(30,165,o),
(298,187,o),
(298,132,cs),
(298,114,o),
(277,104,o),
(235,104,cs),
(195,104,o),
(131,111,o),
(92,132,c),
(56,23,l),
(95,-2,o),
(164,-16,o),
(230,-16,cs),
(378,-16,o),
(471,48,o),
(471,151,cs),
(471,316,o),
(202,277,o),
(202,352,cs),
(202,373,o),
(225,393,o),
(267,393,c),
(225,484,l)
);
}
);
};
layerId = UUID0;
shapes = (
{
closed = 1;
nodes = (
(30,165,o),
(298,187,o),
(298,132,cs),
(298,114,o),
(277,104,o),
(235,104,cs),
(195,104,o),
(131,111,o),
(92,132,c),
(56,23,l),
(95,-2,o),
(164,-16,o),
(230,-16,cs),
(378,-16,o),
(471,48,o),
(471,151,cs),
(471,198,o),
(449,229,o),
(418,250,c),
(455,276,o),
(481,312,o),
(481,362,cs),
(481,522,o),
(213,500,o),
(213,555,cs),
(213,573,o),
(234,583,o),
(286,583,cs),
(316,583,o),
(380,576,o),
(419,555,c),
(455,664,l),
(416,689,o),
(347,703,o),
(291,703,cs),
(133,703,o),
(40,639,o),
(40,536,cs),
(40,489,o),
(62,458,o),
(93,437,c),
(56,411,o),
(30,375,o),
(30,325,cs)
);
},
{
closed = 1;
nodes = (
(202,366,o),
(212,379,o),
(230,386,c),
(274,374,o),
(309,362,o),
(309,335,cs),
(309,320,o),
(297,310,o),
(274,302,c),
(233,314,o),
(202,326,o),
(202,352,cs)
);
}
);
width = 511;
}
);
unicode = 167;
},
